<?xml version="1.0" encoding="utf-8"?>
<svg xmlns="http://www.w3.org/2000/svg" xmlns:xlink="http://www.w3.org/1999/xlink" width="800" height="500" viewBox="0 0 3200 2000">
<defs>
  <clipPath id="clip670">
    <rect x="0" y="0" width="3200" height="2000"/>
  </clipPath>
</defs>
<path clip-path="url(#clip670)" d="M0 2000 L3200 2000 L3200 0 L0 0  Z" fill="#ffffff" fill-rule="evenodd" fill-opacity="1"/>
<defs>
  <clipPath id="clip671">
    <rect x="237" y="119" width="2916" height="1706"/>
  </clipPath>
</defs>
<path clip-path="url(#clip670)" d="M237.419 1824.31 L3152.76 1824.31 L3152.76 119.692 L237.419 119.692  Z" fill="#ffffff" fill-rule="evenodd" fill-opacity="1"/>
<polyline clip-path="url(#clip671)" style="stroke:#000000; stroke-linecap:round; stroke-linejoin:round; stroke-width:2; stroke-opacity:0.1; fill:none" points="319.929,1824.31 319.929,119.692 "/>
<polyline clip-path="url(#clip671)" style="stroke:#000000; stroke-linecap:round; stroke-linejoin:round; stroke-width:2; stroke-opacity:0.1; fill:none" points="1007.51,1824.31 1007.51,119.692 "/>
<polyline clip-path="url(#clip671)" style="stroke:#000000; stroke-linecap:round; stroke-linejoin:round; stroke-width:2; stroke-opacity:0.1; fill:none" points="1695.09,1824.31 1695.09,119.692 "/>
<polyline clip-path="url(#clip671)" style="stroke:#000000; stroke-linecap:round; stroke-linejoin:round; stroke-width:2; stroke-opacity:0.1; fill:none" points="2382.67,1824.31 2382.67,119.692 "/>
<polyline clip-path="url(#clip671)" style="stroke:#000000; stroke-linecap:round; stroke-linejoin:round; stroke-width:2; stroke-opacity:0.1; fill:none" points="3070.25,1824.31 3070.25,119.692 "/>
<polyline clip-path="url(#clip671)" style="stroke:#000000; stroke-linecap:round; stroke-linejoin:round; stroke-width:2; stroke-opacity:0.1; fill:none" points="237.419,1776.07 3152.76,1776.07 "/>
<polyline clip-path="url(#clip671)" style="stroke:#000000; stroke-linecap:round; stroke-linejoin:round; stroke-width:2; stroke-opacity:0.1; fill:none" points="237.419,1369.97 3152.76,1369.97 "/>
<polyline clip-path="url(#clip671)" style="stroke:#000000; stroke-linecap:round; stroke-linejoin:round; stroke-width:2; stroke-opacity:0.1; fill:none" points="237.419,963.879 3152.76,963.879 "/>
<polyline clip-path="url(#clip671)" style="stroke:#000000; stroke-linecap:round; stroke-linejoin:round; stroke-width:2; stroke-opacity:0.1; fill:none" points="237.419,557.786 3152.76,557.786 "/>
<polyline clip-path="url(#clip671)" style="stroke:#000000; stroke-linecap:round; stroke-linejoin:round; stroke-width:2; stroke-opacity:0.1; fill:none" points="237.419,151.692 3152.76,151.692 "/>
<polyline clip-path="url(#clip670)" style="stroke:#000000; stroke-linecap:round; stroke-linejoin:round; stroke-width:4; stroke-opacity:1; fill:none" points="237.419,1824.31 3152.76,1824.31 "/>
<polyline clip-path="url(#clip670)" style="stroke:#000000; stroke-linecap:round; stroke-linejoin:round; stroke-width:4; stroke-opacity:1; fill:none" points="319.929,1824.31 319.929,1805.41 "/>
<polyline clip-path="url(#clip670)" style="stroke:#000000; stroke-linecap:round; stroke-linejoin:round; stroke-width:4; stroke-opacity:1; fill:none" points="1007.51,1824.31 1007.51,1805.41 "/>
<polyline clip-path="url(#clip670)" style="stroke:#000000; stroke-linecap:round; stroke-linejoin:round; stroke-width:4; stroke-opacity:1; fill:none" points="1695.09,1824.31 1695.09,1805.41 "/>
<polyline clip-path="url(#clip670)" style="stroke:#000000; stroke-linecap:round; stroke-linejoin:round; stroke-width:4; stroke-opacity:1; fill:none" points="2382.67,1824.31 2382.67,1805.41 "/>
<polyline clip-path="url(#clip670)" style="stroke:#000000; stroke-linecap:round; stroke-linejoin:round; stroke-width:4; stroke-opacity:1; fill:none" points="3070.25,1824.31 3070.25,1805.41 "/>
<path clip-path="url(#clip670)" d="M319.929 1861.63 Q316.318 1861.63 314.489 1865.19 Q312.684 1868.73 312.684 1875.86 Q312.684 1882.97 314.489 1886.54 Q316.318 1890.08 319.929 1890.08 Q323.563 1890.08 325.369 1886.54 Q327.197 1882.97 327.197 1875.86 Q327.197 1868.73 325.369 1865.19 Q323.563 1861.63 319.929 1861.63 M319.929 1857.92 Q325.739 1857.92 328.795 1862.53 Q331.873 1867.11 331.873 1875.86 Q331.873 1884.59 328.795 1889.2 Q325.739 1893.78 319.929 1893.78 Q314.119 1893.78 311.04 1889.2 Q307.984 1884.59 307.984 1875.86 Q307.984 1867.11 311.04 1862.53 Q314.119 1857.92 319.929 1857.92 Z" fill="#000000" fill-rule="nonzero" fill-opacity="1" /><path clip-path="url(#clip670)" d="M982.196 1889.17 L989.835 1889.17 L989.835 1862.81 L981.525 1864.48 L981.525 1860.22 L989.788 1858.55 L994.464 1858.55 L994.464 1889.17 L1002.1 1889.17 L1002.1 1893.11 L982.196 1893.11 L982.196 1889.17 Z" fill="#000000" fill-rule="nonzero" fill-opacity="1" /><path clip-path="url(#clip670)" d="M1021.55 1861.63 Q1017.94 1861.63 1016.11 1865.19 Q1014.3 1868.73 1014.3 1875.86 Q1014.3 1882.97 1016.11 1886.54 Q1017.94 1890.08 1021.55 1890.08 Q1025.18 1890.08 1026.99 1886.54 Q1028.82 1882.97 1028.82 1875.86 Q1028.82 1868.73 1026.99 1865.19 Q1025.18 1861.63 1021.55 1861.63 M1021.55 1857.92 Q1027.36 1857.92 1030.41 1862.53 Q1033.49 1867.11 1033.49 1875.86 Q1033.49 1884.59 1030.41 1889.2 Q1027.36 1893.78 1021.55 1893.78 Q1015.74 1893.78 1012.66 1889.2 Q1009.6 1884.59 1009.6 1875.86 Q1009.6 1867.11 1012.66 1862.53 Q1015.74 1857.92 1021.55 1857.92 Z" fill="#000000" fill-rule="nonzero" fill-opacity="1" /><path clip-path="url(#clip670)" d="M1673.86 1889.17 L1690.18 1889.17 L1690.18 1893.11 L1668.24 1893.11 L1668.24 1889.17 Q1670.9 1886.42 1675.48 1881.79 Q1680.09 1877.14 1681.27 1875.8 Q1683.51 1873.27 1684.39 1871.54 Q1685.3 1869.78 1685.3 1868.09 Q1685.3 1865.33 1683.35 1863.6 Q1681.43 1861.86 1678.33 1861.86 Q1676.13 1861.86 1673.68 1862.62 Q1671.25 1863.39 1668.47 1864.94 L1668.47 1860.22 Q1671.29 1859.08 1673.75 1858.5 Q1676.2 1857.92 1678.24 1857.92 Q1683.61 1857.92 1686.8 1860.61 Q1690 1863.3 1690 1867.79 Q1690 1869.92 1689.18 1871.84 Q1688.4 1873.73 1686.29 1876.33 Q1685.71 1877 1682.61 1880.22 Q1679.51 1883.41 1673.86 1889.17 Z" fill="#000000" fill-rule="nonzero" fill-opacity="1" /><path clip-path="url(#clip670)" d="M1709.99 1861.63 Q1706.38 1861.63 1704.56 1865.19 Q1702.75 1868.73 1702.75 1875.86 Q1702.75 1882.97 1704.56 1886.54 Q1706.38 1890.08 1709.99 1890.08 Q1713.63 1890.08 1715.43 1886.54 Q1717.26 1882.97 1717.26 1875.86 Q1717.26 1868.73 1715.43 1865.19 Q1713.63 1861.63 1709.99 1861.63 M1709.99 1857.92 Q1715.81 1857.92 1718.86 1862.53 Q1721.94 1867.11 1721.94 1875.86 Q1721.94 1884.59 1718.86 1889.2 Q1715.81 1893.78 1709.99 1893.78 Q1704.18 1893.78 1701.11 1889.2 Q1698.05 1884.59 1698.05 1875.86 Q1698.05 1867.11 1701.11 1862.53 Q1704.18 1857.92 1709.99 1857.92 Z" fill="#000000" fill-rule="nonzero" fill-opacity="1" /><path clip-path="url(#clip670)" d="M2371.51 1874.48 Q2374.87 1875.19 2376.74 1877.46 Q2378.64 1879.73 2378.64 1883.06 Q2378.64 1888.18 2375.12 1890.98 Q2371.6 1893.78 2365.12 1893.78 Q2362.94 1893.78 2360.63 1893.34 Q2358.34 1892.92 2355.88 1892.07 L2355.88 1887.55 Q2357.83 1888.69 2360.14 1889.27 Q2362.46 1889.85 2364.98 1889.85 Q2369.38 1889.85 2371.67 1888.11 Q2373.99 1886.37 2373.99 1883.06 Q2373.99 1880.01 2371.83 1878.3 Q2369.7 1876.56 2365.88 1876.56 L2361.86 1876.56 L2361.86 1872.72 L2366.07 1872.72 Q2369.52 1872.72 2371.35 1871.35 Q2373.18 1869.96 2373.18 1867.37 Q2373.18 1864.71 2371.28 1863.3 Q2369.4 1861.86 2365.88 1861.86 Q2363.96 1861.86 2361.76 1862.28 Q2359.57 1862.69 2356.93 1863.57 L2356.93 1859.41 Q2359.59 1858.67 2361.9 1858.3 Q2364.24 1857.92 2366.3 1857.92 Q2371.63 1857.92 2374.73 1860.36 Q2377.83 1862.76 2377.83 1866.88 Q2377.83 1869.75 2376.19 1871.74 Q2374.54 1873.71 2371.51 1874.48 Z" fill="#000000" fill-rule="nonzero" fill-opacity="1" /><path clip-path="url(#clip670)" d="M2397.5 1861.63 Q2393.89 1861.63 2392.07 1865.19 Q2390.26 1868.73 2390.26 1875.86 Q2390.26 1882.97 2392.07 1886.54 Q2393.89 1890.08 2397.5 1890.08 Q2401.14 1890.08 2402.94 1886.54 Q2404.77 1882.97 2404.77 1875.86 Q2404.77 1868.73 2402.94 1865.19 Q2401.14 1861.63 2397.5 1861.63 M2397.5 1857.92 Q2403.32 1857.92 2406.37 1862.53 Q2409.45 1867.11 2409.45 1875.86 Q2409.45 1884.59 2406.37 1889.2 Q2403.32 1893.78 2397.5 1893.78 Q2391.69 1893.78 2388.62 1889.2 Q2385.56 1884.59 2385.56 1875.86 Q2385.56 1867.11 2388.62 1862.53 Q2391.69 1857.92 2397.5 1857.92 Z" fill="#000000" fill-rule="nonzero" fill-opacity="1" /><path clip-path="url(#clip670)" d="M3058.42 1862.62 L3046.61 1881.07 L3058.42 1881.07 L3058.42 1862.62 M3057.19 1858.55 L3063.07 1858.55 L3063.07 1881.07 L3068 1881.07 L3068 1884.96 L3063.07 1884.96 L3063.07 1893.11 L3058.42 1893.11 L3058.42 1884.96 L3042.82 1884.96 L3042.82 1880.45 L3057.19 1858.55 Z" fill="#000000" fill-rule="nonzero" fill-opacity="1" /><path clip-path="url(#clip670)" d="M3085.73 1861.63 Q3082.12 1861.63 3080.29 1865.19 Q3078.49 1868.73 3078.49 1875.86 Q3078.49 1882.97 3080.29 1886.54 Q3082.12 1890.08 3085.73 1890.08 Q3089.37 1890.08 3091.17 1886.54 Q3093 1882.97 3093 1875.86 Q3093 1868.73 3091.17 1865.19 Q3089.37 1861.63 3085.73 1861.63 M3085.73 1857.92 Q3091.54 1857.92 3094.6 1862.53 Q3097.68 1867.11 3097.68 1875.86 Q3097.68 1884.59 3094.6 1889.2 Q3091.54 1893.78 3085.73 1893.78 Q3079.92 1893.78 3076.84 1889.2 Q3073.79 1884.59 3073.79 1875.86 Q3073.79 1867.11 3076.84 1862.53 Q3079.92 1857.92 3085.73 1857.92 Z" fill="#000000" fill-rule="nonzero" fill-opacity="1" /><path clip-path="url(#clip670)" d="M1514.64 1958.48 L1514.64 1975.89 L1524.95 1975.89 Q1530.14 1975.89 1532.62 1973.76 Q1535.13 1971.59 1535.13 1967.17 Q1535.13 1962.71 1532.62 1960.61 Q1530.14 1958.48 1524.95 1958.48 L1514.64 1958.48 M1514.64 1938.94 L1514.64 1953.26 L1524.15 1953.26 Q1528.86 1953.26 1531.15 1951.51 Q1533.48 1949.73 1533.48 1946.1 Q1533.48 1942.5 1531.15 1940.72 Q1528.86 1938.94 1524.15 1938.94 L1514.64 1938.94 M1508.21 1933.65 L1524.63 1933.65 Q1531.98 1933.65 1535.96 1936.71 Q1539.94 1939.76 1539.94 1945.4 Q1539.94 1949.76 1537.9 1952.34 Q1535.87 1954.92 1531.92 1955.55 Q1536.66 1956.57 1539.27 1959.82 Q1541.91 1963.03 1541.91 1967.87 Q1541.91 1974.24 1537.58 1977.7 Q1533.26 1981.17 1525.27 1981.17 L1508.21 1981.17 L1508.21 1933.65 Z" fill="#000000" fill-rule="nonzero" fill-opacity="1" /><path clip-path="url(#clip670)" d="M1558.34 1975.83 L1558.34 1994.73 L1552.45 1994.73 L1552.45 1945.53 L1558.34 1945.53 L1558.34 1950.94 Q1560.18 1947.75 1562.98 1946.23 Q1565.82 1944.67 1569.73 1944.67 Q1576.22 1944.67 1580.27 1949.82 Q1584.34 1954.98 1584.34 1963.38 Q1584.34 1971.78 1580.27 1976.94 Q1576.22 1982.1 1569.73 1982.1 Q1565.82 1982.1 1562.98 1980.57 Q1560.18 1979.01 1558.34 1975.83 M1578.26 1963.38 Q1578.26 1956.92 1575.59 1953.26 Q1572.95 1949.57 1568.3 1949.57 Q1563.65 1949.57 1560.98 1953.26 Q1558.34 1956.92 1558.34 1963.38 Q1558.34 1969.84 1560.98 1973.53 Q1563.65 1977.2 1568.3 1977.2 Q1572.95 1977.2 1575.59 1973.53 Q1578.26 1969.84 1578.26 1963.38 Z" fill="#000000" fill-rule="nonzero" fill-opacity="1" /><path clip-path="url(#clip670)" d="M1624.54 1961.89 L1624.54 1964.75 L1597.61 1964.75 Q1597.99 1970.8 1601.24 1973.98 Q1604.52 1977.13 1610.34 1977.13 Q1613.72 1977.13 1616.87 1976.3 Q1620.05 1975.48 1623.17 1973.82 L1623.17 1979.36 Q1620.02 1980.7 1616.71 1981.4 Q1613.4 1982.1 1609.99 1982.1 Q1601.46 1982.1 1596.47 1977.13 Q1591.5 1972.17 1591.5 1963.7 Q1591.5 1954.95 1596.21 1949.82 Q1600.95 1944.67 1608.98 1944.67 Q1616.17 1944.67 1620.34 1949.31 Q1624.54 1953.93 1624.54 1961.89 M1618.68 1960.17 Q1618.62 1955.36 1615.98 1952.5 Q1613.37 1949.63 1609.04 1949.63 Q1604.14 1949.63 1601.18 1952.4 Q1598.25 1955.17 1597.8 1960.2 L1618.68 1960.17 Z" fill="#000000" fill-rule="nonzero" fill-opacity="1" /><path clip-path="url(#clip670)" d="M1633.93 1945.53 L1642.49 1945.53 L1652.61 1969.4 L1662.77 1945.53 L1671.26 1945.53 L1671.26 1981.17 L1665.38 1981.17 L1665.38 1951.13 L1655.54 1974.33 L1649.68 1974.33 L1639.82 1951.13 L1639.82 1981.17 L1633.93 1981.17 L1633.93 1945.53 Z" fill="#000000" fill-rule="nonzero" fill-opacity="1" /><path clip-path="url(#clip670)" d="M1689.22 1955.81 Q1689.22 1958.45 1691.25 1959.94 Q1693.29 1961.44 1697.08 1961.44 L1704.97 1961.44 L1704.97 1950.2 L1697.08 1950.2 Q1693.29 1950.2 1691.25 1951.67 Q1689.22 1953.13 1689.22 1955.81 M1680.88 1981.17 L1691.76 1965.55 Q1688.07 1964.72 1685.62 1962.55 Q1683.17 1960.36 1683.17 1955.81 Q1683.17 1950.65 1686.57 1948.1 Q1690.01 1945.53 1696.92 1945.53 L1710.86 1945.53 L1710.86 1981.17 L1704.97 1981.17 L1704.97 1966.12 L1697.68 1966.12 L1687.18 1981.17 L1680.88 1981.17 Z" fill="#000000" fill-rule="nonzero" fill-opacity="1" /><path clip-path="url(#clip670)" d="M1724.04 1973.09 L1730.75 1973.09 L1730.75 1978.56 L1725.53 1988.75 L1721.43 1988.75 L1724.04 1978.56 L1724.04 1973.09 Z" fill="#000000" fill-rule="nonzero" fill-opacity="1" /><path clip-path="url(#clip670)" d="M1771.94 1976.5 L1788.93 1976.5 L1788.93 1950.2 L1776.62 1950.2 L1776.62 1954.66 Q1776.62 1967.77 1772.86 1974.78 L1771.94 1976.5 M1763.44 1976.5 Q1766.34 1975.22 1767.61 1972.52 Q1770.73 1965.8 1770.73 1952.27 L1770.73 1945.53 L1794.82 1945.53 L1794.82 1976.5 L1799.5 1976.5 L1799.5 1990.18 L1794.82 1990.18 L1794.82 1981.17 L1765.92 1981.17 L1765.92 1990.18 L1761.24 1990.18 L1761.24 1976.5 L1763.44 1976.5 Z" fill="#000000" fill-rule="nonzero" fill-opacity="1" /><path clip-path="url(#clip670)" d="M1808.83 1945.53 L1814.72 1945.53 L1814.72 1960.07 L1833.72 1960.07 L1833.72 1945.53 L1839.61 1945.53 L1839.61 1981.17 L1833.72 1981.17 L1833.72 1964.75 L1814.72 1964.75 L1814.72 1981.17 L1808.83 1981.17 L1808.83 1945.53 Z" fill="#000000" fill-rule="nonzero" fill-opacity="1" /><path clip-path="url(#clip670)" d="M1881.97 1945.53 L1881.97 1981.17 L1876.14 1981.17 L1876.14 1952.56 L1858.96 1981.17 L1851.45 1981.17 L1851.45 1945.53 L1857.27 1945.53 L1857.27 1974.08 L1874.43 1945.53 L1881.97 1945.53 Z" fill="#000000" fill-rule="nonzero" fill-opacity="1" /><polyline clip-path="url(#clip670)" style="stroke:#000000; stroke-linecap:round; stroke-linejoin:round; stroke-width:4; stroke-opacity:1; fill:none" points="237.419,1824.31 237.419,119.692 "/>
<polyline clip-path="url(#clip670)" style="stroke:#000000; stroke-linecap:round; stroke-linejoin:round; stroke-width:4; stroke-opacity:1; fill:none" points="237.419,1776.07 256.317,1776.07 "/>
<polyline clip-path="url(#clip670)" style="stroke:#000000; stroke-linecap:round; stroke-linejoin:round; stroke-width:4; stroke-opacity:1; fill:none" points="237.419,1369.97 256.317,1369.97 "/>
<polyline clip-path="url(#clip670)" style="stroke:#000000; stroke-linecap:round; stroke-linejoin:round; stroke-width:4; stroke-opacity:1; fill:none" points="237.419,963.879 256.317,963.879 "/>
<polyline clip-path="url(#clip670)" style="stroke:#000000; stroke-linecap:round; stroke-linejoin:round; stroke-width:4; stroke-opacity:1; fill:none" points="237.419,557.786 256.317,557.786 "/>
<polyline clip-path="url(#clip670)" style="stroke:#000000; stroke-linecap:round; stroke-linejoin:round; stroke-width:4; stroke-opacity:1; fill:none" points="237.419,151.692 256.317,151.692 "/>
<path clip-path="url(#clip670)" d="M177.475 1761.86 Q173.864 1761.86 172.035 1765.43 Q170.23 1768.97 170.23 1776.1 Q170.23 1783.21 172.035 1786.77 Q173.864 1790.31 177.475 1790.31 Q181.109 1790.31 182.915 1786.77 Q184.743 1783.21 184.743 1776.1 Q184.743 1768.97 182.915 1765.43 Q181.109 1761.86 177.475 1761.86 M177.475 1758.16 Q183.285 1758.16 186.341 1762.77 Q189.419 1767.35 189.419 1776.1 Q189.419 1784.83 186.341 1789.43 Q183.285 1794.02 177.475 1794.02 Q171.665 1794.02 168.586 1789.43 Q165.531 1784.83 165.531 1776.1 Q165.531 1767.35 168.586 1762.77 Q171.665 1758.16 177.475 1758.16 Z" fill="#000000" fill-rule="nonzero" fill-opacity="1" /><path clip-path="url(#clip670)" d="M142.336 1383.32 L158.656 1383.32 L158.656 1387.25 L136.711 1387.25 L136.711 1383.32 Q139.373 1380.56 143.957 1375.93 Q148.563 1371.28 149.744 1369.94 Q151.989 1367.41 152.869 1365.68 Q153.771 1363.92 153.771 1362.23 Q153.771 1359.47 151.827 1357.74 Q149.906 1356 146.804 1356 Q144.605 1356 142.151 1356.77 Q139.721 1357.53 136.943 1359.08 L136.943 1354.36 Q139.767 1353.22 142.221 1352.65 Q144.674 1352.07 146.711 1352.07 Q152.082 1352.07 155.276 1354.75 Q158.47 1357.44 158.47 1361.93 Q158.47 1364.06 157.66 1365.98 Q156.873 1367.88 154.767 1370.47 Q154.188 1371.14 151.086 1374.36 Q147.984 1377.55 142.336 1383.32 Z" fill="#000000" fill-rule="nonzero" fill-opacity="1" /><path clip-path="url(#clip670)" d="M168.517 1352.69 L186.873 1352.69 L186.873 1356.63 L172.799 1356.63 L172.799 1365.1 Q173.818 1364.75 174.836 1364.59 Q175.855 1364.41 176.873 1364.41 Q182.66 1364.41 186.04 1367.58 Q189.419 1370.75 189.419 1376.16 Q189.419 1381.74 185.947 1384.85 Q182.475 1387.92 176.156 1387.92 Q173.98 1387.92 171.711 1387.55 Q169.466 1387.18 167.058 1386.44 L167.058 1381.74 Q169.142 1382.88 171.364 1383.43 Q173.586 1383.99 176.063 1383.99 Q180.068 1383.99 182.405 1381.88 Q184.743 1379.78 184.743 1376.16 Q184.743 1372.55 182.405 1370.45 Q180.068 1368.34 176.063 1368.34 Q174.188 1368.34 172.313 1368.76 Q170.461 1369.17 168.517 1370.05 L168.517 1352.69 Z" fill="#000000" fill-rule="nonzero" fill-opacity="1" /><path clip-path="url(#clip670)" d="M137.359 946.599 L155.716 946.599 L155.716 950.534 L141.642 950.534 L141.642 959.006 Q142.66 958.659 143.679 958.497 Q144.697 958.312 145.716 958.312 Q151.503 958.312 154.882 961.483 Q158.262 964.655 158.262 970.071 Q158.262 975.65 154.79 978.752 Q151.318 981.83 144.998 981.83 Q142.822 981.83 140.554 981.46 Q138.309 981.09 135.901 980.349 L135.901 975.65 Q137.984 976.784 140.207 977.34 Q142.429 977.895 144.906 977.895 Q148.91 977.895 151.248 975.789 Q153.586 973.682 153.586 970.071 Q153.586 966.46 151.248 964.354 Q148.91 962.247 144.906 962.247 Q143.031 962.247 141.156 962.664 Q139.304 963.081 137.359 963.96 L137.359 946.599 Z" fill="#000000" fill-rule="nonzero" fill-opacity="1" /><path clip-path="url(#clip670)" d="M177.475 949.678 Q173.864 949.678 172.035 953.243 Q170.23 956.784 170.23 963.914 Q170.23 971.02 172.035 974.585 Q173.864 978.127 177.475 978.127 Q181.109 978.127 182.915 974.585 Q184.743 971.02 184.743 963.914 Q184.743 956.784 182.915 953.243 Q181.109 949.678 177.475 949.678 M177.475 945.974 Q183.285 945.974 186.341 950.581 Q189.419 955.164 189.419 963.914 Q189.419 972.641 186.341 977.247 Q183.285 981.83 177.475 981.83 Q171.665 981.83 168.586 977.247 Q165.531 972.641 165.531 963.914 Q165.531 955.164 168.586 950.581 Q171.665 945.974 177.475 945.974 Z" fill="#000000" fill-rule="nonzero" fill-opacity="1" /><path clip-path="url(#clip670)" d="M137.128 540.506 L159.35 540.506 L159.35 542.496 L146.804 575.066 L141.92 575.066 L153.725 544.441 L137.128 544.441 L137.128 540.506 Z" fill="#000000" fill-rule="nonzero" fill-opacity="1" /><path clip-path="url(#clip670)" d="M168.517 540.506 L186.873 540.506 L186.873 544.441 L172.799 544.441 L172.799 552.913 Q173.818 552.566 174.836 552.404 Q175.855 552.219 176.873 552.219 Q182.66 552.219 186.04 555.39 Q189.419 558.561 189.419 563.978 Q189.419 569.556 185.947 572.658 Q182.475 575.737 176.156 575.737 Q173.98 575.737 171.711 575.367 Q169.466 574.996 167.058 574.256 L167.058 569.556 Q169.142 570.691 171.364 571.246 Q173.586 571.802 176.063 571.802 Q180.068 571.802 182.405 569.695 Q184.743 567.589 184.743 563.978 Q184.743 560.367 182.405 558.26 Q180.068 556.154 176.063 556.154 Q174.188 556.154 172.313 556.57 Q170.461 556.987 168.517 557.867 L168.517 540.506 Z" fill="#000000" fill-rule="nonzero" fill-opacity="1" /><path clip-path="url(#clip670)" d="M107.961 165.037 L115.6 165.037 L115.6 138.672 L107.29 140.338 L107.29 136.079 L115.554 134.412 L120.23 134.412 L120.23 165.037 L127.869 165.037 L127.869 168.972 L107.961 168.972 L107.961 165.037 Z" fill="#000000" fill-rule="nonzero" fill-opacity="1" /><path clip-path="url(#clip670)" d="M147.313 137.491 Q143.702 137.491 141.873 141.056 Q140.068 144.597 140.068 151.727 Q140.068 158.833 141.873 162.398 Q143.702 165.94 147.313 165.94 Q150.947 165.94 152.753 162.398 Q154.582 158.833 154.582 151.727 Q154.582 144.597 152.753 141.056 Q150.947 137.491 147.313 137.491 M147.313 133.787 Q153.123 133.787 156.179 138.394 Q159.257 142.977 159.257 151.727 Q159.257 160.454 156.179 165.06 Q153.123 169.644 147.313 169.644 Q141.503 169.644 138.424 165.06 Q135.369 160.454 135.369 151.727 Q135.369 142.977 138.424 138.394 Q141.503 133.787 147.313 133.787 Z" fill="#000000" fill-rule="nonzero" fill-opacity="1" /><path clip-path="url(#clip670)" d="M177.475 137.491 Q173.864 137.491 172.035 141.056 Q170.23 144.597 170.23 151.727 Q170.23 158.833 172.035 162.398 Q173.864 165.94 177.475 165.94 Q181.109 165.94 182.915 162.398 Q184.743 158.833 184.743 151.727 Q184.743 144.597 182.915 141.056 Q181.109 137.491 177.475 137.491 M177.475 133.787 Q183.285 133.787 186.341 138.394 Q189.419 142.977 189.419 151.727 Q189.419 160.454 186.341 165.06 Q183.285 169.644 177.475 169.644 Q171.665 169.644 168.586 165.06 Q165.531 160.454 165.531 151.727 Q165.531 142.977 168.586 138.394 Q171.665 133.787 177.475 133.787 Z" fill="#000000" fill-rule="nonzero" fill-opacity="1" /><path clip-path="url(#clip670)" d="M39.6233 1291.67 L39.6233 1270.66 L2.92501 1270.66 L2.92501 1286.1 L9.67266 1286.1 Q25.5551 1286.1 36.0903 1289.67 Q38.2547 1290.4 39.6233 1291.67 M39.6233 1301.06 Q37.6181 1296.8 33.7987 1295.59 Q23.9955 1292.5 6.4898 1292.5 L-2.48584 1292.5 L-2.48584 1264.23 L39.6233 1264.23 L39.6233 1258.82 L55.2511 1258.82 L55.2511 1264.23 L45.0342 1264.23 L45.0342 1297.91 L55.2511 1297.91 L55.2511 1303.32 L39.6233 1303.32 L39.6233 1301.06 Z" fill="#000000" fill-rule="nonzero" fill-opacity="1" /><path clip-path="url(#clip670)" d="M13.4921 1235.65 Q13.4921 1240.36 17.1842 1243.1 Q20.8445 1245.84 27.242 1245.84 Q33.6395 1245.84 37.3317 1243.13 Q40.9919 1240.4 40.9919 1235.65 Q40.9919 1230.97 37.2998 1228.24 Q33.6077 1225.5 27.242 1225.5 Q20.9081 1225.5 17.216 1228.24 Q13.4921 1230.97 13.4921 1235.65 M8.52683 1235.65 Q8.52683 1228.01 13.4921 1223.65 Q18.4573 1219.29 27.242 1219.29 Q35.9949 1219.29 40.9919 1223.65 Q45.9572 1228.01 45.9572 1235.65 Q45.9572 1243.32 40.9919 1247.68 Q35.9949 1252.01 27.242 1252.01 Q18.4573 1252.01 13.4921 1247.68 Q8.52683 1243.32 8.52683 1235.65 Z" fill="#000000" fill-rule="nonzero" fill-opacity="1" /><path clip-path="url(#clip670)" d="M45.0342 1213.31 L40.1644 1213.31 Q39.2732 1207.52 35.2628 1205.73 Q29.6291 1203.57 15.2108 1203.57 L9.3862 1203.57 L9.3862 1179.48 L45.0342 1179.48 L45.0342 1185.33 L14.065 1185.33 L14.065 1197.71 L17.598 1197.71 Q31.3479 1197.71 37.5226 1200.51 Q44.1111 1203.51 45.0342 1213.31 Z" fill="#000000" fill-rule="nonzero" fill-opacity="1" /><path clip-path="url(#clip670)" d="M19.6668 1162.03 Q22.3086 1162.03 23.8045 1160 Q25.3005 1157.96 25.3005 1154.17 L25.3005 1146.28 L14.065 1146.28 L14.065 1154.17 Q14.065 1157.96 15.5291 1160 Q16.9932 1162.03 19.6668 1162.03 M45.0342 1170.37 L29.4063 1159.49 Q28.5788 1163.18 26.4145 1165.63 Q24.2183 1168.08 19.6668 1168.08 Q14.5106 1168.08 11.9643 1164.68 Q9.3862 1161.24 9.3862 1154.33 L9.3862 1140.39 L45.0342 1140.39 L45.0342 1146.28 L29.9793 1146.28 L29.9793 1153.57 L45.0342 1164.07 L45.0342 1170.37 Z" fill="#000000" fill-rule="nonzero" fill-opacity="1" /><path clip-path="url(#clip670)" d="M9.3862 1077.43 L45.0342 1077.43 L45.0342 1083.32 L14.065 1083.32 L14.065 1102.32 L45.0342 1102.32 L45.0342 1108.21 L9.3862 1108.21 L9.3862 1077.43 Z" fill="#000000" fill-rule="nonzero" fill-opacity="1" /><path clip-path="url(#clip670)" d="M13.4921 1051.56 Q13.4921 1056.27 17.1842 1059 Q20.8445 1061.74 27.242 1061.74 Q33.6395 1061.74 37.3317 1059.04 Q40.9919 1056.3 40.9919 1051.56 Q40.9919 1046.88 37.2998 1044.14 Q33.6077 1041.4 27.242 1041.4 Q20.9081 1041.4 17.216 1044.14 Q13.4921 1046.88 13.4921 1051.56 M8.52683 1051.56 Q8.52683 1043.92 13.4921 1039.56 Q18.4573 1035.2 27.242 1035.2 Q35.9949 1035.2 40.9919 1039.56 Q45.9572 1043.92 45.9572 1051.56 Q45.9572 1059.23 40.9919 1063.59 Q35.9949 1067.92 27.242 1067.92 Q18.4573 1067.92 13.4921 1063.59 Q8.52683 1059.23 8.52683 1051.56 Z" fill="#000000" fill-rule="nonzero" fill-opacity="1" /><path clip-path="url(#clip670)" d="M9.3862 994.933 L45.0342 994.933 L45.0342 1000.82 L14.065 1000.82 L14.065 1019.82 L45.0342 1019.82 L45.0342 1025.71 L9.3862 1025.71 L9.3862 994.933 Z" fill="#000000" fill-rule="nonzero" fill-opacity="1" /><path clip-path="url(#clip670)" d="M48.3443 968.038 Q54.71 970.521 56.6516 972.876 Q58.5931 975.232 58.5931 979.178 L58.5931 983.857 L53.6915 983.857 L53.6915 980.42 Q53.6915 978.001 52.5457 976.664 Q51.3999 975.327 47.1348 973.704 L44.4612 972.653 L9.3862 987.072 L9.3862 980.865 L37.268 969.725 L9.3862 958.585 L9.3862 952.379 L48.3443 968.038 Z" fill="#000000" fill-rule="nonzero" fill-opacity="1" /><path clip-path="url(#clip670)" d="M45.0342 948.018 L40.1644 948.018 Q39.2732 942.225 35.2628 940.443 Q29.6291 938.279 15.2108 938.279 L9.3862 938.279 L9.3862 914.184 L45.0342 914.184 L45.0342 920.041 L14.065 920.041 L14.065 932.422 L17.598 932.422 Q31.3479 932.422 37.5226 935.223 Q44.1111 938.215 45.0342 948.018 Z" fill="#000000" fill-rule="nonzero" fill-opacity="1" /><path clip-path="url(#clip670)" d="M19.6668 896.742 Q22.3086 896.742 23.8045 894.705 Q25.3005 892.668 25.3005 888.881 L25.3005 880.987 L14.065 880.987 L14.065 888.881 Q14.065 892.668 15.5291 894.705 Q16.9932 896.742 19.6668 896.742 M45.0342 905.081 L29.4063 894.196 Q28.5788 897.888 26.4145 900.339 Q24.2183 902.79 19.6668 902.79 Q14.5106 902.79 11.9643 899.384 Q9.3862 895.947 9.3862 889.04 L9.3862 875.099 L45.0342 875.099 L45.0342 880.987 L29.9793 880.987 L29.9793 888.276 L45.0342 898.779 L45.0342 905.081 Z" fill="#000000" fill-rule="nonzero" fill-opacity="1" /><path clip-path="url(#clip670)" d="M45.0342 832.863 L45.0342 863.641 L9.3862 863.641 L9.3862 857.752 L40.3554 857.752 L40.3554 838.751 L9.3862 838.751 L9.3862 832.863 L40.3554 832.863 L40.3554 828.184 L54.0416 828.184 L54.0416 832.863 L45.0342 832.863 Z" fill="#000000" fill-rule="nonzero" fill-opacity="1" /><path clip-path="url(#clip670)" d="M9.3862 788.748 L45.0342 788.748 L45.0342 794.573 L16.4203 794.573 L45.0342 811.76 L45.0342 819.272 L9.3862 819.272 L9.3862 813.447 L37.9364 813.447 L9.3862 796.292 L9.3862 788.748 Z" fill="#000000" fill-rule="nonzero" fill-opacity="1" /><path clip-path="url(#clip670)" d="M9.3862 746.384 L45.0342 746.384 L45.0342 752.209 L16.4203 752.209 L45.0342 769.396 L45.0342 776.908 L9.3862 776.908 L9.3862 771.083 L37.9364 771.083 L9.3862 753.928 L9.3862 746.384 Z" fill="#000000" fill-rule="nonzero" fill-opacity="1" /><path clip-path="url(#clip670)" d="M36.9497 732.825 L36.9497 726.11 L42.4242 726.11 L52.6093 731.33 L52.6093 735.435 L42.4242 732.825 L36.9497 732.825 Z" fill="#000000" fill-rule="nonzero" fill-opacity="1" /><path clip-path="url(#clip670)" d="M24.1228 651.631 Q24.1228 654.4 26.4781 655.991 Q28.8334 657.551 33.0348 657.551 Q37.1725 657.551 39.5596 655.991 Q41.915 654.4 41.915 651.631 Q41.915 648.925 39.5596 647.366 Q37.1725 645.774 33.0348 645.774 Q28.8653 645.774 26.51 647.366 Q24.1228 648.925 24.1228 651.631 M20.0806 651.631 Q20.0806 646.602 23.5817 643.642 Q27.0829 640.682 33.0348 640.682 Q38.9867 640.682 42.4879 643.674 Q45.9572 646.634 45.9572 651.631 Q45.9572 656.723 42.4879 659.684 Q38.9867 662.644 33.0348 662.644 Q27.051 662.644 23.5817 659.684 Q20.0806 656.692 20.0806 651.631 M0.697011 684.478 Q0.697011 687.215 3.08415 688.807 Q5.43946 690.366 9.57717 690.366 Q13.7785 690.366 16.1338 688.807 Q18.4892 687.247 18.4892 684.478 Q18.4892 681.709 16.1338 680.149 Q13.7785 678.558 9.57717 678.558 Q5.47129 678.558 3.08415 680.149 Q0.697011 681.741 0.697011 684.478 M-3.34521 655.737 L-3.34521 650.644 L45.9572 680.372 L45.9572 685.465 L-3.34521 655.737 M-3.34521 684.478 Q-3.34521 679.449 0.155926 676.457 Q3.62524 673.465 9.57717 673.465 Q15.5928 673.465 19.0621 676.457 Q22.5314 679.417 22.5314 684.478 Q22.5314 689.539 19.0621 692.499 Q15.5609 695.427 9.57717 695.427 Q3.65706 695.427 0.155926 692.467 Q-3.34521 689.507 -3.34521 684.478 Z" fill="#000000" fill-rule="nonzero" fill-opacity="1" /><path clip-path="url(#clip670)" d="M948.425 65.6895 L975.161 65.6895 L975.161 18.9825 L955.514 18.9825 L955.514 27.5705 Q955.514 47.7845 950.977 61.193 Q950.045 63.9476 948.425 65.6895 M936.475 65.6895 Q941.903 63.1374 943.442 58.2763 Q947.372 45.7995 947.372 23.5195 L947.372 12.096 L983.344 12.096 L983.344 65.6895 L990.23 65.6895 L990.23 85.5794 L983.344 85.5794 L983.344 72.576 L940.485 72.576 L940.485 85.5794 L933.599 85.5794 L933.599 65.6895 L936.475 65.6895 Z" fill="#000000" fill-rule="nonzero" fill-opacity="1" /><path clip-path="url(#clip670)" d="M1040.7 27.2059 L1040.7 72.576 L1033.29 72.576 L1033.29 36.1584 L1011.42 72.576 L1001.86 72.576 L1001.86 27.2059 L1009.27 27.2059 L1009.27 63.5425 L1031.1 27.2059 L1040.7 27.2059 Z" fill="#000000" fill-rule="nonzero" fill-opacity="1" /><path clip-path="url(#clip670)" d="M1055.77 27.2059 L1063.27 27.2059 L1063.27 45.7185 L1087.45 45.7185 L1087.45 27.2059 L1094.95 27.2059 L1094.95 72.576 L1087.45 72.576 L1087.45 51.6733 L1063.27 51.6733 L1063.27 72.576 L1055.77 72.576 L1055.77 27.2059 Z" fill="#000000" fill-rule="nonzero" fill-opacity="1" /><path clip-path="url(#clip670)" d="M1130.92 49.7694 Q1121.88 49.7694 1118.4 51.8354 Q1114.92 53.9013 1114.92 58.8839 Q1114.92 62.8538 1117.51 65.2034 Q1120.14 67.5124 1124.64 67.5124 Q1130.84 67.5124 1134.56 63.1374 Q1138.33 58.7219 1138.33 51.4303 L1138.33 49.7694 L1130.92 49.7694 M1145.79 46.6907 L1145.79 72.576 L1138.33 72.576 L1138.33 65.6895 Q1135.78 69.8214 1131.97 71.8063 Q1128.16 73.7508 1122.65 73.7508 Q1115.69 73.7508 1111.55 69.8619 Q1107.46 65.9325 1107.46 59.3701 Q1107.46 51.7138 1112.57 47.825 Q1117.71 43.9361 1127.88 43.9361 L1138.33 43.9361 L1138.33 43.2069 Q1138.33 38.0623 1134.93 35.2672 Q1131.57 32.4315 1125.45 32.4315 Q1121.56 32.4315 1117.87 33.3632 Q1114.19 34.295 1110.79 36.1584 L1110.79 29.2718 Q1114.88 27.692 1118.72 26.9223 Q1122.57 26.1121 1126.22 26.1121 Q1136.06 26.1121 1140.92 31.2163 Q1145.79 36.3204 1145.79 46.6907 Z" fill="#000000" fill-rule="nonzero" fill-opacity="1" /><path clip-path="url(#clip670)" d="M1160.85 27.2059 L1171.75 27.2059 L1184.63 57.5877 L1197.56 27.2059 L1208.37 27.2059 L1208.37 72.576 L1200.88 72.576 L1200.88 34.3355 L1188.36 63.8666 L1180.91 63.8666 L1168.35 34.3355 L1168.35 72.576 L1160.85 72.576 L1160.85 27.2059 Z" fill="#000000" fill-rule="nonzero" fill-opacity="1" /><path clip-path="url(#clip670)" d="M1262.29 27.2059 L1262.29 72.576 L1254.88 72.576 L1254.88 36.1584 L1233 72.576 L1223.44 72.576 L1223.44 27.2059 L1230.85 27.2059 L1230.85 63.5425 L1252.69 27.2059 L1262.29 27.2059 Z" fill="#000000" fill-rule="nonzero" fill-opacity="1" /><path clip-path="url(#clip670)" d="M1277.36 27.2059 L1284.77 27.2059 L1284.77 48.5136 L1305.8 27.2059 L1314.95 27.2059 L1297.61 44.7463 L1317.18 72.576 L1308.83 72.576 L1292.75 49.6884 L1284.77 57.7902 L1284.77 72.576 L1277.36 72.576 L1277.36 27.2059 Z" fill="#000000" fill-rule="nonzero" fill-opacity="1" /><path clip-path="url(#clip670)" d="M1348.37 49.7694 Q1339.34 49.7694 1335.85 51.8354 Q1332.37 53.9013 1332.37 58.8839 Q1332.37 62.8538 1334.96 65.2034 Q1337.6 67.5124 1342.09 67.5124 Q1348.29 67.5124 1352.02 63.1374 Q1355.78 58.7219 1355.78 51.4303 L1355.78 49.7694 L1348.37 49.7694 M1363.24 46.6907 L1363.24 72.576 L1355.78 72.576 L1355.78 65.6895 Q1353.23 69.8214 1349.42 71.8063 Q1345.62 73.7508 1340.11 73.7508 Q1333.14 73.7508 1329.01 69.8619 Q1324.92 65.9325 1324.92 59.3701 Q1324.92 51.7138 1330.02 47.825 Q1335.16 43.9361 1345.33 43.9361 L1355.78 43.9361 L1355.78 43.2069 Q1355.78 38.0623 1352.38 35.2672 Q1349.02 32.4315 1342.9 32.4315 Q1339.01 32.4315 1335.33 33.3632 Q1331.64 34.295 1328.24 36.1584 L1328.24 29.2718 Q1332.33 27.692 1336.18 26.9223 Q1340.03 26.1121 1343.67 26.1121 Q1353.52 26.1121 1358.38 31.2163 Q1363.24 36.3204 1363.24 46.6907 Z" fill="#000000" fill-rule="nonzero" fill-opacity="1" /><path clip-path="url(#clip670)" d="M1401.72 63.9476 Q1408.12 67.4314 1414.48 67.4314 Q1420.44 67.4314 1424.69 63.9881 Q1428.94 60.5043 1429.71 51.6733 L1406.7 51.6733 L1406.7 45.7185 L1429.47 45.7185 Q1428.98 41.4651 1425.74 36.9686 Q1422.54 32.4315 1414.48 32.4315 Q1408.24 32.4315 1401.72 35.9153 L1401.72 28.9478 Q1408.08 26.1121 1414.81 26.1121 Q1425.42 26.1121 1431.5 32.5531 Q1437.61 38.9535 1437.61 49.9314 Q1437.61 60.8689 1431.66 67.3098 Q1425.74 73.7508 1415.33 73.7508 Q1407.68 73.7508 1401.72 70.8341 L1401.72 63.9476 Z" fill="#000000" fill-rule="nonzero" fill-opacity="1" /><path clip-path="url(#clip670)" d="M1489.38 27.2059 L1489.38 72.576 L1481.89 72.576 L1481.89 33.1607 L1457.7 33.1607 L1457.7 72.576 L1450.21 72.576 L1450.21 27.2059 L1489.38 27.2059 Z" fill="#000000" fill-rule="nonzero" fill-opacity="1" /><path clip-path="url(#clip670)" d="M1543.3 27.2059 L1543.3 72.576 L1535.89 72.576 L1535.89 36.1584 L1514.01 72.576 L1504.45 72.576 L1504.45 27.2059 L1511.87 27.2059 L1511.87 63.5425 L1533.7 27.2059 L1543.3 27.2059 Z" fill="#000000" fill-rule="nonzero" fill-opacity="1" /><path clip-path="url(#clip670)" d="M1568.78 66.6212 L1590.41 66.6212 L1590.41 33.1607 L1574.74 33.1607 L1574.74 38.832 Q1574.74 55.5217 1569.96 64.4337 L1568.78 66.6212 M1557.96 66.6212 Q1561.65 65.0008 1563.27 61.5575 Q1567.24 53.0101 1567.24 35.7938 L1567.24 27.2059 L1597.91 27.2059 L1597.91 66.6212 L1603.86 66.6212 L1603.86 84.0401 L1597.91 84.0401 L1597.91 72.576 L1561.12 72.576 L1561.12 84.0401 L1555.17 84.0401 L1555.17 66.6212 L1557.96 66.6212 Z" fill="#000000" fill-rule="nonzero" fill-opacity="1" /><path clip-path="url(#clip670)" d="M1654.82 48.0275 L1654.82 51.6733 L1620.55 51.6733 Q1621.04 59.3701 1625.17 63.421 Q1629.34 67.4314 1636.75 67.4314 Q1641.05 67.4314 1645.06 66.3781 Q1649.11 65.3249 1653.08 63.2184 L1653.08 70.267 Q1649.07 71.9684 1644.86 72.8596 Q1640.64 73.7508 1636.31 73.7508 Q1625.45 73.7508 1619.09 67.4314 Q1612.77 61.1119 1612.77 50.3365 Q1612.77 39.1965 1618.77 32.6746 Q1624.8 26.1121 1635.01 26.1121 Q1644.17 26.1121 1649.47 32.0264 Q1654.82 37.9003 1654.82 48.0275 M1647.37 45.84 Q1647.29 39.7232 1643.92 36.0774 Q1640.6 32.4315 1635.09 32.4315 Q1628.86 32.4315 1625.09 35.9558 Q1621.36 39.4801 1620.79 45.8805 L1647.37 45.84 Z" fill="#000000" fill-rule="nonzero" fill-opacity="1" /><path clip-path="url(#clip670)" d="M1666.77 27.2059 L1677.67 27.2059 L1690.55 57.5877 L1703.47 27.2059 L1714.29 27.2059 L1714.29 72.576 L1706.79 72.576 L1706.79 34.3355 L1694.28 63.8666 L1686.82 63.8666 L1674.27 34.3355 L1674.27 72.576 L1666.77 72.576 L1666.77 27.2059 Z" fill="#000000" fill-rule="nonzero" fill-opacity="1" /><path clip-path="url(#clip670)" d="M1768.21 27.2059 L1768.21 72.576 L1760.79 72.576 L1760.79 36.1584 L1738.92 72.576 L1729.36 72.576 L1729.36 27.2059 L1736.77 27.2059 L1736.77 63.5425 L1758.61 27.2059 L1768.21 27.2059 Z" fill="#000000" fill-rule="nonzero" fill-opacity="1" /><path clip-path="url(#clip670)" d="M1822.12 27.2059 L1822.12 72.576 L1814.71 72.576 L1814.71 36.1584 L1792.84 72.576 L1783.28 72.576 L1783.28 27.2059 L1790.69 27.2059 L1790.69 63.5425 L1812.52 27.2059 L1822.12 27.2059 Z" fill="#000000" fill-rule="nonzero" fill-opacity="1" /><path clip-path="url(#clip670)" d="M1881.75 9.62495 Q1876.33 18.942 1873.69 28.0566 Q1871.06 37.1711 1871.06 46.5287 Q1871.06 55.8863 1873.69 65.0818 Q1876.37 74.2369 1881.75 83.5134 L1875.27 83.5134 Q1869.2 73.9938 1866.16 64.7983 Q1863.16 55.6027 1863.16 46.5287 Q1863.16 37.4952 1866.16 28.3401 Q1869.15 19.1851 1875.27 9.62495 L1881.75 9.62495 Z" fill="#000000" fill-rule="nonzero" fill-opacity="1" /><path clip-path="url(#clip670)" d="M1903.39 51.6733 L1903.39 66.6212 L1914 66.6212 Q1919.1 66.6212 1921.78 64.7172 Q1924.45 62.7728 1924.45 59.127 Q1924.45 55.4812 1921.78 53.5773 Q1919.1 51.6733 1914 51.6733 L1903.39 51.6733 M1903.39 33.1607 L1903.39 45.7185 L1913.19 45.7185 Q1917.4 45.7185 1920.07 44.0576 Q1922.75 42.3563 1922.75 39.3586 Q1922.75 36.3609 1920.07 34.7811 Q1917.4 33.1607 1913.19 33.1607 L1903.39 33.1607 M1895.93 27.2059 L1913.67 27.2059 Q1921.65 27.2059 1925.95 30.1225 Q1930.24 33.0392 1930.24 38.4269 Q1930.24 42.5993 1928.06 45.0704 Q1925.87 47.5009 1921.57 48.1085 Q1926.72 49.0808 1929.55 52.1594 Q1932.39 55.2381 1932.39 59.8562 Q1932.39 65.9325 1927.69 69.2543 Q1923.03 72.576 1914.36 72.576 L1895.93 72.576 L1895.93 27.2059 Z" fill="#000000" fill-rule="nonzero" fill-opacity="1" /><path clip-path="url(#clip670)" d="M2010.37 27.2059 L2010.37 72.576 L2002.88 72.576 L2002.88 33.1607 L1978.69 33.1607 L1978.69 72.576 L1971.2 72.576 L1971.2 27.2059 L2010.37 27.2059 Z" fill="#000000" fill-rule="nonzero" fill-opacity="1" /><path clip-path="url(#clip670)" d="M2032.93 65.7705 L2032.93 89.8329 L2025.44 89.8329 L2025.44 27.2059 L2032.93 27.2059 L2032.93 34.0924 Q2035.28 30.0415 2038.85 28.0971 Q2042.45 26.1121 2047.44 26.1121 Q2055.7 26.1121 2060.84 32.6746 Q2066.03 39.2371 2066.03 49.9314 Q2066.03 60.6258 2060.84 67.1883 Q2055.7 73.7508 2047.44 73.7508 Q2042.45 73.7508 2038.85 71.8063 Q2035.28 69.8214 2032.93 65.7705 M2058.29 49.9314 Q2058.29 41.7081 2054.89 37.0496 Q2051.53 32.3505 2045.61 32.3505 Q2039.7 32.3505 2036.3 37.0496 Q2032.93 41.7081 2032.93 49.9314 Q2032.93 58.1548 2036.3 62.8538 Q2039.7 67.5124 2045.61 67.5124 Q2051.53 67.5124 2054.89 62.8538 Q2058.29 58.1548 2058.29 49.9314 Z" fill="#000000" fill-rule="nonzero" fill-opacity="1" /><path clip-path="url(#clip670)" d="M2095.97 32.4315 Q2089.97 32.4315 2086.49 37.1306 Q2083 41.7891 2083 49.9314 Q2083 58.0738 2086.45 62.7728 Q2089.93 67.4314 2095.97 67.4314 Q2101.92 67.4314 2105.4 62.7323 Q2108.89 58.0333 2108.89 49.9314 Q2108.89 41.8701 2105.4 37.1711 Q2101.92 32.4315 2095.97 32.4315 M2095.97 26.1121 Q2105.69 26.1121 2111.24 32.4315 Q2116.79 38.7509 2116.79 49.9314 Q2116.79 61.0714 2111.24 67.4314 Q2105.69 73.7508 2095.97 73.7508 Q2086.2 73.7508 2080.65 67.4314 Q2075.14 61.0714 2075.14 49.9314 Q2075.14 38.7509 2080.65 32.4315 Q2086.2 26.1121 2095.97 26.1121 Z" fill="#000000" fill-rule="nonzero" fill-opacity="1" /><path clip-path="url(#clip670)" d="M2168.03 72.576 L2128.86 72.576 L2128.86 27.2059 L2136.35 27.2059 L2136.35 66.6212 L2160.54 66.6212 L2160.54 27.2059 L2168.03 27.2059 L2168.03 66.6212 L2173.99 66.6212 L2173.99 84.0401 L2168.03 84.0401 L2168.03 72.576 Z" fill="#000000" fill-rule="nonzero" fill-opacity="1" /><path clip-path="url(#clip670)" d="M2224.42 48.0275 L2224.42 51.6733 L2190.15 51.6733 Q2190.63 59.3701 2194.77 63.421 Q2198.94 67.4314 2206.35 67.4314 Q2210.65 67.4314 2214.66 66.3781 Q2218.71 65.3249 2222.68 63.2184 L2222.68 70.267 Q2218.67 71.9684 2214.45 72.8596 Q2210.24 73.7508 2205.91 73.7508 Q2195.05 73.7508 2188.69 67.4314 Q2182.37 61.1119 2182.37 50.3365 Q2182.37 39.1965 2188.37 32.6746 Q2194.4 26.1121 2204.61 26.1121 Q2213.77 26.1121 2219.07 32.0264 Q2224.42 37.9003 2224.42 48.0275 M2216.97 45.84 Q2216.88 39.7232 2213.52 36.0774 Q2210.2 32.4315 2204.69 32.4315 Q2198.45 32.4315 2194.69 35.9558 Q2190.96 39.4801 2190.39 45.8805 L2216.97 45.84 Z" fill="#000000" fill-rule="nonzero" fill-opacity="1" /><path clip-path="url(#clip670)" d="M2236.37 27.2059 L2243.86 27.2059 L2243.86 45.7185 L2268.05 45.7185 L2268.05 27.2059 L2275.54 27.2059 L2275.54 72.576 L2268.05 72.576 L2268.05 51.6733 L2243.86 51.6733 L2243.86 72.576 L2236.37 72.576 L2236.37 27.2059 Z" fill="#000000" fill-rule="nonzero" fill-opacity="1" /><path clip-path="url(#clip670)" d="M2285.51 27.2059 L2328.97 27.2059 L2328.97 33.1607 L2310.91 33.1607 L2310.91 72.576 L2303.57 72.576 L2303.57 33.1607 L2285.51 33.1607 L2285.51 27.2059 Z" fill="#000000" fill-rule="nonzero" fill-opacity="1" /><path clip-path="url(#clip670)" d="M2359.84 49.7694 Q2350.81 49.7694 2347.32 51.8354 Q2343.84 53.9013 2343.84 58.8839 Q2343.84 62.8538 2346.43 65.2034 Q2349.07 67.5124 2353.56 67.5124 Q2359.76 67.5124 2363.49 63.1374 Q2367.25 58.7219 2367.25 51.4303 L2367.25 49.7694 L2359.84 49.7694 M2374.71 46.6907 L2374.71 72.576 L2367.25 72.576 L2367.25 65.6895 Q2364.7 69.8214 2360.89 71.8063 Q2357.09 73.7508 2351.58 73.7508 Q2344.61 73.7508 2340.48 69.8619 Q2336.39 65.9325 2336.39 59.3701 Q2336.39 51.7138 2341.49 47.825 Q2346.64 43.9361 2356.8 43.9361 L2367.25 43.9361 L2367.25 43.2069 Q2367.25 38.0623 2363.85 35.2672 Q2360.49 32.4315 2354.37 32.4315 Q2350.48 32.4315 2346.8 33.3632 Q2343.11 34.295 2339.71 36.1584 L2339.71 29.2718 Q2343.8 27.692 2347.65 26.9223 Q2351.5 26.1121 2355.14 26.1121 Q2364.99 26.1121 2369.85 31.2163 Q2374.71 36.3204 2374.71 46.6907 Z" fill="#000000" fill-rule="nonzero" fill-opacity="1" /><path clip-path="url(#clip670)" d="M2427.77 27.2059 L2411.37 49.2833 L2428.63 72.576 L2419.83 72.576 L2406.63 54.752 L2393.42 72.576 L2384.63 72.576 L2402.25 48.8377 L2386.13 27.2059 L2394.92 27.2059 L2406.95 43.369 L2418.98 27.2059 L2427.77 27.2059 Z" fill="#000000" fill-rule="nonzero" fill-opacity="1" /><path clip-path="url(#clip670)" d="M2437.98 9.62495 L2444.46 9.62495 Q2450.54 19.1851 2453.54 28.3401 Q2456.58 37.4952 2456.58 46.5287 Q2456.58 55.6027 2453.54 64.7983 Q2450.54 73.9938 2444.46 83.5134 L2437.98 83.5134 Q2443.37 74.2369 2446 65.0818 Q2448.68 55.8863 2448.68 46.5287 Q2448.68 37.1711 2446 28.0566 Q2443.37 18.942 2437.98 9.62495 Z" fill="#000000" fill-rule="nonzero" fill-opacity="1" /><polyline clip-path="url(#clip671)" style="stroke:#009af9; stroke-linecap:round; stroke-linejoin:round; stroke-width:8; stroke-opacity:1; fill:none" points="319.929,167.936 326.805,168.75 356.585,172.508 415.633,181.205 499.402,196.949 607.418,224.804 744.861,276.654 915.713,374.767 1123.81,550.797 1370.51,809.399 1632.03,1058.07 1930.48,1245.07 2274.68,1356.15 2609.48,1406.39 3070.25,1435.21 "/>
<polyline clip-path="url(#clip671)" style="stroke:#e26f46; stroke-linecap:round; stroke-linejoin:round; stroke-width:8; stroke-opacity:1; fill:none" points="319.929,1759.82 326.805,1759.42 356.585,1757.56 415.633,1753.28 499.402,1745.6 607.418,1732.2 744.861,1707.96 915.713,1664.81 1123.81,1597.8 1370.51,1531.74 1632.03,1524.6 1930.48,1582.65 2274.68,1662.18 2609.48,1715.43 3070.25,1752.56 "/>
<polyline clip-path="url(#clip671)" style="stroke:#3da44d; stroke-linecap:round; stroke-linejoin:round; stroke-width:8; stroke-opacity:1; fill:none" points="319.929,1776.07 326.805,1775.65 356.585,1773.75 415.633,1769.34 499.402,1761.28 607.418,1746.82 744.861,1719.21 915.713,1664.25 1123.81,1555.22 1370.51,1362.69 1632.03,1121.15 1930.48,876.104 2274.68,685.492 2609.48,582.008 3070.25,516.063 "/>
<polyline clip-path="url(#clip671)" style="stroke:#800080; stroke-linecap:round; stroke-linejoin:round; stroke-width:6; stroke-opacity:1; fill:none" stroke-dasharray="24, 15" points="-2677.92,963.879 6068.09,963.879 "/>
<path clip-path="url(#clip670)" d="M1912.24 1236.18 L3055.58 1236.18 L3055.58 717.782 L1912.24 717.782  Z" fill="#ffffff" fill-rule="evenodd" fill-opacity="1"/>
<polyline clip-path="url(#clip670)" style="stroke:#000000; stroke-linecap:round; stroke-linejoin:round; stroke-width:4; stroke-opacity:1; fill:none" points="1912.24,1236.18 3055.58,1236.18 3055.58,717.782 1912.24,717.782 1912.24,1236.18 "/>
<polyline clip-path="url(#clip670)" style="stroke:#009af9; stroke-linecap:round; stroke-linejoin:round; stroke-width:8; stroke-opacity:1; fill:none" points="1944.64,821.462 2138.99,821.462 "/>
<path clip-path="url(#clip670)" d="M2199.84 800.006 L2197.24 810.5 Q2197.1 811.132 2196.99 811.296 Q2196.87 811.46 2196.54 811.46 Q2196.28 811.46 2196.12 811.343 Q2195.98 811.226 2195.98 811.109 L2195.95 810.992 Q2195.95 810.921 2196 810.57 Q2196.05 810.195 2196.1 809.586 Q2196.14 808.977 2196.14 808.298 Q2196.14 804.457 2194.27 802.677 Q2192.42 800.873 2189.23 800.873 Q2187.03 800.873 2185.06 802.044 Q2183.1 803.215 2181.97 805.066 Q2180.85 806.893 2180.85 808.813 Q2180.85 810.57 2181.74 811.694 Q2182.63 812.819 2183.77 813.193 L2186.98 814.06 Q2190.36 814.927 2191.32 815.301 Q2192.28 815.653 2193.07 816.449 Q2195.44 818.651 2195.44 822.07 Q2195.44 825.022 2193.78 827.879 Q2192.11 830.713 2189.26 832.564 Q2186.4 834.391 2183.24 834.391 Q2177.69 834.391 2175.13 830.947 L2172.79 833.664 Q2172.34 834.18 2172.2 834.273 Q2172.09 834.391 2171.92 834.391 Q2171.71 834.391 2171.55 834.25 Q2171.38 834.133 2171.38 833.922 Q2171.38 833.758 2172.77 828.254 Q2174.15 822.75 2174.27 822.633 Q2174.45 822.445 2174.76 822.445 Q2175.32 822.445 2175.32 822.984 Q2175.27 823.124 2175.23 823.312 Q2174.94 824.998 2174.94 825.912 Q2174.94 827.621 2175.53 828.933 Q2176.12 830.221 2176.98 830.971 Q2177.87 831.697 2179.07 832.165 Q2180.26 832.61 2181.27 832.774 Q2182.28 832.915 2183.33 832.915 Q2185.6 832.915 2187.62 831.603 Q2189.65 830.292 2190.8 828.254 Q2191.97 826.216 2191.97 824.085 Q2191.97 822.96 2191.67 822.094 Q2191.36 821.204 2190.94 820.712 Q2190.54 820.22 2189.86 819.845 Q2189.19 819.47 2188.72 819.33 Q2188.27 819.166 2187.57 819.002 L2182.44 817.644 Q2180.38 817.035 2178.9 815.278 Q2177.45 813.521 2177.45 810.828 Q2177.45 807.993 2179.11 805.37 Q2180.8 802.723 2183.54 801.131 Q2186.3 799.515 2189.28 799.515 Q2191.62 799.515 2193.42 800.428 Q2195.23 801.318 2196.14 802.981 L2198.46 800.241 Q2198.93 799.702 2199.02 799.608 Q2199.14 799.515 2199.3 799.515 Q2199.59 799.515 2199.7 799.679 Q2199.84 799.842 2199.84 800.006 Z" fill="#000000" fill-rule="nonzero" fill-opacity="1" /><path clip-path="url(#clip670)" d="M2205.29 821.344 Q2205.29 813.24 2208.31 806.705 Q2209.6 803.965 2211.41 801.669 Q2213.21 799.374 2214.4 798.367 Q2215.6 797.36 2215.93 797.36 Q2216.39 797.36 2216.42 797.828 Q2216.42 798.062 2215.79 798.648 Q2208.06 806.518 2208.08 821.344 Q2208.08 836.218 2215.6 843.783 Q2216.42 844.603 2216.42 844.86 Q2216.42 845.329 2215.93 845.329 Q2215.6 845.329 2214.45 844.369 Q2213.3 843.408 2211.52 841.207 Q2209.74 839.005 2208.45 836.311 Q2205.29 829.776 2205.29 821.344 Z" fill="#000000" fill-rule="nonzero" fill-opacity="1" /><path clip-path="url(#clip670)" d="M2234.79 813.193 Q2234.79 813.849 2234.49 814.013 Q2234.18 814.154 2233.34 814.154 L2228.84 814.154 L2225.28 828.301 Q2225 829.542 2225 830.596 Q2225 831.767 2225.35 832.283 Q2225.73 832.798 2226.5 832.798 Q2228.02 832.798 2229.66 831.416 Q2231.33 830.034 2232.73 826.661 Q2232.92 826.216 2233.01 826.122 Q2233.13 826.005 2233.43 826.005 Q2234.02 826.005 2234.02 826.474 Q2234.02 826.638 2233.69 827.387 Q2233.39 828.137 2232.71 829.238 Q2232.05 830.339 2231.19 831.369 Q2230.34 832.4 2229.05 833.149 Q2227.77 833.875 2226.38 833.875 Q2224.44 833.875 2223.2 832.634 Q2221.98 831.393 2221.98 829.448 Q2221.98 828.816 2222.47 826.802 Q2222.96 824.764 2225.63 814.154 L2221.39 814.154 Q2220.81 814.154 2220.57 814.13 Q2220.36 814.107 2220.2 813.99 Q2220.06 813.849 2220.06 813.568 Q2220.06 813.123 2220.25 812.936 Q2220.43 812.725 2220.67 812.701 Q2220.93 812.655 2221.51 812.655 L2226.01 812.655 L2227.88 805.042 Q2228.07 804.293 2228.54 803.871 Q2229.03 803.426 2229.31 803.379 Q2229.59 803.309 2229.8 803.309 Q2230.44 803.309 2230.81 803.66 Q2231.19 803.988 2231.19 804.597 Q2231.19 804.925 2229.22 812.655 L2233.43 812.655 Q2233.97 812.655 2234.18 812.678 Q2234.42 812.701 2234.6 812.819 Q2234.79 812.936 2234.79 813.193 Z" fill="#000000" fill-rule="nonzero" fill-opacity="1" /><path clip-path="url(#clip670)" d="M2238.54 844.86 Q2238.54 844.626 2239.15 844.041 Q2246.88 836.171 2246.88 821.344 Q2246.88 806.471 2239.46 798.952 Q2238.54 798.086 2238.54 797.828 Q2238.54 797.36 2239.01 797.36 Q2239.34 797.36 2240.49 798.32 Q2241.66 799.28 2243.42 801.482 Q2245.2 803.684 2246.51 806.377 Q2249.67 812.912 2249.67 821.344 Q2249.67 829.448 2246.65 835.983 Q2245.36 838.724 2243.56 841.019 Q2241.75 843.315 2240.56 844.322 Q2239.36 845.329 2239.01 845.329 Q2238.54 845.329 2238.54 844.86 Z" fill="#000000" fill-rule="nonzero" fill-opacity="1" /><path clip-path="url(#clip670)" d="M2256.96 844.65 Q2256.96 844.415 2257.15 843.9 L2274.08 798.648 Q2274.08 798.601 2274.2 798.343 Q2274.32 798.086 2274.39 797.922 Q2274.46 797.734 2274.6 797.594 Q2274.76 797.453 2274.95 797.453 Q2275.42 797.453 2275.42 798.039 Q2275.42 798.086 2275.28 798.648 L2258.29 843.947 Q2258.01 844.767 2257.83 845.001 Q2257.66 845.235 2257.38 845.235 Q2256.96 845.235 2256.96 844.65 Z" fill="#000000" fill-rule="nonzero" fill-opacity="1" /><path clip-path="url(#clip670)" d="M2321.09 801.107 Q2321.09 802.068 2320.27 802.068 Q2317.62 802.161 2316.55 803.051 Q2315.49 803.918 2315.09 805.604 L2308.39 832.329 Q2308.16 833.173 2308.02 833.266 Q2307.88 833.337 2307.62 833.337 Q2307.29 833.337 2307.11 833.173 Q2306.94 833.009 2306.71 832.423 L2294.76 804.176 Q2294.67 803.988 2294.55 803.731 Q2294.43 803.473 2294.34 803.309 L2287.99 828.629 Q2287.81 829.355 2287.81 829.73 Q2287.81 830.643 2288.44 831.229 Q2289.09 831.791 2290.97 831.861 Q2291.93 831.861 2291.93 832.376 Q2291.93 833.337 2291.06 833.337 Q2290.27 833.337 2288.6 833.266 Q2286.94 833.196 2286.12 833.196 Q2285.32 833.196 2283.71 833.266 Q2282.09 833.337 2281.32 833.337 Q2280.71 833.337 2280.71 832.798 Q2280.71 832.376 2280.87 832.165 Q2281.04 831.931 2281.18 831.908 Q2281.32 831.861 2281.53 831.861 Q2282.93 831.814 2283.89 831.533 Q2284.85 831.252 2285.39 830.713 Q2285.96 830.175 2286.21 829.636 Q2286.49 829.074 2286.71 828.254 L2293.12 802.489 Q2293.12 802.068 2289.87 802.068 Q2289.31 802.068 2289.07 802.044 Q2288.86 802.021 2288.7 801.904 Q2288.53 801.787 2288.53 801.529 Q2288.53 800.873 2288.81 800.733 Q2289.09 800.569 2289.91 800.569 L2296.36 800.569 Q2297.17 800.569 2297.39 800.709 Q2297.6 800.826 2297.88 801.482 L2308.49 826.521 L2313.85 805.183 Q2313.99 804.761 2313.99 804.176 Q2313.99 803.239 2313.29 802.677 Q2312.61 802.091 2310.74 802.068 Q2309.87 802.068 2309.87 801.529 Q2309.87 801.084 2310.03 800.873 Q2310.22 800.639 2310.36 800.615 Q2310.53 800.569 2310.74 800.569 Q2311.53 800.569 2313.17 800.639 Q2314.81 800.709 2315.63 800.709 Q2316.43 800.709 2318.04 800.639 Q2319.68 800.569 2320.48 800.569 Q2320.76 800.569 2320.9 800.709 Q2321.07 800.826 2321.09 800.967 L2321.09 801.107 Z" fill="#000000" fill-rule="nonzero" fill-opacity="1" /><polyline clip-path="url(#clip670)" style="stroke:#e26f46; stroke-linecap:round; stroke-linejoin:round; stroke-width:8; stroke-opacity:1; fill:none" points="1944.64,925.142 2138.99,925.142 "/>
<path clip-path="url(#clip670)" d="M2193.59 904.834 Q2193.59 905.279 2193.4 905.49 Q2193.24 905.677 2192.98 905.724 Q2192.72 905.748 2192.04 905.748 Q2190.9 905.748 2190.17 905.841 Q2189.44 905.912 2189 906.029 Q2188.55 906.122 2188.3 906.45 Q2188.06 906.755 2187.94 907.036 Q2187.85 907.317 2187.69 907.949 L2181.27 933.503 Q2181.06 934.253 2181.06 934.627 Q2181.06 935.026 2181.29 935.19 Q2181.53 935.354 2182.28 935.424 Q2183.47 935.541 2184.34 935.541 Q2185.48 935.541 2185.65 935.705 Q2185.77 935.869 2185.77 936.103 Q2185.77 936.525 2185.58 936.759 Q2185.39 936.97 2185.23 936.993 Q2185.09 937.017 2184.81 937.017 L2178.39 936.876 L2172.09 937.017 Q2171.38 937.017 2171.38 936.478 Q2171.38 936.127 2171.43 935.939 Q2171.5 935.728 2171.74 935.658 Q2171.99 935.564 2172.18 935.564 Q2172.37 935.541 2172.91 935.541 Q2173.87 935.541 2174.5 935.518 Q2175.16 935.471 2175.62 935.354 Q2176.12 935.213 2176.35 935.096 Q2176.61 934.955 2176.79 934.651 Q2177.01 934.323 2177.08 934.065 Q2177.17 933.808 2177.29 933.269 L2183.75 907.411 Q2183.85 906.989 2183.85 906.661 Q2183.85 906.029 2183.1 905.888 Q2182.37 905.748 2180.54 905.748 Q2179.98 905.748 2179.75 905.724 Q2179.54 905.701 2179.35 905.584 Q2179.18 905.467 2179.18 905.209 Q2179.18 904.881 2179.28 904.67 Q2179.37 904.436 2179.54 904.366 Q2179.72 904.295 2179.84 904.272 Q2179.96 904.249 2180.14 904.249 L2186.54 904.389 L2192.86 904.249 Q2193.59 904.249 2193.59 904.834 Z" fill="#000000" fill-rule="nonzero" fill-opacity="1" /><path clip-path="url(#clip670)" d="M2199 925.024 Q2199 916.92 2202.02 910.385 Q2203.31 907.645 2205.11 905.349 Q2206.92 903.054 2208.11 902.047 Q2209.31 901.04 2209.64 901.04 Q2210.1 901.04 2210.13 901.508 Q2210.13 901.742 2209.49 902.328 Q2201.77 910.198 2201.79 925.024 Q2201.79 939.898 2209.31 947.463 Q2210.13 948.283 2210.13 948.54 Q2210.13 949.009 2209.64 949.009 Q2209.31 949.009 2208.16 948.049 Q2207.01 947.088 2205.23 944.887 Q2203.45 942.685 2202.16 939.991 Q2199 933.456 2199 925.024 Z" fill="#000000" fill-rule="nonzero" fill-opacity="1" /><path clip-path="url(#clip670)" d="M2228.5 916.873 Q2228.5 917.529 2228.2 917.693 Q2227.89 917.834 2227.05 917.834 L2222.55 917.834 L2218.99 931.981 Q2218.71 933.222 2218.71 934.276 Q2218.71 935.447 2219.06 935.963 Q2219.44 936.478 2220.21 936.478 Q2221.73 936.478 2223.37 935.096 Q2225.04 933.714 2226.44 930.341 Q2226.63 929.896 2226.72 929.802 Q2226.84 929.685 2227.14 929.685 Q2227.73 929.685 2227.73 930.154 Q2227.73 930.318 2227.4 931.067 Q2227.1 931.817 2226.42 932.918 Q2225.76 934.019 2224.89 935.049 Q2224.05 936.08 2222.76 936.829 Q2221.48 937.555 2220.09 937.555 Q2218.15 937.555 2216.91 936.314 Q2215.69 935.073 2215.69 933.128 Q2215.69 932.496 2216.18 930.482 Q2216.67 928.444 2219.34 917.834 L2215.1 917.834 Q2214.52 917.834 2214.28 917.81 Q2214.07 917.787 2213.91 917.67 Q2213.77 917.529 2213.77 917.248 Q2213.77 916.803 2213.96 916.616 Q2214.14 916.405 2214.38 916.381 Q2214.64 916.335 2215.22 916.335 L2219.72 916.335 L2221.59 908.722 Q2221.78 907.973 2222.25 907.551 Q2222.74 907.106 2223.02 907.059 Q2223.3 906.989 2223.51 906.989 Q2224.15 906.989 2224.52 907.34 Q2224.89 907.668 2224.89 908.277 Q2224.89 908.605 2222.93 916.335 L2227.14 916.335 Q2227.68 916.335 2227.89 916.358 Q2228.13 916.381 2228.31 916.499 Q2228.5 916.616 2228.5 916.873 Z" fill="#000000" fill-rule="nonzero" fill-opacity="1" /><path clip-path="url(#clip670)" d="M2232.25 948.54 Q2232.25 948.306 2232.86 947.721 Q2240.59 939.851 2240.59 925.024 Q2240.59 910.151 2233.17 902.632 Q2232.25 901.766 2232.25 901.508 Q2232.25 901.04 2232.72 901.04 Q2233.05 901.04 2234.2 902 Q2235.37 902.96 2237.12 905.162 Q2238.91 907.364 2240.22 910.057 Q2243.38 916.592 2243.38 925.024 Q2243.38 933.128 2240.36 939.663 Q2239.07 942.404 2237.27 944.699 Q2235.46 946.995 2234.27 948.002 Q2233.07 949.009 2232.72 949.009 Q2232.25 949.009 2232.25 948.54 Z" fill="#000000" fill-rule="nonzero" fill-opacity="1" /><path clip-path="url(#clip670)" d="M2250.67 948.33 Q2250.67 948.095 2250.86 947.58 L2267.79 902.328 Q2267.79 902.281 2267.91 902.023 Q2268.02 901.766 2268.09 901.602 Q2268.17 901.414 2268.31 901.274 Q2268.47 901.133 2268.66 901.133 Q2269.13 901.133 2269.13 901.719 Q2269.13 901.766 2268.98 902.328 L2252 947.627 Q2251.72 948.447 2251.54 948.681 Q2251.37 948.915 2251.09 948.915 Q2250.67 948.915 2250.67 948.33 Z" fill="#000000" fill-rule="nonzero" fill-opacity="1" /><path clip-path="url(#clip670)" d="M2314.8 904.787 Q2314.8 905.748 2313.98 905.748 Q2311.33 905.841 2310.25 906.731 Q2309.2 907.598 2308.8 909.284 L2302.1 936.009 Q2301.87 936.853 2301.73 936.946 Q2301.59 937.017 2301.33 937.017 Q2301 937.017 2300.82 936.853 Q2300.65 936.689 2300.42 936.103 L2288.47 907.856 Q2288.38 907.668 2288.26 907.411 Q2288.14 907.153 2288.05 906.989 L2281.7 932.309 Q2281.52 933.035 2281.52 933.41 Q2281.52 934.323 2282.15 934.909 Q2282.8 935.471 2284.68 935.541 Q2285.64 935.541 2285.64 936.056 Q2285.64 937.017 2284.77 937.017 Q2283.97 937.017 2282.31 936.946 Q2280.65 936.876 2279.83 936.876 Q2279.03 936.876 2277.42 936.946 Q2275.8 937.017 2275.03 937.017 Q2274.42 937.017 2274.42 936.478 Q2274.42 936.056 2274.58 935.845 Q2274.75 935.611 2274.89 935.588 Q2275.03 935.541 2275.24 935.541 Q2276.64 935.494 2277.6 935.213 Q2278.56 934.932 2279.1 934.393 Q2279.67 933.855 2279.92 933.316 Q2280.2 932.754 2280.41 931.934 L2286.83 906.169 Q2286.83 905.748 2283.58 905.748 Q2283.01 905.748 2282.78 905.724 Q2282.57 905.701 2282.41 905.584 Q2282.24 905.467 2282.24 905.209 Q2282.24 904.553 2282.52 904.413 Q2282.8 904.249 2283.62 904.249 L2290.06 904.249 Q2290.88 904.249 2291.1 904.389 Q2291.31 904.506 2291.59 905.162 L2302.2 930.201 L2307.56 908.863 Q2307.7 908.441 2307.7 907.856 Q2307.7 906.919 2307 906.357 Q2306.32 905.771 2304.45 905.748 Q2303.58 905.748 2303.58 905.209 Q2303.58 904.764 2303.74 904.553 Q2303.93 904.319 2304.07 904.295 Q2304.24 904.249 2304.45 904.249 Q2305.24 904.249 2306.88 904.319 Q2308.52 904.389 2309.34 904.389 Q2310.14 904.389 2311.75 904.319 Q2313.39 904.249 2314.19 904.249 Q2314.47 904.249 2314.61 904.389 Q2314.78 904.506 2314.8 904.647 L2314.8 904.787 Z" fill="#000000" fill-rule="nonzero" fill-opacity="1" /><polyline clip-path="url(#clip670)" style="stroke:#3da44d; stroke-linecap:round; stroke-linejoin:round; stroke-width:8; stroke-opacity:1; fill:none" points="1944.64,1028.82 2138.99,1028.82 "/>
<path clip-path="url(#clip670)" d="M2200.4 1014.16 Q2200.4 1013.39 2200.19 1012.75 Q2200.01 1012.1 2199.7 1011.65 Q2199.42 1011.18 2198.88 1010.83 Q2198.34 1010.46 2197.9 1010.22 Q2197.45 1009.99 2196.7 1009.85 Q2195.95 1009.69 2195.46 1009.61 Q2194.97 1009.52 2194.13 1009.47 Q2193.28 1009.43 2192.86 1009.43 Q2192.46 1009.43 2191.67 1009.43 Q2189.16 1009.43 2188.74 1009.47 Q2188.11 1009.57 2187.87 1009.94 Q2187.64 1010.29 2187.41 1011.25 L2184.29 1023.76 L2189.65 1023.76 Q2192.58 1023.76 2194.6 1022.94 Q2196.61 1022.12 2197.76 1020.97 Q2199.02 1019.71 2199.7 1017.67 Q2200.4 1015.63 2200.4 1014.16 M2205.63 1036.25 Q2205.63 1036.5 2205.42 1037.09 Q2205.23 1037.68 2204.76 1038.49 Q2204.29 1039.29 2203.66 1040.02 Q2203.03 1040.74 2202.02 1041.24 Q2201.01 1041.75 2199.87 1041.75 Q2199.59 1041.75 2199.3 1041.73 Q2199.02 1041.73 2198.32 1041.61 Q2197.64 1041.52 2197.08 1041.33 Q2196.52 1041.17 2195.81 1040.77 Q2195.11 1040.39 2194.62 1039.88 Q2194.15 1039.34 2193.82 1038.49 Q2193.5 1037.63 2193.5 1036.57 Q2193.5 1035.64 2194.27 1032.5 Q2194.95 1029.83 2194.95 1029.17 Q2194.95 1028.45 2194.71 1027.77 Q2194.5 1027.09 2193.96 1026.39 Q2193.45 1025.68 2192.35 1025.26 Q2191.25 1024.82 2189.7 1024.82 L2184.01 1024.82 L2180.82 1037.53 Q2180.82 1037.56 2180.75 1037.89 Q2180.68 1038.19 2180.68 1038.35 Q2180.68 1038.66 2180.87 1038.85 Q2181.08 1039.03 2181.6 1039.13 Q2182.11 1039.2 2182.51 1039.22 Q2182.93 1039.22 2183.8 1039.22 Q2184.88 1039.22 2185.06 1039.41 Q2185.16 1039.53 2185.16 1039.74 Q2185.16 1040.06 2185.06 1040.3 Q2184.99 1040.51 2184.81 1040.58 Q2184.64 1040.65 2184.52 1040.67 Q2184.41 1040.7 2184.2 1040.7 L2178.11 1040.56 L2172.06 1040.7 Q2171.38 1040.7 2171.38 1040.16 Q2171.38 1039.69 2171.55 1039.5 Q2171.71 1039.29 2171.92 1039.27 Q2172.13 1039.22 2172.67 1039.22 Q2173.84 1039.22 2174.55 1039.15 Q2175.25 1039.08 2175.69 1038.99 Q2176.16 1038.87 2176.4 1038.54 Q2176.65 1038.21 2176.77 1037.93 Q2176.89 1037.63 2177.05 1036.95 L2183.47 1011.18 Q2183.66 1010.41 2183.66 1010.29 Q2183.66 1009.85 2183.38 1009.73 Q2183.12 1009.59 2182.37 1009.52 L2180.54 1009.43 Q2179.98 1009.43 2179.75 1009.4 Q2179.54 1009.38 2179.37 1009.26 Q2179.21 1009.15 2179.21 1008.89 Q2179.21 1008.23 2179.49 1008.09 Q2179.77 1007.93 2180.59 1007.93 L2194.27 1007.93 Q2198.93 1007.93 2201.88 1009.97 Q2204.86 1012 2204.86 1015.12 Q2204.86 1016.52 2204.22 1017.84 Q2203.59 1019.15 2202.54 1020.18 Q2201.51 1021.21 2200.12 1022.08 Q2198.74 1022.92 2197.27 1023.5 Q2195.81 1024.07 2194.31 1024.39 Q2194.97 1024.63 2195.58 1024.98 Q2196.21 1025.33 2197.01 1025.99 Q2197.83 1026.64 2198.32 1027.7 Q2198.81 1028.75 2198.81 1030.04 Q2198.81 1030.95 2198.62 1032.31 Q2198.16 1036.18 2198.16 1037.77 Q2198.16 1039.29 2198.55 1039.99 Q2198.95 1040.7 2200.08 1040.7 Q2201.18 1040.7 2202.4 1039.71 Q2203.64 1038.71 2204.43 1036.34 Q2204.62 1035.66 2205.07 1035.66 Q2205.09 1035.66 2205.11 1035.66 Q2205.16 1035.66 2205.25 1035.71 Q2205.35 1035.73 2205.42 1035.8 Q2205.51 1035.85 2205.56 1035.97 Q2205.63 1036.08 2205.63 1036.25 Z" fill="#000000" fill-rule="nonzero" fill-opacity="1" /><path clip-path="url(#clip670)" d="M2210.88 1028.7 Q2210.88 1020.6 2213.9 1014.07 Q2215.19 1011.32 2217 1009.03 Q2218.8 1006.73 2219.99 1005.73 Q2221.19 1004.72 2221.52 1004.72 Q2221.99 1004.72 2222.01 1005.19 Q2222.01 1005.42 2221.38 1006.01 Q2213.65 1013.88 2213.67 1028.7 Q2213.67 1043.58 2221.19 1051.14 Q2222.01 1051.96 2222.01 1052.22 Q2222.01 1052.69 2221.52 1052.69 Q2221.19 1052.69 2220.04 1051.73 Q2218.89 1050.77 2217.11 1048.57 Q2215.33 1046.36 2214.04 1043.67 Q2210.88 1037.14 2210.88 1028.7 Z" fill="#000000" fill-rule="nonzero" fill-opacity="1" /><path clip-path="url(#clip670)" d="M2240.38 1020.55 Q2240.38 1021.21 2240.08 1021.37 Q2239.77 1021.51 2238.93 1021.51 L2234.43 1021.51 L2230.87 1035.66 Q2230.59 1036.9 2230.59 1037.96 Q2230.59 1039.13 2230.94 1039.64 Q2231.32 1040.16 2232.09 1040.16 Q2233.61 1040.16 2235.25 1038.78 Q2236.92 1037.39 2238.32 1034.02 Q2238.51 1033.58 2238.6 1033.48 Q2238.72 1033.37 2239.02 1033.37 Q2239.61 1033.37 2239.61 1033.83 Q2239.61 1034 2239.28 1034.75 Q2238.98 1035.5 2238.3 1036.6 Q2237.64 1037.7 2236.78 1038.73 Q2235.93 1039.76 2234.64 1040.51 Q2233.36 1041.24 2231.97 1041.24 Q2230.03 1041.24 2228.79 1039.99 Q2227.57 1038.75 2227.57 1036.81 Q2227.57 1036.18 2228.06 1034.16 Q2228.55 1032.12 2231.22 1021.51 L2226.99 1021.51 Q2226.4 1021.51 2226.17 1021.49 Q2225.95 1021.47 2225.79 1021.35 Q2225.65 1021.21 2225.65 1020.93 Q2225.65 1020.48 2225.84 1020.3 Q2226.03 1020.08 2226.26 1020.06 Q2226.52 1020.01 2227.1 1020.01 L2231.6 1020.01 L2233.47 1012.4 Q2233.66 1011.65 2234.13 1011.23 Q2234.62 1010.79 2234.9 1010.74 Q2235.18 1010.67 2235.39 1010.67 Q2236.03 1010.67 2236.4 1011.02 Q2236.78 1011.35 2236.78 1011.96 Q2236.78 1012.29 2234.81 1020.01 L2239.02 1020.01 Q2239.56 1020.01 2239.77 1020.04 Q2240.01 1020.06 2240.2 1020.18 Q2240.38 1020.3 2240.38 1020.55 Z" fill="#000000" fill-rule="nonzero" fill-opacity="1" /><path clip-path="url(#clip670)" d="M2244.13 1052.22 Q2244.13 1051.99 2244.74 1051.4 Q2252.47 1043.53 2252.47 1028.7 Q2252.47 1013.83 2245.05 1006.31 Q2244.13 1005.45 2244.13 1005.19 Q2244.13 1004.72 2244.6 1004.72 Q2244.93 1004.72 2246.08 1005.68 Q2247.25 1006.64 2249.01 1008.84 Q2250.79 1011.04 2252.1 1013.74 Q2255.26 1020.27 2255.26 1028.7 Q2255.26 1036.81 2252.24 1043.34 Q2250.95 1046.08 2249.15 1048.38 Q2247.34 1050.67 2246.15 1051.68 Q2244.95 1052.69 2244.6 1052.69 Q2244.13 1052.69 2244.13 1052.22 Z" fill="#000000" fill-rule="nonzero" fill-opacity="1" /><path clip-path="url(#clip670)" d="M2262.55 1052.01 Q2262.55 1051.78 2262.74 1051.26 L2279.67 1006.01 Q2279.67 1005.96 2279.79 1005.7 Q2279.91 1005.45 2279.98 1005.28 Q2280.05 1005.09 2280.19 1004.95 Q2280.35 1004.81 2280.54 1004.81 Q2281.01 1004.81 2281.01 1005.4 Q2281.01 1005.45 2280.87 1006.01 L2263.88 1051.31 Q2263.6 1052.13 2263.42 1052.36 Q2263.25 1052.6 2262.97 1052.6 Q2262.55 1052.6 2262.55 1052.01 Z" fill="#000000" fill-rule="nonzero" fill-opacity="1" /><path clip-path="url(#clip670)" d="M2326.68 1008.47 Q2326.68 1009.43 2325.86 1009.43 Q2323.21 1009.52 2322.14 1010.41 Q2321.08 1011.28 2320.68 1012.96 L2313.99 1039.69 Q2313.75 1040.53 2313.61 1040.63 Q2313.47 1040.7 2313.21 1040.7 Q2312.88 1040.7 2312.7 1040.53 Q2312.53 1040.37 2312.3 1039.78 L2300.35 1011.54 Q2300.26 1011.35 2300.14 1011.09 Q2300.03 1010.83 2299.93 1010.67 L2293.58 1035.99 Q2293.4 1036.71 2293.4 1037.09 Q2293.4 1038 2294.03 1038.59 Q2294.69 1039.15 2296.56 1039.22 Q2297.52 1039.22 2297.52 1039.74 Q2297.52 1040.7 2296.65 1040.7 Q2295.86 1040.7 2294.19 1040.63 Q2292.53 1040.56 2291.71 1040.56 Q2290.91 1040.56 2289.3 1040.63 Q2287.68 1040.7 2286.91 1040.7 Q2286.3 1040.7 2286.3 1040.16 Q2286.3 1039.74 2286.46 1039.53 Q2286.63 1039.29 2286.77 1039.27 Q2286.91 1039.22 2287.12 1039.22 Q2288.52 1039.17 2289.49 1038.89 Q2290.45 1038.61 2290.98 1038.07 Q2291.55 1037.53 2291.8 1037 Q2292.09 1036.43 2292.3 1035.61 L2298.71 1009.85 Q2298.71 1009.43 2295.46 1009.43 Q2294.9 1009.43 2294.66 1009.4 Q2294.45 1009.38 2294.29 1009.26 Q2294.12 1009.15 2294.12 1008.89 Q2294.12 1008.23 2294.4 1008.09 Q2294.69 1007.93 2295.5 1007.93 L2301.95 1007.93 Q2302.77 1007.93 2302.98 1008.07 Q2303.19 1008.19 2303.47 1008.84 L2314.08 1033.88 L2319.44 1012.54 Q2319.58 1012.12 2319.58 1011.54 Q2319.58 1010.6 2318.88 1010.04 Q2318.2 1009.45 2316.33 1009.43 Q2315.46 1009.43 2315.46 1008.89 Q2315.46 1008.44 2315.62 1008.23 Q2315.81 1008 2315.95 1007.98 Q2316.12 1007.93 2316.33 1007.93 Q2317.12 1007.93 2318.76 1008 Q2320.4 1008.07 2321.22 1008.07 Q2322.02 1008.07 2323.64 1008 Q2325.27 1007.93 2326.07 1007.93 Q2326.35 1007.93 2326.49 1008.07 Q2326.66 1008.19 2326.68 1008.33 L2326.68 1008.47 Z" fill="#000000" fill-rule="nonzero" fill-opacity="1" /><polyline clip-path="url(#clip670)" style="stroke:#800080; stroke-linecap:round; stroke-linejoin:round; stroke-width:6; stroke-opacity:1; fill:none" stroke-dasharray="24, 15" points="1944.64,1132.5 2138.99,1132.5 "/>
<path clip-path="url(#clip670)" d="M2197.73 1089.3 L2197.73 1123.86 L2193.05 1123.86 L2193.05 1093.24 L2176.06 1093.24 L2176.06 1123.86 L2171.38 1123.86 L2171.38 1089.3 L2197.73 1089.3 Z" fill="#000000" fill-rule="nonzero" fill-opacity="1" /><path clip-path="url(#clip670)" d="M2216.89 1100.92 Q2213.47 1100.92 2211.48 1103.61 Q2209.49 1106.27 2209.49 1110.92 Q2209.49 1115.57 2211.45 1118.26 Q2213.44 1120.92 2216.89 1120.92 Q2220.3 1120.92 2222.29 1118.24 Q2224.28 1115.55 2224.28 1110.92 Q2224.28 1106.32 2222.29 1103.63 Q2220.3 1100.92 2216.89 1100.92 M2216.89 1097.31 Q2222.45 1097.31 2225.62 1100.92 Q2228.79 1104.53 2228.79 1110.92 Q2228.79 1117.29 2225.62 1120.92 Q2222.45 1124.53 2216.89 1124.53 Q2211.31 1124.53 2208.14 1120.92 Q2205 1117.29 2205 1110.92 Q2205 1104.53 2208.14 1100.92 Q2211.31 1097.31 2216.89 1097.31 Z" fill="#000000" fill-rule="nonzero" fill-opacity="1" /><path clip-path="url(#clip670)" d="M2239.97 1119.97 L2239.97 1133.72 L2235.69 1133.72 L2235.69 1097.94 L2239.97 1097.94 L2239.97 1101.87 Q2241.31 1099.56 2243.35 1098.45 Q2245.41 1097.31 2248.26 1097.31 Q2252.98 1097.31 2255.92 1101.06 Q2258.88 1104.81 2258.88 1110.92 Q2258.88 1117.03 2255.92 1120.78 Q2252.98 1124.53 2248.26 1124.53 Q2245.41 1124.53 2243.35 1123.42 Q2241.31 1122.29 2239.97 1119.97 M2254.46 1110.92 Q2254.46 1106.22 2252.52 1103.56 Q2250.6 1100.88 2247.22 1100.88 Q2243.84 1100.88 2241.89 1103.56 Q2239.97 1106.22 2239.97 1110.92 Q2239.97 1115.62 2241.89 1118.31 Q2243.84 1120.97 2247.22 1120.97 Q2250.6 1120.97 2252.52 1118.31 Q2254.46 1115.62 2254.46 1110.92 Z" fill="#000000" fill-rule="nonzero" fill-opacity="1" /><path clip-path="url(#clip670)" d="M2275.99 1100.92 Q2272.56 1100.92 2270.57 1103.61 Q2268.58 1106.27 2268.58 1110.92 Q2268.58 1115.57 2270.55 1118.26 Q2272.54 1120.92 2275.99 1120.92 Q2279.39 1120.92 2281.38 1118.24 Q2283.37 1115.55 2283.37 1110.92 Q2283.37 1106.32 2281.38 1103.63 Q2279.39 1100.92 2275.99 1100.92 M2275.99 1097.31 Q2281.55 1097.31 2284.72 1100.92 Q2287.89 1104.53 2287.89 1110.92 Q2287.89 1117.29 2284.72 1120.92 Q2281.55 1124.53 2275.99 1124.53 Q2270.41 1124.53 2267.24 1120.92 Q2264.09 1117.29 2264.09 1110.92 Q2264.09 1104.53 2267.24 1100.92 Q2270.41 1097.31 2275.99 1097.31 Z" fill="#000000" fill-rule="nonzero" fill-opacity="1" /><path clip-path="url(#clip670)" d="M2294.79 1123.86 L2294.79 1097.94 L2313.07 1097.94 L2313.07 1101.34 L2299.07 1101.34 L2299.07 1123.86 L2294.79 1123.86 Z" fill="#000000" fill-rule="nonzero" fill-opacity="1" /><path clip-path="url(#clip670)" d="M2334.76 1097.94 L2339 1097.94 L2339 1110.11 L2351.01 1097.94 L2356.24 1097.94 L2346.34 1107.96 L2357.52 1123.86 L2352.75 1123.86 L2343.56 1110.78 L2339 1115.41 L2339 1123.86 L2334.76 1123.86 L2334.76 1097.94 Z" fill="#000000" fill-rule="nonzero" fill-opacity="1" /><path clip-path="url(#clip670)" d="M2373.61 1100.92 Q2370.18 1100.92 2368.19 1103.61 Q2366.2 1106.27 2366.2 1110.92 Q2366.2 1115.57 2368.17 1118.26 Q2370.16 1120.92 2373.61 1120.92 Q2377.01 1120.92 2379 1118.24 Q2380.99 1115.55 2380.99 1110.92 Q2380.99 1106.32 2379 1103.63 Q2377.01 1100.92 2373.61 1100.92 M2373.61 1097.31 Q2379.16 1097.31 2382.33 1100.92 Q2385.5 1104.53 2385.5 1110.92 Q2385.5 1117.29 2382.33 1120.92 Q2379.16 1124.53 2373.61 1124.53 Q2368.03 1124.53 2364.86 1120.92 Q2361.71 1117.29 2361.71 1110.92 Q2361.71 1104.53 2364.86 1100.92 Q2368.03 1097.31 2373.61 1097.31 Z" fill="#000000" fill-rule="nonzero" fill-opacity="1" /><path clip-path="url(#clip670)" d="M2389.86 1123.86 L2389.86 1120.32 Q2394.07 1119.67 2395.36 1116.76 Q2396.94 1112.66 2396.94 1102.17 L2396.94 1097.94 L2414.46 1097.94 L2414.46 1123.86 L2410.2 1123.86 L2410.2 1101.34 L2401.2 1101.34 L2401.2 1103.91 Q2401.2 1113.91 2399.16 1118.4 Q2396.99 1123.19 2389.86 1123.86 Z" fill="#000000" fill-rule="nonzero" fill-opacity="1" /><path clip-path="url(#clip670)" d="M2420.16 1123.86 L2420.16 1120.32 Q2424.37 1119.67 2425.67 1116.76 Q2427.24 1112.66 2427.24 1102.17 L2427.24 1097.94 L2444.76 1097.94 L2444.76 1123.86 L2440.5 1123.86 L2440.5 1101.34 L2431.5 1101.34 L2431.5 1103.91 Q2431.5 1113.91 2429.46 1118.4 Q2427.29 1123.19 2420.16 1123.86 Z" fill="#000000" fill-rule="nonzero" fill-opacity="1" /><path clip-path="url(#clip670)" d="M2475.34 1109.83 L2475.34 1111.92 L2455.76 1111.92 Q2456.04 1116.32 2458.4 1118.63 Q2460.78 1120.92 2465.02 1120.92 Q2467.47 1120.92 2469.76 1120.32 Q2472.08 1119.72 2474.35 1118.51 L2474.35 1122.54 Q2472.05 1123.51 2469.65 1124.02 Q2467.24 1124.53 2464.76 1124.53 Q2458.56 1124.53 2454.92 1120.92 Q2451.31 1117.31 2451.31 1111.15 Q2451.31 1104.79 2454.74 1101.06 Q2458.19 1097.31 2464.02 1097.31 Q2469.25 1097.31 2472.29 1100.69 Q2475.34 1104.05 2475.34 1109.83 M2471.08 1108.58 Q2471.04 1105.09 2469.11 1103.01 Q2467.22 1100.92 2464.07 1100.92 Q2460.5 1100.92 2458.35 1102.94 Q2456.22 1104.95 2455.9 1108.61 L2471.08 1108.58 Z" fill="#000000" fill-rule="nonzero" fill-opacity="1" /><path clip-path="url(#clip670)" d="M2482.17 1097.94 L2486.41 1097.94 L2486.41 1110.11 L2498.42 1097.94 L2503.65 1097.94 L2493.74 1107.96 L2504.92 1123.86 L2500.16 1123.86 L2490.97 1110.78 L2486.41 1115.41 L2486.41 1123.86 L2482.17 1123.86 L2482.17 1097.94 Z" fill="#000000" fill-rule="nonzero" fill-opacity="1" /><path clip-path="url(#clip670)" d="M2507.89 1097.94 L2532.73 1097.94 L2532.73 1101.34 L2522.4 1101.34 L2522.4 1123.86 L2518.21 1123.86 L2518.21 1101.34 L2507.89 1101.34 L2507.89 1097.94 Z" fill="#000000" fill-rule="nonzero" fill-opacity="1" /><path clip-path="url(#clip670)" d="M2560.62 1097.94 L2560.62 1123.86 L2556.38 1123.86 L2556.38 1103.05 L2543.88 1123.86 L2538.42 1123.86 L2538.42 1097.94 L2542.66 1097.94 L2542.66 1118.7 L2555.13 1097.94 L2560.62 1097.94 Z" fill="#000000" fill-rule="nonzero" fill-opacity="1" /><path clip-path="url(#clip670)" d="M2573.49 1111.92 L2573.49 1120.46 L2579.55 1120.46 Q2582.47 1120.46 2584 1119.37 Q2585.53 1118.26 2585.53 1116.18 Q2585.53 1114.09 2584 1113.01 Q2582.47 1111.92 2579.55 1111.92 L2573.49 1111.92 M2573.49 1101.34 L2573.49 1108.51 L2579.09 1108.51 Q2581.5 1108.51 2583.03 1107.57 Q2584.55 1106.59 2584.55 1104.88 Q2584.55 1103.17 2583.03 1102.26 Q2581.5 1101.34 2579.09 1101.34 L2573.49 1101.34 M2569.23 1097.94 L2579.37 1097.94 Q2583.93 1097.94 2586.38 1099.6 Q2588.84 1101.27 2588.84 1104.35 Q2588.84 1106.73 2587.59 1108.14 Q2586.34 1109.53 2583.88 1109.88 Q2586.82 1110.44 2588.44 1112.19 Q2590.06 1113.95 2590.06 1116.59 Q2590.06 1120.07 2587.38 1121.96 Q2584.72 1123.86 2579.76 1123.86 L2569.23 1123.86 L2569.23 1097.94 Z" fill="#000000" fill-rule="nonzero" fill-opacity="1" /><path clip-path="url(#clip670)" d="M2597.17 1097.94 L2601.45 1097.94 L2601.45 1108.51 L2615.27 1108.51 L2615.27 1097.94 L2619.55 1097.94 L2619.55 1123.86 L2615.27 1123.86 L2615.27 1111.92 L2601.45 1111.92 L2601.45 1123.86 L2597.17 1123.86 L2597.17 1097.94 Z" fill="#000000" fill-rule="nonzero" fill-opacity="1" /><path clip-path="url(#clip670)" d="M2638.37 1100.92 Q2634.95 1100.92 2632.96 1103.61 Q2630.97 1106.27 2630.97 1110.92 Q2630.97 1115.57 2632.93 1118.26 Q2634.92 1120.92 2638.37 1120.92 Q2641.78 1120.92 2643.77 1118.24 Q2645.76 1115.55 2645.76 1110.92 Q2645.76 1106.32 2643.77 1103.63 Q2641.78 1100.92 2638.37 1100.92 M2638.37 1097.31 Q2643.93 1097.31 2647.1 1100.92 Q2650.27 1104.53 2650.27 1110.92 Q2650.27 1117.29 2647.1 1120.92 Q2643.93 1124.53 2638.37 1124.53 Q2632.79 1124.53 2629.62 1120.92 Q2626.47 1117.29 2626.47 1110.92 Q2626.47 1104.53 2629.62 1100.92 Q2632.79 1097.31 2638.37 1097.31 Z" fill="#000000" fill-rule="nonzero" fill-opacity="1" /><path clip-path="url(#clip670)" d="M2657.17 1123.86 L2657.17 1097.94 L2675.46 1097.94 L2675.46 1101.34 L2661.45 1101.34 L2661.45 1123.86 L2657.17 1123.86 Z" fill="#000000" fill-rule="nonzero" fill-opacity="1" /><path clip-path="url(#clip670)" d="M2692.28 1100.92 Q2688.86 1100.92 2686.87 1103.61 Q2684.88 1106.27 2684.88 1110.92 Q2684.88 1115.57 2686.84 1118.26 Q2688.84 1120.92 2692.28 1120.92 Q2695.69 1120.92 2697.68 1118.24 Q2699.67 1115.55 2699.67 1110.92 Q2699.67 1106.32 2697.68 1103.63 Q2695.69 1100.92 2692.28 1100.92 M2692.28 1097.31 Q2697.84 1097.31 2701.01 1100.92 Q2704.18 1104.53 2704.18 1110.92 Q2704.18 1117.29 2701.01 1120.92 Q2697.84 1124.53 2692.28 1124.53 Q2686.71 1124.53 2683.53 1120.92 Q2680.39 1117.29 2680.39 1110.92 Q2680.39 1104.53 2683.53 1100.92 Q2686.71 1097.31 2692.28 1097.31 Z" fill="#000000" fill-rule="nonzero" fill-opacity="1" /><path clip-path="url(#clip670)" d="M2748.35 1097.94 L2748.35 1123.86 L2744.11 1123.86 L2744.11 1103.05 L2731.61 1123.86 L2726.15 1123.86 L2726.15 1097.94 L2730.39 1097.94 L2730.39 1118.7 L2742.86 1097.94 L2748.35 1097.94 Z" fill="#000000" fill-rule="nonzero" fill-opacity="1" /><path clip-path="url(#clip670)" d="M2756.96 1097.94 L2763.19 1097.94 L2770.55 1115.3 L2777.93 1097.94 L2784.11 1097.94 L2784.11 1123.86 L2779.83 1123.86 L2779.83 1102.01 L2772.68 1118.88 L2768.42 1118.88 L2761.24 1102.01 L2761.24 1123.86 L2756.96 1123.86 L2756.96 1097.94 Z" fill="#000000" fill-rule="nonzero" fill-opacity="1" /><path clip-path="url(#clip670)" d="M2792.72 1097.94 L2798.95 1097.94 L2806.31 1115.3 L2813.7 1097.94 L2819.88 1097.94 L2819.88 1123.86 L2815.59 1123.86 L2815.59 1102.01 L2808.44 1118.88 L2804.18 1118.88 L2797.01 1102.01 L2797.01 1123.86 L2792.72 1123.86 L2792.72 1097.94 Z" fill="#000000" fill-rule="nonzero" fill-opacity="1" /><path clip-path="url(#clip670)" d="M2839.44 1126.27 Q2837.63 1130.9 2835.92 1132.31 Q2834.2 1133.72 2831.33 1133.72 L2827.93 1133.72 L2827.93 1130.16 L2830.43 1130.16 Q2832.19 1130.16 2833.16 1129.32 Q2834.14 1128.49 2835.32 1125.39 L2836.08 1123.44 L2825.59 1097.94 L2830.11 1097.94 L2838.21 1118.21 L2846.31 1097.94 L2850.83 1097.94 L2839.44 1126.27 Z" fill="#000000" fill-rule="nonzero" fill-opacity="1" /><path clip-path="url(#clip670)" d="M2856.54 1097.94 L2860.83 1097.94 L2860.83 1108.51 L2874.64 1108.51 L2874.64 1097.94 L2878.93 1097.94 L2878.93 1123.86 L2874.64 1123.86 L2874.64 1111.92 L2860.83 1111.92 L2860.83 1123.86 L2856.54 1123.86 L2856.54 1097.94 Z" fill="#000000" fill-rule="nonzero" fill-opacity="1" /><path clip-path="url(#clip670)" d="M2909.74 1097.94 L2909.74 1123.86 L2905.5 1123.86 L2905.5 1103.05 L2893 1123.86 L2887.54 1123.86 L2887.54 1097.94 L2891.77 1097.94 L2891.77 1118.7 L2904.25 1097.94 L2909.74 1097.94 Z" fill="#000000" fill-rule="nonzero" fill-opacity="1" /><path clip-path="url(#clip670)" d="M2915.43 1097.94 L2940.27 1097.94 L2940.27 1101.34 L2929.95 1101.34 L2929.95 1123.86 L2925.76 1123.86 L2925.76 1101.34 L2915.43 1101.34 L2915.43 1097.94 Z" fill="#000000" fill-rule="nonzero" fill-opacity="1" /><path clip-path="url(#clip670)" d="M2968.3 1109.83 L2968.3 1111.92 L2948.72 1111.92 Q2949 1116.32 2951.36 1118.63 Q2953.74 1120.92 2957.98 1120.92 Q2960.43 1120.92 2962.72 1120.32 Q2965.04 1119.72 2967.31 1118.51 L2967.31 1122.54 Q2965.01 1123.51 2962.61 1124.02 Q2960.2 1124.53 2957.72 1124.53 Q2951.52 1124.53 2947.88 1120.92 Q2944.27 1117.31 2944.27 1111.15 Q2944.27 1104.79 2947.7 1101.06 Q2951.15 1097.31 2956.98 1097.31 Q2962.21 1097.31 2965.25 1100.69 Q2968.3 1104.05 2968.3 1109.83 M2964.04 1108.58 Q2964 1105.09 2962.07 1103.01 Q2960.18 1100.92 2957.03 1100.92 Q2953.46 1100.92 2951.31 1102.94 Q2949.18 1104.95 2948.86 1108.61 L2964.04 1108.58 Z" fill="#000000" fill-rule="nonzero" fill-opacity="1" /><path clip-path="url(#clip670)" d="M2972.21 1097.94 L2997.05 1097.94 L2997.05 1101.34 L2986.73 1101.34 L2986.73 1123.86 L2982.54 1123.86 L2982.54 1101.34 L2972.21 1101.34 L2972.21 1097.94 Z" fill="#000000" fill-rule="nonzero" fill-opacity="1" /><path clip-path="url(#clip670)" d="M3014.69 1110.83 Q3009.53 1110.83 3007.54 1112.01 Q3005.55 1113.19 3005.55 1116.04 Q3005.55 1118.31 3007.03 1119.65 Q3008.53 1120.97 3011.1 1120.97 Q3014.64 1120.97 3016.77 1118.47 Q3018.93 1115.94 3018.93 1111.78 L3018.93 1110.83 L3014.69 1110.83 M3023.19 1109.07 L3023.19 1123.86 L3018.93 1123.86 L3018.93 1119.93 Q3017.47 1122.29 3015.29 1123.42 Q3013.12 1124.53 3009.97 1124.53 Q3005.99 1124.53 3003.63 1122.31 Q3001.29 1120.07 3001.29 1116.32 Q3001.29 1111.94 3004.2 1109.72 Q3007.14 1107.5 3012.95 1107.5 L3018.93 1107.5 L3018.93 1107.08 Q3018.93 1104.14 3016.98 1102.54 Q3015.06 1100.92 3011.57 1100.92 Q3009.34 1100.92 3007.24 1101.45 Q3005.13 1101.99 3003.19 1103.05 L3003.19 1099.12 Q3005.52 1098.21 3007.72 1097.77 Q3009.92 1097.31 3012 1097.31 Q3017.63 1097.31 3020.41 1100.23 Q3023.19 1103.14 3023.19 1109.07 Z" fill="#000000" fill-rule="nonzero" fill-opacity="1" /><path clip-path="url(#clip670)" d="M2182.01 1139.73 Q2178.91 1145.05 2177.4 1150.26 Q2175.9 1155.47 2175.9 1160.82 Q2175.9 1166.16 2177.4 1171.42 Q2178.93 1176.65 2182.01 1181.95 L2178.31 1181.95 Q2174.83 1176.51 2173.1 1171.26 Q2171.38 1166 2171.38 1160.82 Q2171.38 1155.66 2173.1 1150.42 Q2174.81 1145.19 2178.31 1139.73 L2182.01 1139.73 Z" fill="#000000" fill-rule="nonzero" fill-opacity="1" /><path clip-path="url(#clip670)" d="M2190.92 1141.14 L2209.28 1141.14 L2209.28 1145.08 L2195.2 1145.08 L2195.2 1153.55 Q2196.22 1153.2 2197.24 1153.04 Q2198.26 1152.85 2199.28 1152.85 Q2205.06 1152.85 2208.44 1156.03 Q2211.82 1159.2 2211.82 1164.61 Q2211.82 1170.19 2208.35 1173.29 Q2204.88 1176.37 2198.56 1176.37 Q2196.38 1176.37 2194.12 1176 Q2191.87 1175.63 2189.46 1174.89 L2189.46 1170.19 Q2191.55 1171.33 2193.77 1171.88 Q2195.99 1172.44 2198.47 1172.44 Q2202.47 1172.44 2204.81 1170.33 Q2207.15 1168.22 2207.15 1164.61 Q2207.15 1161 2204.81 1158.9 Q2202.47 1156.79 2198.47 1156.79 Q2196.59 1156.79 2194.72 1157.21 Q2192.87 1157.62 2190.92 1158.5 L2190.92 1141.14 Z" fill="#000000" fill-rule="nonzero" fill-opacity="1" /><path clip-path="url(#clip670)" d="M2231.04 1144.22 Q2227.43 1144.22 2225.6 1147.79 Q2223.79 1151.33 2223.79 1158.46 Q2223.79 1165.56 2225.6 1169.13 Q2227.43 1172.67 2231.04 1172.67 Q2234.67 1172.67 2236.48 1169.13 Q2238.31 1165.56 2238.31 1158.46 Q2238.31 1151.33 2236.48 1147.79 Q2234.67 1144.22 2231.04 1144.22 M2231.04 1140.52 Q2236.85 1140.52 2239.9 1145.12 Q2242.98 1149.71 2242.98 1158.46 Q2242.98 1167.18 2239.9 1171.79 Q2236.85 1176.37 2231.04 1176.37 Q2225.23 1176.37 2222.15 1171.79 Q2219.09 1167.18 2219.09 1158.46 Q2219.09 1149.71 2222.15 1145.12 Q2225.23 1140.52 2231.04 1140.52 Z" fill="#000000" fill-rule="nonzero" fill-opacity="1" /><path clip-path="url(#clip670)" d="M2251.2 1169.82 L2256.08 1169.82 L2256.08 1175.7 L2251.2 1175.7 L2251.2 1169.82 Z" fill="#000000" fill-rule="nonzero" fill-opacity="1" /><path clip-path="url(#clip670)" d="M2276.27 1144.22 Q2272.66 1144.22 2270.83 1147.79 Q2269.02 1151.33 2269.02 1158.46 Q2269.02 1165.56 2270.83 1169.13 Q2272.66 1172.67 2276.27 1172.67 Q2279.9 1172.67 2281.71 1169.13 Q2283.54 1165.56 2283.54 1158.46 Q2283.54 1151.33 2281.71 1147.79 Q2279.9 1144.22 2276.27 1144.22 M2276.27 1140.52 Q2282.08 1140.52 2285.13 1145.12 Q2288.21 1149.71 2288.21 1158.46 Q2288.21 1167.18 2285.13 1171.79 Q2282.08 1176.37 2276.27 1176.37 Q2270.46 1176.37 2267.38 1171.79 Q2264.32 1167.18 2264.32 1158.46 Q2264.32 1149.71 2267.38 1145.12 Q2270.46 1140.52 2276.27 1140.52 Z" fill="#000000" fill-rule="nonzero" fill-opacity="1" /><path clip-path="url(#clip670)" d="M2325.83 1160.49 Q2323.81 1160.49 2322.66 1162.21 Q2321.52 1163.92 2321.52 1166.97 Q2321.52 1169.98 2322.66 1171.72 Q2323.81 1173.43 2325.83 1173.43 Q2327.8 1173.43 2328.93 1171.72 Q2330.09 1169.98 2330.09 1166.97 Q2330.09 1163.94 2328.93 1162.23 Q2327.8 1160.49 2325.83 1160.49 M2325.83 1157.55 Q2329.49 1157.55 2331.64 1160.1 Q2333.79 1162.65 2333.79 1166.97 Q2333.79 1171.3 2331.62 1173.85 Q2329.46 1176.37 2325.83 1176.37 Q2322.12 1176.37 2319.97 1173.85 Q2317.82 1171.3 2317.82 1166.97 Q2317.82 1162.62 2319.97 1160.1 Q2322.15 1157.55 2325.83 1157.55 M2301.94 1143.46 Q2299.95 1143.46 2298.79 1145.19 Q2297.66 1146.91 2297.66 1149.91 Q2297.66 1152.97 2298.79 1154.68 Q2299.93 1156.4 2301.94 1156.4 Q2303.95 1156.4 2305.09 1154.68 Q2306.24 1152.97 2306.24 1149.91 Q2306.24 1146.93 2305.09 1145.19 Q2303.93 1143.46 2301.94 1143.46 M2322.84 1140.52 L2326.55 1140.52 L2304.93 1176.37 L2301.22 1176.37 L2322.84 1140.52 M2301.94 1140.52 Q2305.6 1140.52 2307.77 1143.06 Q2309.95 1145.59 2309.95 1149.91 Q2309.95 1154.29 2307.77 1156.81 Q2305.62 1159.34 2301.94 1159.34 Q2298.26 1159.34 2296.11 1156.81 Q2293.98 1154.27 2293.98 1149.91 Q2293.98 1145.61 2296.13 1143.06 Q2298.28 1140.52 2301.94 1140.52 Z" fill="#000000" fill-rule="nonzero" fill-opacity="1" /><path clip-path="url(#clip670)" d="M2340.2 1139.73 L2343.91 1139.73 Q2347.38 1145.19 2349.09 1150.42 Q2350.83 1155.66 2350.83 1160.82 Q2350.83 1166 2349.09 1171.26 Q2347.38 1176.51 2343.91 1181.95 L2340.2 1181.95 Q2343.28 1176.65 2344.79 1171.42 Q2346.31 1166.16 2346.31 1160.82 Q2346.31 1155.47 2344.79 1150.26 Q2343.28 1145.05 2340.2 1139.73 Z" fill="#000000" fill-rule="nonzero" fill-opacity="1" /></svg>
