<?xml version="1.0" encoding="utf-8"?>
<svg xmlns="http://www.w3.org/2000/svg" xmlns:xlink="http://www.w3.org/1999/xlink" width="800" height="400" viewBox="0 0 3200 1600">
<defs>
  <clipPath id="clip030">
    <rect x="0" y="0" width="3200" height="1600"/>
  </clipPath>
</defs>
<path clip-path="url(#clip030)" d="M0 1600 L3200 1600 L3200 0 L0 0  Z" fill="#ffffff" fill-rule="evenodd" fill-opacity="1"/>
<defs>
  <clipPath id="clip031">
    <rect x="215" y="108" width="2938" height="1336"/>
  </clipPath>
</defs>
<path clip-path="url(#clip030)" d="M215.662 1443.7 L3152.76 1443.7 L3152.76 108.352 L215.662 108.352  Z" fill="#ffffff" fill-rule="evenodd" fill-opacity="1"/>
<polyline clip-path="url(#clip031)" style="stroke:#000000; stroke-linecap:round; stroke-linejoin:round; stroke-width:2; stroke-opacity:0.1; fill:none" points="298.787,1443.7 298.787,108.352 "/>
<polyline clip-path="url(#clip031)" style="stroke:#000000; stroke-linecap:round; stroke-linejoin:round; stroke-width:2; stroke-opacity:0.1; fill:none" points="991.498,1443.7 991.498,108.352 "/>
<polyline clip-path="url(#clip031)" style="stroke:#000000; stroke-linecap:round; stroke-linejoin:round; stroke-width:2; stroke-opacity:0.1; fill:none" points="1684.21,1443.7 1684.21,108.352 "/>
<polyline clip-path="url(#clip031)" style="stroke:#000000; stroke-linecap:round; stroke-linejoin:round; stroke-width:2; stroke-opacity:0.1; fill:none" points="2376.92,1443.7 2376.92,108.352 "/>
<polyline clip-path="url(#clip031)" style="stroke:#000000; stroke-linecap:round; stroke-linejoin:round; stroke-width:2; stroke-opacity:0.1; fill:none" points="3069.63,1443.7 3069.63,108.352 "/>
<polyline clip-path="url(#clip031)" style="stroke:#000000; stroke-linecap:round; stroke-linejoin:round; stroke-width:2; stroke-opacity:0.1; fill:none" points="215.662,1260.32 3152.76,1260.32 "/>
<polyline clip-path="url(#clip031)" style="stroke:#000000; stroke-linecap:round; stroke-linejoin:round; stroke-width:2; stroke-opacity:0.1; fill:none" points="215.662,1018.11 3152.76,1018.11 "/>
<polyline clip-path="url(#clip031)" style="stroke:#000000; stroke-linecap:round; stroke-linejoin:round; stroke-width:2; stroke-opacity:0.1; fill:none" points="215.662,775.898 3152.76,775.898 "/>
<polyline clip-path="url(#clip031)" style="stroke:#000000; stroke-linecap:round; stroke-linejoin:round; stroke-width:2; stroke-opacity:0.1; fill:none" points="215.662,533.685 3152.76,533.685 "/>
<polyline clip-path="url(#clip031)" style="stroke:#000000; stroke-linecap:round; stroke-linejoin:round; stroke-width:2; stroke-opacity:0.1; fill:none" points="215.662,291.473 3152.76,291.473 "/>
<polyline clip-path="url(#clip030)" style="stroke:#000000; stroke-linecap:round; stroke-linejoin:round; stroke-width:4; stroke-opacity:1; fill:none" points="215.662,1443.7 3152.76,1443.7 "/>
<polyline clip-path="url(#clip030)" style="stroke:#000000; stroke-linecap:round; stroke-linejoin:round; stroke-width:4; stroke-opacity:1; fill:none" points="298.787,1443.7 298.787,1424.8 "/>
<polyline clip-path="url(#clip030)" style="stroke:#000000; stroke-linecap:round; stroke-linejoin:round; stroke-width:4; stroke-opacity:1; fill:none" points="991.498,1443.7 991.498,1424.8 "/>
<polyline clip-path="url(#clip030)" style="stroke:#000000; stroke-linecap:round; stroke-linejoin:round; stroke-width:4; stroke-opacity:1; fill:none" points="1684.21,1443.7 1684.21,1424.8 "/>
<polyline clip-path="url(#clip030)" style="stroke:#000000; stroke-linecap:round; stroke-linejoin:round; stroke-width:4; stroke-opacity:1; fill:none" points="2376.92,1443.7 2376.92,1424.8 "/>
<polyline clip-path="url(#clip030)" style="stroke:#000000; stroke-linecap:round; stroke-linejoin:round; stroke-width:4; stroke-opacity:1; fill:none" points="3069.63,1443.7 3069.63,1424.8 "/>
<path clip-path="url(#clip030)" d="M298.787 1481.02 Q295.176 1481.02 293.348 1484.58 Q291.542 1488.12 291.542 1495.25 Q291.542 1502.36 293.348 1505.93 Q295.176 1509.47 298.787 1509.47 Q302.422 1509.47 304.227 1505.93 Q306.056 1502.36 306.056 1495.25 Q306.056 1488.12 304.227 1484.58 Q302.422 1481.02 298.787 1481.02 M298.787 1477.31 Q304.598 1477.31 307.653 1481.92 Q310.732 1486.5 310.732 1495.25 Q310.732 1503.98 307.653 1508.59 Q304.598 1513.17 298.787 1513.17 Q292.977 1513.17 289.899 1508.59 Q286.843 1503.98 286.843 1495.25 Q286.843 1486.5 289.899 1481.92 Q292.977 1477.31 298.787 1477.31 Z" fill="#000000" fill-rule="nonzero" fill-opacity="1" /><path clip-path="url(#clip030)" d="M966.186 1508.56 L973.825 1508.56 L973.825 1482.2 L965.515 1483.87 L965.515 1479.61 L973.778 1477.94 L978.454 1477.94 L978.454 1508.56 L986.093 1508.56 L986.093 1512.5 L966.186 1512.5 L966.186 1508.56 Z" fill="#000000" fill-rule="nonzero" fill-opacity="1" /><path clip-path="url(#clip030)" d="M1005.54 1481.02 Q1001.93 1481.02 1000.1 1484.58 Q998.292 1488.12 998.292 1495.25 Q998.292 1502.36 1000.1 1505.93 Q1001.93 1509.47 1005.54 1509.47 Q1009.17 1509.47 1010.98 1505.93 Q1012.81 1502.36 1012.81 1495.25 Q1012.81 1488.12 1010.98 1484.58 Q1009.17 1481.02 1005.54 1481.02 M1005.54 1477.31 Q1011.35 1477.31 1014.4 1481.92 Q1017.48 1486.5 1017.48 1495.25 Q1017.48 1503.98 1014.4 1508.59 Q1011.35 1513.17 1005.54 1513.17 Q999.727 1513.17 996.649 1508.59 Q993.593 1503.98 993.593 1495.25 Q993.593 1486.5 996.649 1481.92 Q999.727 1477.31 1005.54 1477.31 Z" fill="#000000" fill-rule="nonzero" fill-opacity="1" /><path clip-path="url(#clip030)" d="M1662.98 1508.56 L1679.3 1508.56 L1679.3 1512.5 L1657.36 1512.5 L1657.36 1508.56 Q1660.02 1505.81 1664.6 1501.18 Q1669.21 1496.53 1670.39 1495.19 Q1672.64 1492.66 1673.51 1490.93 Q1674.42 1489.17 1674.42 1487.48 Q1674.42 1484.72 1672.47 1482.99 Q1670.55 1481.25 1667.45 1481.25 Q1665.25 1481.25 1662.8 1482.01 Q1660.37 1482.78 1657.59 1484.33 L1657.59 1479.61 Q1660.41 1478.47 1662.87 1477.89 Q1665.32 1477.31 1667.36 1477.31 Q1672.73 1477.31 1675.92 1480 Q1679.12 1482.69 1679.12 1487.18 Q1679.12 1489.31 1678.31 1491.23 Q1677.52 1493.12 1675.41 1495.72 Q1674.83 1496.39 1671.73 1499.61 Q1668.63 1502.8 1662.98 1508.56 Z" fill="#000000" fill-rule="nonzero" fill-opacity="1" /><path clip-path="url(#clip030)" d="M1699.12 1481.02 Q1695.51 1481.02 1693.68 1484.58 Q1691.87 1488.12 1691.87 1495.25 Q1691.87 1502.36 1693.68 1505.93 Q1695.51 1509.47 1699.12 1509.47 Q1702.75 1509.47 1704.56 1505.93 Q1706.38 1502.36 1706.38 1495.25 Q1706.38 1488.12 1704.56 1484.58 Q1702.75 1481.02 1699.12 1481.02 M1699.12 1477.31 Q1704.93 1477.31 1707.98 1481.92 Q1711.06 1486.5 1711.06 1495.25 Q1711.06 1503.98 1707.98 1508.59 Q1704.93 1513.17 1699.12 1513.17 Q1693.31 1513.17 1690.23 1508.59 Q1687.17 1503.98 1687.17 1495.25 Q1687.17 1486.5 1690.23 1481.92 Q1693.31 1477.31 1699.12 1477.31 Z" fill="#000000" fill-rule="nonzero" fill-opacity="1" /><path clip-path="url(#clip030)" d="M2365.76 1493.87 Q2369.12 1494.58 2370.99 1496.85 Q2372.89 1499.12 2372.89 1502.45 Q2372.89 1507.57 2369.37 1510.37 Q2365.86 1513.17 2359.37 1513.17 Q2357.2 1513.17 2354.88 1512.73 Q2352.59 1512.31 2350.14 1511.46 L2350.14 1506.94 Q2352.08 1508.08 2354.4 1508.66 Q2356.71 1509.24 2359.23 1509.24 Q2363.63 1509.24 2365.92 1507.5 Q2368.24 1505.76 2368.24 1502.45 Q2368.24 1499.4 2366.09 1497.69 Q2363.96 1495.95 2360.14 1495.95 L2356.11 1495.95 L2356.11 1492.11 L2360.32 1492.11 Q2363.77 1492.11 2365.6 1490.74 Q2367.43 1489.35 2367.43 1486.76 Q2367.43 1484.1 2365.53 1482.69 Q2363.66 1481.25 2360.14 1481.25 Q2358.22 1481.25 2356.02 1481.67 Q2353.82 1482.08 2351.18 1482.96 L2351.18 1478.8 Q2353.84 1478.06 2356.16 1477.69 Q2358.49 1477.31 2360.55 1477.31 Q2365.88 1477.31 2368.98 1479.75 Q2372.08 1482.15 2372.08 1486.27 Q2372.08 1489.14 2370.44 1491.13 Q2368.79 1493.1 2365.76 1493.87 Z" fill="#000000" fill-rule="nonzero" fill-opacity="1" /><path clip-path="url(#clip030)" d="M2391.76 1481.02 Q2388.15 1481.02 2386.32 1484.58 Q2384.51 1488.12 2384.51 1495.25 Q2384.51 1502.36 2386.32 1505.93 Q2388.15 1509.47 2391.76 1509.47 Q2395.39 1509.47 2397.2 1505.93 Q2399.03 1502.36 2399.03 1495.25 Q2399.03 1488.12 2397.2 1484.58 Q2395.39 1481.02 2391.76 1481.02 M2391.76 1477.31 Q2397.57 1477.31 2400.62 1481.92 Q2403.7 1486.5 2403.7 1495.25 Q2403.7 1503.98 2400.62 1508.59 Q2397.57 1513.17 2391.76 1513.17 Q2385.95 1513.17 2382.87 1508.59 Q2379.81 1503.98 2379.81 1495.25 Q2379.81 1486.5 2382.87 1481.92 Q2385.95 1477.31 2391.76 1477.31 Z" fill="#000000" fill-rule="nonzero" fill-opacity="1" /><path clip-path="url(#clip030)" d="M3057.8 1482.01 L3046 1500.46 L3057.8 1500.46 L3057.8 1482.01 M3056.58 1477.94 L3062.45 1477.94 L3062.45 1500.46 L3067.39 1500.46 L3067.39 1504.35 L3062.45 1504.35 L3062.45 1512.5 L3057.8 1512.5 L3057.8 1504.35 L3042.2 1504.35 L3042.2 1499.84 L3056.58 1477.94 Z" fill="#000000" fill-rule="nonzero" fill-opacity="1" /><path clip-path="url(#clip030)" d="M3085.12 1481.02 Q3081.51 1481.02 3079.68 1484.58 Q3077.87 1488.12 3077.87 1495.25 Q3077.87 1502.36 3079.68 1505.93 Q3081.51 1509.47 3085.12 1509.47 Q3088.75 1509.47 3090.56 1505.93 Q3092.39 1502.36 3092.39 1495.25 Q3092.39 1488.12 3090.56 1484.58 Q3088.75 1481.02 3085.12 1481.02 M3085.12 1477.31 Q3090.93 1477.31 3093.98 1481.92 Q3097.06 1486.5 3097.06 1495.25 Q3097.06 1503.98 3093.98 1508.59 Q3090.93 1513.17 3085.12 1513.17 Q3079.31 1513.17 3076.23 1508.59 Q3073.17 1503.98 3073.17 1495.25 Q3073.17 1486.5 3076.23 1481.92 Q3079.31 1477.31 3085.12 1477.31 Z" fill="#000000" fill-rule="nonzero" fill-opacity="1" /><path clip-path="url(#clip030)" d="M1503.76 1577.87 L1503.76 1595.28 L1514.07 1595.28 Q1519.26 1595.28 1521.74 1593.15 Q1524.25 1590.98 1524.25 1586.56 Q1524.25 1582.1 1521.74 1580 Q1519.26 1577.87 1514.07 1577.87 L1503.76 1577.87 M1503.76 1558.33 L1503.76 1572.65 L1513.27 1572.65 Q1517.98 1572.65 1520.28 1570.9 Q1522.6 1569.12 1522.6 1565.49 Q1522.6 1561.89 1520.28 1560.11 Q1517.98 1558.33 1513.27 1558.33 L1503.76 1558.33 M1497.33 1553.04 L1513.75 1553.04 Q1521.1 1553.04 1525.08 1556.1 Q1529.06 1559.15 1529.06 1564.79 Q1529.06 1569.15 1527.02 1571.73 Q1524.99 1574.31 1521.04 1574.94 Q1525.78 1575.96 1528.39 1579.21 Q1531.03 1582.42 1531.03 1587.26 Q1531.03 1593.63 1526.71 1597.09 Q1522.38 1600.56 1514.39 1600.56 L1497.33 1600.56 L1497.33 1553.04 Z" fill="#000000" fill-rule="nonzero" fill-opacity="1" /><path clip-path="url(#clip030)" d="M1547.46 1595.22 L1547.46 1614.12 L1541.57 1614.12 L1541.57 1564.92 L1547.46 1564.92 L1547.46 1570.33 Q1549.3 1567.14 1552.1 1565.62 Q1554.94 1564.06 1558.85 1564.06 Q1565.35 1564.06 1569.39 1569.21 Q1573.46 1574.37 1573.46 1582.77 Q1573.46 1591.17 1569.39 1596.33 Q1565.35 1601.49 1558.85 1601.49 Q1554.94 1601.49 1552.1 1599.96 Q1549.3 1598.4 1547.46 1595.22 M1567.38 1582.77 Q1567.38 1576.31 1564.71 1572.65 Q1562.07 1568.96 1557.42 1568.96 Q1552.77 1568.96 1550.1 1572.65 Q1547.46 1576.31 1547.46 1582.77 Q1547.46 1589.23 1550.1 1592.92 Q1552.77 1596.59 1557.42 1596.59 Q1562.07 1596.59 1564.71 1592.92 Q1567.38 1589.23 1567.38 1582.77 Z" fill="#000000" fill-rule="nonzero" fill-opacity="1" /><path clip-path="url(#clip030)" d="M1613.66 1581.28 L1613.66 1584.14 L1586.73 1584.14 Q1587.12 1590.19 1590.36 1593.37 Q1593.64 1596.52 1599.47 1596.52 Q1602.84 1596.52 1605.99 1595.69 Q1609.17 1594.87 1612.29 1593.21 L1612.29 1598.75 Q1609.14 1600.09 1605.83 1600.79 Q1602.52 1601.49 1599.12 1601.49 Q1590.59 1601.49 1585.59 1596.52 Q1580.62 1591.56 1580.62 1583.09 Q1580.62 1574.34 1585.33 1569.21 Q1590.08 1564.06 1598.1 1564.06 Q1605.29 1564.06 1609.46 1568.7 Q1613.66 1573.32 1613.66 1581.28 M1607.8 1579.56 Q1607.74 1574.75 1605.1 1571.89 Q1602.49 1569.02 1598.16 1569.02 Q1593.26 1569.02 1590.3 1571.79 Q1587.37 1574.56 1586.93 1579.59 L1607.8 1579.56 Z" fill="#000000" fill-rule="nonzero" fill-opacity="1" /><path clip-path="url(#clip030)" d="M1623.05 1564.92 L1631.61 1564.92 L1641.73 1588.79 L1651.89 1564.92 L1660.39 1564.92 L1660.39 1600.56 L1654.5 1600.56 L1654.5 1570.52 L1644.66 1593.72 L1638.81 1593.72 L1628.94 1570.52 L1628.94 1600.56 L1623.05 1600.56 L1623.05 1564.92 Z" fill="#000000" fill-rule="nonzero" fill-opacity="1" /><path clip-path="url(#clip030)" d="M1678.34 1575.2 Q1678.34 1577.84 1680.37 1579.33 Q1682.41 1580.83 1686.2 1580.83 L1694.09 1580.83 L1694.09 1569.59 L1686.2 1569.59 Q1682.41 1569.59 1680.37 1571.06 Q1678.34 1572.52 1678.34 1575.2 M1670 1600.56 L1680.88 1584.94 Q1677.19 1584.11 1674.74 1581.94 Q1672.29 1579.75 1672.29 1575.2 Q1672.29 1570.04 1675.69 1567.49 Q1679.13 1564.92 1686.04 1564.92 L1699.98 1564.92 L1699.98 1600.56 L1694.09 1600.56 L1694.09 1585.51 L1686.8 1585.51 L1676.3 1600.56 L1670 1600.56 Z" fill="#000000" fill-rule="nonzero" fill-opacity="1" /><path clip-path="url(#clip030)" d="M1713.16 1592.48 L1719.87 1592.48 L1719.87 1597.95 L1714.65 1608.14 L1710.55 1608.14 L1713.16 1597.95 L1713.16 1592.48 Z" fill="#000000" fill-rule="nonzero" fill-opacity="1" /><path clip-path="url(#clip030)" d="M1761.06 1595.89 L1778.06 1595.89 L1778.06 1569.59 L1765.74 1569.59 L1765.74 1574.05 Q1765.74 1587.16 1761.98 1594.17 L1761.06 1595.89 M1752.56 1595.89 Q1755.46 1594.61 1756.73 1591.91 Q1759.85 1585.19 1759.85 1571.66 L1759.85 1564.92 L1783.94 1564.92 L1783.94 1595.89 L1788.62 1595.89 L1788.62 1609.57 L1783.94 1609.57 L1783.94 1600.56 L1755.04 1600.56 L1755.04 1609.57 L1750.36 1609.57 L1750.36 1595.89 L1752.56 1595.89 Z" fill="#000000" fill-rule="nonzero" fill-opacity="1" /><path clip-path="url(#clip030)" d="M1797.95 1564.92 L1803.84 1564.92 L1803.84 1579.46 L1822.84 1579.46 L1822.84 1564.92 L1828.73 1564.92 L1828.73 1600.56 L1822.84 1600.56 L1822.84 1584.14 L1803.84 1584.14 L1803.84 1600.56 L1797.95 1600.56 L1797.95 1564.92 Z" fill="#000000" fill-rule="nonzero" fill-opacity="1" /><path clip-path="url(#clip030)" d="M1871.09 1564.92 L1871.09 1600.56 L1865.27 1600.56 L1865.27 1571.95 L1848.08 1600.56 L1840.57 1600.56 L1840.57 1564.92 L1846.39 1564.92 L1846.39 1593.47 L1863.55 1564.92 L1871.09 1564.92 Z" fill="#000000" fill-rule="nonzero" fill-opacity="1" /><polyline clip-path="url(#clip030)" style="stroke:#000000; stroke-linecap:round; stroke-linejoin:round; stroke-width:4; stroke-opacity:1; fill:none" points="215.662,1443.7 215.662,108.352 "/>
<polyline clip-path="url(#clip030)" style="stroke:#000000; stroke-linecap:round; stroke-linejoin:round; stroke-width:4; stroke-opacity:1; fill:none" points="215.662,1260.32 234.56,1260.32 "/>
<polyline clip-path="url(#clip030)" style="stroke:#000000; stroke-linecap:round; stroke-linejoin:round; stroke-width:4; stroke-opacity:1; fill:none" points="215.662,1018.11 234.56,1018.11 "/>
<polyline clip-path="url(#clip030)" style="stroke:#000000; stroke-linecap:round; stroke-linejoin:round; stroke-width:4; stroke-opacity:1; fill:none" points="215.662,775.898 234.56,775.898 "/>
<polyline clip-path="url(#clip030)" style="stroke:#000000; stroke-linecap:round; stroke-linejoin:round; stroke-width:4; stroke-opacity:1; fill:none" points="215.662,533.685 234.56,533.685 "/>
<polyline clip-path="url(#clip030)" style="stroke:#000000; stroke-linecap:round; stroke-linejoin:round; stroke-width:4; stroke-opacity:1; fill:none" points="215.662,291.473 234.56,291.473 "/>
<path clip-path="url(#clip030)" d="M110.325 1246.12 Q106.713 1246.12 104.885 1249.69 Q103.079 1253.23 103.079 1260.36 Q103.079 1267.46 104.885 1271.03 Q106.713 1274.57 110.325 1274.57 Q113.959 1274.57 115.764 1271.03 Q117.593 1267.46 117.593 1260.36 Q117.593 1253.23 115.764 1249.69 Q113.959 1246.12 110.325 1246.12 M110.325 1242.42 Q116.135 1242.42 119.19 1247.02 Q122.269 1251.61 122.269 1260.36 Q122.269 1269.08 119.19 1273.69 Q116.135 1278.27 110.325 1278.27 Q104.514 1278.27 101.436 1273.69 Q98.3802 1269.08 98.3802 1260.36 Q98.3802 1251.61 101.436 1247.02 Q104.514 1242.42 110.325 1242.42 Z" fill="#000000" fill-rule="nonzero" fill-opacity="1" /><path clip-path="url(#clip030)" d="M130.486 1271.72 L135.371 1271.72 L135.371 1277.6 L130.486 1277.6 L130.486 1271.72 Z" fill="#000000" fill-rule="nonzero" fill-opacity="1" /><path clip-path="url(#clip030)" d="M156.134 1258.46 Q152.986 1258.46 151.135 1260.61 Q149.306 1262.77 149.306 1266.52 Q149.306 1270.24 151.135 1272.42 Q152.986 1274.57 156.134 1274.57 Q159.283 1274.57 161.111 1272.42 Q162.963 1270.24 162.963 1266.52 Q162.963 1262.77 161.111 1260.61 Q159.283 1258.46 156.134 1258.46 M165.417 1243.81 L165.417 1248.07 Q163.658 1247.23 161.852 1246.79 Q160.07 1246.35 158.31 1246.35 Q153.681 1246.35 151.227 1249.48 Q148.797 1252.6 148.449 1258.92 Q149.815 1256.91 151.875 1255.84 Q153.935 1254.76 156.412 1254.76 Q161.621 1254.76 164.63 1257.93 Q167.662 1261.08 167.662 1266.52 Q167.662 1271.84 164.514 1275.06 Q161.366 1278.27 156.134 1278.27 Q150.139 1278.27 146.968 1273.69 Q143.797 1269.08 143.797 1260.36 Q143.797 1252.16 147.685 1247.3 Q151.574 1242.42 158.125 1242.42 Q159.884 1242.42 161.667 1242.77 Q163.472 1243.11 165.417 1243.81 Z" fill="#000000" fill-rule="nonzero" fill-opacity="1" /><path clip-path="url(#clip030)" d="M110.672 1003.91 Q107.061 1003.91 105.232 1007.47 Q103.426 1011.02 103.426 1018.15 Q103.426 1025.25 105.232 1028.82 Q107.061 1032.36 110.672 1032.36 Q114.306 1032.36 116.112 1028.82 Q117.94 1025.25 117.94 1018.15 Q117.94 1011.02 116.112 1007.47 Q114.306 1003.91 110.672 1003.91 M110.672 1000.21 Q116.482 1000.21 119.537 1004.81 Q122.616 1009.4 122.616 1018.15 Q122.616 1026.87 119.537 1031.48 Q116.482 1036.06 110.672 1036.06 Q104.862 1036.06 101.783 1031.48 Q98.7274 1026.87 98.7274 1018.15 Q98.7274 1009.4 101.783 1004.81 Q104.862 1000.21 110.672 1000.21 Z" fill="#000000" fill-rule="nonzero" fill-opacity="1" /><path clip-path="url(#clip030)" d="M130.834 1029.51 L135.718 1029.51 L135.718 1035.39 L130.834 1035.39 L130.834 1029.51 Z" fill="#000000" fill-rule="nonzero" fill-opacity="1" /><path clip-path="url(#clip030)" d="M146.042 1034.67 L146.042 1030.41 Q147.801 1031.25 149.607 1031.69 Q151.412 1032.13 153.148 1032.13 Q157.778 1032.13 160.209 1029.02 Q162.662 1025.9 163.009 1019.56 Q161.667 1021.55 159.607 1022.61 Q157.547 1023.68 155.047 1023.68 Q149.861 1023.68 146.829 1020.55 Q143.82 1017.4 143.82 1011.96 Q143.82 1006.64 146.968 1003.42 Q150.116 1000.21 155.347 1000.21 Q161.343 1000.21 164.491 1004.81 Q167.662 1009.4 167.662 1018.15 Q167.662 1026.32 163.773 1031.2 Q159.908 1036.06 153.357 1036.06 Q151.597 1036.06 149.792 1035.71 Q147.986 1035.37 146.042 1034.67 M155.347 1020.02 Q158.496 1020.02 160.324 1017.87 Q162.176 1015.71 162.176 1011.96 Q162.176 1008.24 160.324 1006.09 Q158.496 1003.91 155.347 1003.91 Q152.199 1003.91 150.347 1006.09 Q148.519 1008.24 148.519 1011.96 Q148.519 1015.71 150.347 1017.87 Q152.199 1020.02 155.347 1020.02 Z" fill="#000000" fill-rule="nonzero" fill-opacity="1" /><path clip-path="url(#clip030)" d="M102.894 789.243 L110.533 789.243 L110.533 762.877 L102.223 764.544 L102.223 760.284 L110.487 758.618 L115.162 758.618 L115.162 789.243 L122.801 789.243 L122.801 793.178 L102.894 793.178 L102.894 789.243 Z" fill="#000000" fill-rule="nonzero" fill-opacity="1" /><path clip-path="url(#clip030)" d="M132.246 787.298 L137.13 787.298 L137.13 793.178 L132.246 793.178 L132.246 787.298 Z" fill="#000000" fill-rule="nonzero" fill-opacity="1" /><path clip-path="url(#clip030)" d="M151.343 789.243 L167.662 789.243 L167.662 793.178 L145.718 793.178 L145.718 789.243 Q148.38 786.488 152.963 781.858 Q157.57 777.206 158.75 775.863 Q160.996 773.34 161.875 771.604 Q162.778 769.845 162.778 768.155 Q162.778 765.4 160.834 763.664 Q158.912 761.928 155.81 761.928 Q153.611 761.928 151.158 762.692 Q148.727 763.456 145.949 765.007 L145.949 760.284 Q148.773 759.15 151.227 758.571 Q153.681 757.993 155.718 757.993 Q161.088 757.993 164.283 760.678 Q167.477 763.363 167.477 767.854 Q167.477 769.983 166.667 771.905 Q165.88 773.803 163.773 776.395 Q163.195 777.067 160.093 780.284 Q156.991 783.479 151.343 789.243 Z" fill="#000000" fill-rule="nonzero" fill-opacity="1" /><path clip-path="url(#clip030)" d="M102.292 547.03 L109.931 547.03 L109.931 520.664 L101.621 522.331 L101.621 518.072 L109.885 516.405 L114.561 516.405 L114.561 547.03 L122.199 547.03 L122.199 550.965 L102.292 550.965 L102.292 547.03 Z" fill="#000000" fill-rule="nonzero" fill-opacity="1" /><path clip-path="url(#clip030)" d="M131.644 545.086 L136.528 545.086 L136.528 550.965 L131.644 550.965 L131.644 545.086 Z" fill="#000000" fill-rule="nonzero" fill-opacity="1" /><path clip-path="url(#clip030)" d="M146.76 516.405 L165.116 516.405 L165.116 520.34 L151.042 520.34 L151.042 528.813 Q152.06 528.465 153.079 528.303 Q154.097 528.118 155.116 528.118 Q160.903 528.118 164.283 531.289 Q167.662 534.461 167.662 539.877 Q167.662 545.456 164.19 548.558 Q160.718 551.636 154.398 551.636 Q152.222 551.636 149.954 551.266 Q147.709 550.896 145.301 550.155 L145.301 545.456 Q147.385 546.59 149.607 547.146 Q151.829 547.701 154.306 547.701 Q158.31 547.701 160.648 545.595 Q162.986 543.488 162.986 539.877 Q162.986 536.266 160.648 534.16 Q158.31 532.053 154.306 532.053 Q152.431 532.053 150.556 532.47 Q148.704 532.887 146.76 533.766 L146.76 516.405 Z" fill="#000000" fill-rule="nonzero" fill-opacity="1" /><path clip-path="url(#clip030)" d="M101.389 304.817 L109.028 304.817 L109.028 278.452 L100.718 280.118 L100.718 275.859 L108.982 274.193 L113.658 274.193 L113.658 304.817 L121.297 304.817 L121.297 308.753 L101.389 308.753 L101.389 304.817 Z" fill="#000000" fill-rule="nonzero" fill-opacity="1" /><path clip-path="url(#clip030)" d="M130.741 302.873 L135.625 302.873 L135.625 308.753 L130.741 308.753 L130.741 302.873 Z" fill="#000000" fill-rule="nonzero" fill-opacity="1" /><path clip-path="url(#clip030)" d="M155.81 292.341 Q152.477 292.341 150.556 294.123 Q148.658 295.905 148.658 299.03 Q148.658 302.155 150.556 303.938 Q152.477 305.72 155.81 305.72 Q159.144 305.72 161.065 303.938 Q162.986 302.132 162.986 299.03 Q162.986 295.905 161.065 294.123 Q159.167 292.341 155.81 292.341 M151.135 290.35 Q148.125 289.609 146.435 287.549 Q144.769 285.489 144.769 282.526 Q144.769 278.382 147.709 275.975 Q150.672 273.568 155.81 273.568 Q160.972 273.568 163.912 275.975 Q166.852 278.382 166.852 282.526 Q166.852 285.489 165.162 287.549 Q163.496 289.609 160.509 290.35 Q163.889 291.137 165.764 293.429 Q167.662 295.72 167.662 299.03 Q167.662 304.054 164.584 306.739 Q161.528 309.424 155.81 309.424 Q150.093 309.424 147.014 306.739 Q143.959 304.054 143.959 299.03 Q143.959 295.72 145.857 293.429 Q147.755 291.137 151.135 290.35 M149.422 282.966 Q149.422 285.651 151.088 287.155 Q152.778 288.66 155.81 288.66 Q158.82 288.66 160.509 287.155 Q162.222 285.651 162.222 282.966 Q162.222 280.28 160.509 278.776 Q158.82 277.271 155.81 277.271 Q152.778 277.271 151.088 278.776 Q149.422 280.28 149.422 282.966 Z" fill="#000000" fill-rule="nonzero" fill-opacity="1" /><path clip-path="url(#clip030)" d="M0.658083 775.244 Q-0.40471 775.244 -1.27427 775.534 Q-2.17603 775.792 -2.78794 776.21 Q-3.43206 776.597 -3.91515 777.338 Q-4.43044 778.078 -4.7525 778.69 Q-5.07456 779.302 -5.2678 780.333 Q-5.49324 781.363 -5.58985 782.04 Q-5.71868 782.716 -5.78309 783.875 Q-5.8475 785.035 -5.8475 785.614 Q-5.8475 786.162 -5.8475 787.257 Q-5.8475 790.703 -5.78309 791.283 Q-5.65427 792.152 -5.13897 792.474 Q-4.65588 792.796 -3.33544 793.118 L13.8625 797.402 L13.8625 790.027 Q13.8625 786.001 12.7353 783.231 Q11.6081 780.462 10.03 778.883 Q8.29087 777.144 5.48896 776.21 Q2.68705 775.244 0.658083 775.244 M31.0282 768.062 Q31.3825 768.062 32.1876 768.352 Q32.9928 768.61 34.12 769.254 Q35.215 769.898 36.2134 770.768 Q37.2117 771.637 37.8881 773.022 Q38.5966 774.407 38.5966 775.985 Q38.5966 776.371 38.5644 776.758 Q38.5644 777.144 38.4034 778.11 Q38.2745 779.044 38.0169 779.817 Q37.7914 780.59 37.2439 781.557 Q36.7286 782.523 36.0201 783.199 Q35.2794 783.843 34.12 784.294 Q32.9284 784.745 31.4791 784.745 Q30.1909 784.745 25.8753 783.682 Q22.2038 782.748 21.302 782.748 Q20.3037 782.748 19.3697 783.07 Q18.4357 783.36 17.4695 784.101 Q16.5034 784.809 15.9237 786.323 Q15.3118 787.837 15.3118 789.962 L15.3118 797.788 L32.7995 802.168 Q32.8317 802.168 33.2826 802.265 Q33.7013 802.362 33.9267 802.362 Q34.3454 802.362 34.6031 802.104 Q34.8607 801.814 34.9895 801.105 Q35.0861 800.397 35.1184 799.849 Q35.1184 799.27 35.1184 798.078 Q35.1184 796.597 35.376 796.339 Q35.537 796.21 35.8269 796.21 Q36.2778 796.21 36.5998 796.339 Q36.8897 796.436 36.9863 796.693 Q37.0829 796.919 37.1151 797.08 Q37.1473 797.241 37.1473 797.531 L36.9541 805.904 L37.1473 814.213 Q37.1473 815.147 36.4066 815.147 Q35.7625 815.147 35.5048 814.922 Q35.215 814.696 35.1828 814.406 Q35.1184 814.117 35.1184 813.376 Q35.1184 811.766 35.0217 810.799 Q34.9251 809.833 34.7963 809.221 Q34.6353 808.577 34.1844 808.255 Q33.7335 807.901 33.347 807.74 Q32.9284 807.579 31.9944 807.353 L-3.43206 798.529 Q-4.49485 798.271 -4.65588 798.271 Q-5.2678 798.271 -5.42882 798.658 Q-5.62206 799.012 -5.71868 800.043 L-5.8475 802.555 Q-5.8475 803.328 -5.87971 803.65 Q-5.91191 803.94 -6.07294 804.165 Q-6.23397 804.39 -6.58824 804.39 Q-7.49 804.39 -7.68323 804.004 Q-7.90868 803.618 -7.90868 802.49 L-7.90868 783.682 Q-7.90868 777.273 -5.10677 773.215 Q-2.30486 769.125 1.97852 769.125 Q3.91088 769.125 5.7144 769.995 Q7.51793 770.864 8.93499 772.313 Q10.352 773.73 11.5437 775.631 Q12.7031 777.531 13.5082 779.56 Q14.2812 781.557 14.732 783.618 Q15.0541 782.716 15.5372 781.879 Q16.0203 781.009 16.922 779.914 Q17.8238 778.787 19.2731 778.11 Q20.7223 777.434 22.4937 777.434 Q23.7497 777.434 25.6176 777.692 Q30.9316 778.336 33.1216 778.336 Q35.215 778.336 36.1811 777.788 Q37.1473 777.241 37.1473 775.695 Q37.1473 774.181 35.7947 772.507 Q34.4098 770.8 31.157 769.705 Q30.2231 769.447 30.2231 768.835 Q30.2231 768.803 30.2231 768.771 Q30.2231 768.706 30.2875 768.578 Q30.3197 768.449 30.4163 768.352 Q30.4807 768.223 30.6417 768.159 Q30.8028 768.062 31.0282 768.062 Z" fill="#000000" fill-rule="nonzero" fill-opacity="1" /><path clip-path="url(#clip030)" d="M45.3606 743.941 Q45.5635 743.761 45.7664 743.761 Q45.9693 743.761 46.5555 744.212 Q47.1416 744.64 47.9306 745.564 Q48.7197 746.489 49.4636 747.684 Q50.2076 748.878 50.7036 750.637 Q51.2221 752.395 51.2221 754.244 Q51.2221 757.558 48.855 759.542 Q46.4878 761.503 42.8582 761.503 Q40.5362 761.503 38.4847 760.737 Q36.4106 759.97 34.9452 758.73 Q33.4799 757.468 32.4203 755.89 Q31.3382 754.289 30.8197 752.621 Q30.3012 750.952 30.3012 749.397 Q30.3012 747.12 31.4509 745.79 Q32.6007 744.46 34.2238 744.46 Q34.6071 744.46 35.0805 744.572 Q35.5539 744.663 36.2979 744.978 Q37.0418 745.271 37.7858 746.038 Q38.5072 746.804 38.9806 747.932 Q40.0402 750.434 40.0402 754.988 L40.0402 757.445 Q42.9484 758.167 44.8421 758.167 Q45.5861 758.167 46.3526 758.031 Q47.0965 757.896 48.0434 757.535 Q48.9902 757.152 49.5989 756.295 Q50.1851 755.416 50.1851 754.154 Q50.1851 753.748 50.1625 753.32 Q50.14 752.869 49.892 751.741 Q49.644 750.592 49.2157 749.577 Q48.7873 748.563 47.863 747.278 Q46.9162 745.97 45.6312 744.933 Q45.1577 744.572 45.1577 744.324 Q45.1577 744.122 45.3606 743.941 M34.2238 745.993 Q32.9839 745.993 32.1498 746.917 Q31.3156 747.819 31.3156 749.397 Q31.3156 749.893 31.4284 750.502 Q31.5411 751.11 32.0145 752.125 Q32.4879 753.117 33.277 753.996 Q34.0435 754.875 35.5539 755.754 Q37.0418 756.634 39.0257 757.152 L39.0257 755.258 Q39.0257 754.605 39.0257 754.131 Q39.0032 753.658 38.913 752.621 Q38.8228 751.561 38.665 750.795 Q38.4847 750.028 38.124 749.059 Q37.7633 748.089 37.2898 747.481 Q36.7939 746.849 36.0048 746.421 Q35.2158 745.993 34.2238 745.993 Z" fill="#000000" fill-rule="nonzero" fill-opacity="1" /><path clip-path="url(#clip030)" d="M614.73 65.6895 L641.466 65.6895 L641.466 18.9825 L621.819 18.9825 L621.819 27.5705 Q621.819 47.7845 617.282 61.193 Q616.35 63.9476 614.73 65.6895 M602.78 65.6895 Q608.208 63.1374 609.747 58.2763 Q613.677 45.7995 613.677 23.5195 L613.677 12.096 L649.649 12.096 L649.649 65.6895 L656.535 65.6895 L656.535 85.5794 L649.649 85.5794 L649.649 72.576 L606.79 72.576 L606.79 85.5794 L599.904 85.5794 L599.904 65.6895 L602.78 65.6895 Z" fill="#000000" fill-rule="nonzero" fill-opacity="1" /><path clip-path="url(#clip030)" d="M707.009 27.2059 L707.009 72.576 L699.596 72.576 L699.596 36.1584 L677.721 72.576 L668.161 72.576 L668.161 27.2059 L675.574 27.2059 L675.574 63.5425 L697.409 27.2059 L707.009 27.2059 Z" fill="#000000" fill-rule="nonzero" fill-opacity="1" /><path clip-path="url(#clip030)" d="M722.079 27.2059 L729.573 27.2059 L729.573 45.7185 L753.757 45.7185 L753.757 27.2059 L761.251 27.2059 L761.251 72.576 L753.757 72.576 L753.757 51.6733 L729.573 51.6733 L729.573 72.576 L722.079 72.576 L722.079 27.2059 Z" fill="#000000" fill-rule="nonzero" fill-opacity="1" /><path clip-path="url(#clip030)" d="M797.223 49.7694 Q788.19 49.7694 784.706 51.8354 Q781.222 53.9013 781.222 58.8839 Q781.222 62.8538 783.815 65.2034 Q786.448 67.5124 790.944 67.5124 Q797.142 67.5124 800.869 63.1374 Q804.636 58.7219 804.636 51.4303 L804.636 49.7694 L797.223 49.7694 M812.09 46.6907 L812.09 72.576 L804.636 72.576 L804.636 65.6895 Q802.084 69.8214 798.276 71.8063 Q794.468 73.7508 788.959 73.7508 Q781.992 73.7508 777.86 69.8619 Q773.768 65.9325 773.768 59.3701 Q773.768 51.7138 778.872 47.825 Q784.017 43.9361 794.185 43.9361 L804.636 43.9361 L804.636 43.2069 Q804.636 38.0623 801.233 35.2672 Q797.871 32.4315 791.754 32.4315 Q787.865 32.4315 784.179 33.3632 Q780.493 34.295 777.09 36.1584 L777.09 29.2718 Q781.181 27.692 785.03 26.9223 Q788.878 26.1121 792.524 26.1121 Q802.368 26.1121 807.229 31.2163 Q812.09 36.3204 812.09 46.6907 Z" fill="#000000" fill-rule="nonzero" fill-opacity="1" /><path clip-path="url(#clip030)" d="M827.159 27.2059 L838.056 27.2059 L850.938 57.5877 L863.86 27.2059 L874.676 27.2059 L874.676 72.576 L867.182 72.576 L867.182 34.3355 L854.665 63.8666 L847.211 63.8666 L834.653 34.3355 L834.653 72.576 L827.159 72.576 L827.159 27.2059 Z" fill="#000000" fill-rule="nonzero" fill-opacity="1" /><path clip-path="url(#clip030)" d="M928.594 27.2059 L928.594 72.576 L921.181 72.576 L921.181 36.1584 L899.306 72.576 L889.746 72.576 L889.746 27.2059 L897.159 27.2059 L897.159 63.5425 L918.993 27.2059 L928.594 27.2059 Z" fill="#000000" fill-rule="nonzero" fill-opacity="1" /><path clip-path="url(#clip030)" d="M943.663 27.2059 L951.076 27.2059 L951.076 48.5136 L972.101 27.2059 L981.256 27.2059 L963.918 44.7463 L983.484 72.576 L975.139 72.576 L959.057 49.6884 L951.076 57.7902 L951.076 72.576 L943.663 72.576 L943.663 27.2059 Z" fill="#000000" fill-rule="nonzero" fill-opacity="1" /><path clip-path="url(#clip030)" d="M1014.68 49.7694 Q1005.64 49.7694 1002.16 51.8354 Q998.675 53.9013 998.675 58.8839 Q998.675 62.8538 1001.27 65.2034 Q1003.9 67.5124 1008.4 67.5124 Q1014.59 67.5124 1018.32 63.1374 Q1022.09 58.7219 1022.09 51.4303 L1022.09 49.7694 L1014.68 49.7694 M1029.54 46.6907 L1029.54 72.576 L1022.09 72.576 L1022.09 65.6895 Q1019.54 69.8214 1015.73 71.8063 Q1011.92 73.7508 1006.41 73.7508 Q999.444 73.7508 995.312 69.8619 Q991.221 65.9325 991.221 59.3701 Q991.221 51.7138 996.325 47.825 Q1001.47 43.9361 1011.64 43.9361 L1022.09 43.9361 L1022.09 43.2069 Q1022.09 38.0623 1018.69 35.2672 Q1015.32 32.4315 1009.21 32.4315 Q1005.32 32.4315 1001.63 33.3632 Q997.945 34.295 994.543 36.1584 L994.543 29.2718 Q998.634 27.692 1002.48 26.9223 Q1006.33 26.1121 1009.98 26.1121 Q1019.82 26.1121 1024.68 31.2163 Q1029.54 36.3204 1029.54 46.6907 Z" fill="#000000" fill-rule="nonzero" fill-opacity="1" /><path clip-path="url(#clip030)" d="M1068.03 63.9476 Q1074.43 67.4314 1080.79 67.4314 Q1086.74 67.4314 1090.99 63.9881 Q1095.25 60.5043 1096.02 51.6733 L1073.01 51.6733 L1073.01 45.7185 L1095.77 45.7185 Q1095.29 41.4651 1092.05 36.9686 Q1088.85 32.4315 1080.79 32.4315 Q1074.55 32.4315 1068.03 35.9153 L1068.03 28.9478 Q1074.39 26.1121 1081.11 26.1121 Q1091.72 26.1121 1097.8 32.5531 Q1103.92 38.9535 1103.92 49.9314 Q1103.92 60.8689 1097.96 67.3098 Q1092.05 73.7508 1081.64 73.7508 Q1073.98 73.7508 1068.03 70.8341 L1068.03 63.9476 Z" fill="#000000" fill-rule="nonzero" fill-opacity="1" /><path clip-path="url(#clip030)" d="M1121.25 49.9314 Q1121.25 59.4511 1124.17 63.502 Q1127.13 67.5124 1132.11 67.5124 Q1136.08 67.5124 1140.7 60.7069 L1140.7 39.156 Q1136.08 32.3505 1132.11 32.3505 Q1127.13 32.3505 1124.17 36.4014 Q1121.25 40.4118 1121.25 49.9314 M1140.7 89.8329 L1140.7 66.7832 Q1138.39 70.5911 1135.72 72.1709 Q1133.08 73.7508 1129.72 73.7508 Q1122.96 73.7508 1118.22 67.5124 Q1113.52 61.2335 1113.52 50.0935 Q1113.52 38.9535 1118.22 32.5531 Q1122.96 26.1121 1129.72 26.1121 Q1133.08 26.1121 1135.72 27.6515 Q1138.39 29.1908 1140.7 32.9987 L1140.7 12.096 L1148.19 12.096 L1148.19 32.9987 Q1150.5 29.1908 1153.14 27.6515 Q1155.81 26.1121 1159.17 26.1121 Q1165.94 26.1121 1170.64 32.5531 Q1175.37 38.9535 1175.37 50.0935 Q1175.37 61.2335 1170.64 67.5124 Q1165.94 73.7508 1159.17 73.7508 Q1155.81 73.7508 1153.14 72.1709 Q1150.5 70.5911 1148.19 66.7832 L1148.19 89.8329 L1140.7 89.8329 M1167.64 49.9314 Q1167.64 40.4118 1164.68 36.4014 Q1161.76 32.3505 1156.78 32.3505 Q1152.81 32.3505 1148.19 39.156 L1148.19 60.7069 Q1152.81 67.5124 1156.78 67.5124 Q1161.76 67.5124 1164.68 63.502 Q1167.64 59.4511 1167.64 49.9314 Z" fill="#000000" fill-rule="nonzero" fill-opacity="1" /><path clip-path="url(#clip030)" d="M1192.19 49.9314 Q1192.19 59.4511 1195.1 63.502 Q1198.06 67.5124 1203.04 67.5124 Q1207.01 67.5124 1211.63 60.7069 L1211.63 39.156 Q1207.01 32.3505 1203.04 32.3505 Q1198.06 32.3505 1195.1 36.4014 Q1192.19 40.4118 1192.19 49.9314 M1211.63 89.8329 L1211.63 66.7832 Q1209.32 70.5911 1206.65 72.1709 Q1204.01 73.7508 1200.65 73.7508 Q1193.89 73.7508 1189.15 67.5124 Q1184.45 61.2335 1184.45 50.0935 Q1184.45 38.9535 1189.15 32.5531 Q1193.89 26.1121 1200.65 26.1121 Q1204.01 26.1121 1206.65 27.6515 Q1209.32 29.1908 1211.63 32.9987 L1211.63 12.096 L1219.12 12.096 L1219.12 32.9987 Q1221.43 29.1908 1224.07 27.6515 Q1226.74 26.1121 1230.1 26.1121 Q1236.87 26.1121 1241.57 32.5531 Q1246.31 38.9535 1246.31 50.0935 Q1246.31 61.2335 1241.57 67.5124 Q1236.87 73.7508 1230.1 73.7508 Q1226.74 73.7508 1224.07 72.1709 Q1221.43 70.5911 1219.12 66.7832 L1219.12 89.8329 L1211.63 89.8329 M1238.57 49.9314 Q1238.57 40.4118 1235.61 36.4014 Q1232.7 32.3505 1227.71 32.3505 Q1223.74 32.3505 1219.12 39.156 L1219.12 60.7069 Q1223.74 67.5124 1227.71 67.5124 Q1232.7 67.5124 1235.61 63.502 Q1238.57 59.4511 1238.57 49.9314 Z" fill="#000000" fill-rule="nonzero" fill-opacity="1" /><path clip-path="url(#clip030)" d="M1297.47 48.0275 L1297.47 51.6733 L1263.2 51.6733 Q1263.68 59.3701 1267.82 63.421 Q1271.99 67.4314 1279.4 67.4314 Q1283.7 67.4314 1287.71 66.3781 Q1291.76 65.3249 1295.73 63.2184 L1295.73 70.267 Q1291.72 71.9684 1287.5 72.8596 Q1283.29 73.7508 1278.96 73.7508 Q1268.1 73.7508 1261.74 67.4314 Q1255.42 61.1119 1255.42 50.3365 Q1255.42 39.1965 1261.42 32.6746 Q1267.45 26.1121 1277.66 26.1121 Q1286.82 26.1121 1292.12 32.0264 Q1297.47 37.9003 1297.47 48.0275 M1290.02 45.84 Q1289.93 39.7232 1286.57 36.0774 Q1283.25 32.4315 1277.74 32.4315 Q1271.5 32.4315 1267.74 35.9558 Q1264.01 39.4801 1263.44 45.8805 L1290.02 45.84 Z" fill="#000000" fill-rule="nonzero" fill-opacity="1" /><path clip-path="url(#clip030)" d="M1309.42 27.2059 L1316.83 27.2059 L1316.83 48.5136 L1337.86 27.2059 L1347.01 27.2059 L1329.67 44.7463 L1349.24 72.576 L1340.89 72.576 L1324.81 49.6884 L1316.83 57.7902 L1316.83 72.576 L1309.42 72.576 L1309.42 27.2059 Z" fill="#000000" fill-rule="nonzero" fill-opacity="1" /><path clip-path="url(#clip030)" d="M1354.42 27.2059 L1397.89 27.2059 L1397.89 33.1607 L1379.82 33.1607 L1379.82 72.576 L1372.49 72.576 L1372.49 33.1607 L1354.42 33.1607 L1354.42 27.2059 Z" fill="#000000" fill-rule="nonzero" fill-opacity="1" /><path clip-path="url(#clip030)" d="M1446.7 27.2059 L1446.7 72.576 L1439.29 72.576 L1439.29 36.1584 L1417.42 72.576 L1407.86 72.576 L1407.86 27.2059 L1415.27 27.2059 L1415.27 63.5425 L1437.1 27.2059 L1446.7 27.2059 Z" fill="#000000" fill-rule="nonzero" fill-opacity="1" /><path clip-path="url(#clip030)" d="M1469.23 51.6733 L1469.23 66.6212 L1479.84 66.6212 Q1484.95 66.6212 1487.62 64.7172 Q1490.29 62.7728 1490.29 59.127 Q1490.29 55.4812 1487.62 53.5773 Q1484.95 51.6733 1479.84 51.6733 L1469.23 51.6733 M1469.23 33.1607 L1469.23 45.7185 L1479.03 45.7185 Q1483.24 45.7185 1485.92 44.0576 Q1488.59 42.3563 1488.59 39.3586 Q1488.59 36.3609 1485.92 34.7811 Q1483.24 33.1607 1479.03 33.1607 L1469.23 33.1607 M1461.77 27.2059 L1479.52 27.2059 Q1487.5 27.2059 1491.79 30.1225 Q1496.09 33.0392 1496.09 38.4269 Q1496.09 42.5993 1493.9 45.0704 Q1491.71 47.5009 1487.42 48.1085 Q1492.56 49.0808 1495.4 52.1594 Q1498.23 55.2381 1498.23 59.8562 Q1498.23 65.9325 1493.53 69.2543 Q1488.87 72.576 1480.21 72.576 L1461.77 72.576 L1461.77 27.2059 Z" fill="#000000" fill-rule="nonzero" fill-opacity="1" /><path clip-path="url(#clip030)" d="M1510.67 27.2059 L1518.16 27.2059 L1518.16 45.7185 L1542.35 45.7185 L1542.35 27.2059 L1549.84 27.2059 L1549.84 72.576 L1542.35 72.576 L1542.35 51.6733 L1518.16 51.6733 L1518.16 72.576 L1510.67 72.576 L1510.67 27.2059 Z" fill="#000000" fill-rule="nonzero" fill-opacity="1" /><path clip-path="url(#clip030)" d="M1582.77 32.4315 Q1576.78 32.4315 1573.3 37.1306 Q1569.81 41.7891 1569.81 49.9314 Q1569.81 58.0738 1573.25 62.7728 Q1576.74 67.4314 1582.77 67.4314 Q1588.73 67.4314 1592.21 62.7323 Q1595.7 58.0333 1595.7 49.9314 Q1595.7 41.8701 1592.21 37.1711 Q1588.73 32.4315 1582.77 32.4315 M1582.77 26.1121 Q1592.5 26.1121 1598.05 32.4315 Q1603.6 38.7509 1603.6 49.9314 Q1603.6 61.0714 1598.05 67.4314 Q1592.5 73.7508 1582.77 73.7508 Q1573.01 73.7508 1567.46 67.4314 Q1561.95 61.0714 1561.95 49.9314 Q1561.95 38.7509 1567.46 32.4315 Q1573.01 26.1121 1582.77 26.1121 Z" fill="#000000" fill-rule="nonzero" fill-opacity="1" /><path clip-path="url(#clip030)" d="M1615.67 72.576 L1615.67 27.2059 L1647.67 27.2059 L1647.67 33.1607 L1623.16 33.1607 L1623.16 72.576 L1615.67 72.576 Z" fill="#000000" fill-rule="nonzero" fill-opacity="1" /><path clip-path="url(#clip030)" d="M1677.12 32.4315 Q1671.12 32.4315 1667.64 37.1306 Q1664.16 41.7891 1664.16 49.9314 Q1664.16 58.0738 1667.6 62.7728 Q1671.08 67.4314 1677.12 67.4314 Q1683.07 67.4314 1686.56 62.7323 Q1690.04 58.0333 1690.04 49.9314 Q1690.04 41.8701 1686.56 37.1711 Q1683.07 32.4315 1677.12 32.4315 M1677.12 26.1121 Q1686.84 26.1121 1692.39 32.4315 Q1697.94 38.7509 1697.94 49.9314 Q1697.94 61.0714 1692.39 67.4314 Q1686.84 73.7508 1677.12 73.7508 Q1667.36 73.7508 1661.81 67.4314 Q1656.3 61.0714 1656.3 49.9314 Q1656.3 38.7509 1661.81 32.4315 Q1667.36 26.1121 1677.12 26.1121 Z" fill="#000000" fill-rule="nonzero" fill-opacity="1" /><path clip-path="url(#clip030)" d="M1743.88 65.7705 L1743.88 89.8329 L1736.38 89.8329 L1736.38 27.2059 L1743.88 27.2059 L1743.88 34.0924 Q1746.23 30.0415 1749.79 28.0971 Q1753.4 26.1121 1758.38 26.1121 Q1766.64 26.1121 1771.79 32.6746 Q1776.97 39.2371 1776.97 49.9314 Q1776.97 60.6258 1771.79 67.1883 Q1766.64 73.7508 1758.38 73.7508 Q1753.4 73.7508 1749.79 71.8063 Q1746.23 69.8214 1743.88 65.7705 M1769.24 49.9314 Q1769.24 41.7081 1765.83 37.0496 Q1762.47 32.3505 1756.56 32.3505 Q1750.64 32.3505 1747.24 37.0496 Q1743.88 41.7081 1743.88 49.9314 Q1743.88 58.1548 1747.24 62.8538 Q1750.64 67.5124 1756.56 67.5124 Q1762.47 67.5124 1765.83 62.8538 Q1769.24 58.1548 1769.24 49.9314 Z" fill="#000000" fill-rule="nonzero" fill-opacity="1" /><path clip-path="url(#clip030)" d="M1828.14 48.0275 L1828.14 51.6733 L1793.87 51.6733 Q1794.35 59.3701 1798.49 63.421 Q1802.66 67.4314 1810.07 67.4314 Q1814.36 67.4314 1818.37 66.3781 Q1822.43 65.3249 1826.4 63.2184 L1826.4 70.267 Q1822.39 71.9684 1818.17 72.8596 Q1813.96 73.7508 1809.63 73.7508 Q1798.77 73.7508 1792.41 67.4314 Q1786.09 61.1119 1786.09 50.3365 Q1786.09 39.1965 1792.08 32.6746 Q1798.12 26.1121 1808.33 26.1121 Q1817.48 26.1121 1822.79 32.0264 Q1828.14 37.9003 1828.14 48.0275 M1820.68 45.84 Q1820.6 39.7232 1817.24 36.0774 Q1813.92 32.4315 1808.41 32.4315 Q1802.17 32.4315 1798.4 35.9558 Q1794.68 39.4801 1794.11 45.8805 L1820.68 45.84 Z" fill="#000000" fill-rule="nonzero" fill-opacity="1" /><path clip-path="url(#clip030)" d="M1879.26 27.2059 L1879.26 72.576 L1871.77 72.576 L1871.77 33.1607 L1847.58 33.1607 L1847.58 72.576 L1840.09 72.576 L1840.09 27.2059 L1879.26 27.2059 Z" fill="#000000" fill-rule="nonzero" fill-opacity="1" /><path clip-path="url(#clip030)" d="M1901.82 65.7705 L1901.82 89.8329 L1894.33 89.8329 L1894.33 27.2059 L1901.82 27.2059 L1901.82 34.0924 Q1904.17 30.0415 1907.74 28.0971 Q1911.34 26.1121 1916.33 26.1121 Q1924.59 26.1121 1929.73 32.6746 Q1934.92 39.2371 1934.92 49.9314 Q1934.92 60.6258 1929.73 67.1883 Q1924.59 73.7508 1916.33 73.7508 Q1911.34 73.7508 1907.74 71.8063 Q1904.17 69.8214 1901.82 65.7705 M1927.18 49.9314 Q1927.18 41.7081 1923.78 37.0496 Q1920.42 32.3505 1914.5 32.3505 Q1908.59 32.3505 1905.19 37.0496 Q1901.82 41.7081 1901.82 49.9314 Q1901.82 58.1548 1905.19 62.8538 Q1908.59 67.5124 1914.5 67.5124 Q1920.42 67.5124 1923.78 62.8538 Q1927.18 58.1548 1927.18 49.9314 Z" fill="#000000" fill-rule="nonzero" fill-opacity="1" /><path clip-path="url(#clip030)" d="M1964.86 32.4315 Q1958.86 32.4315 1955.38 37.1306 Q1951.89 41.7891 1951.89 49.9314 Q1951.89 58.0738 1955.34 62.7728 Q1958.82 67.4314 1964.86 67.4314 Q1970.81 67.4314 1974.29 62.7323 Q1977.78 58.0333 1977.78 49.9314 Q1977.78 41.8701 1974.29 37.1711 Q1970.81 32.4315 1964.86 32.4315 M1964.86 26.1121 Q1974.58 26.1121 1980.13 32.4315 Q1985.68 38.7509 1985.68 49.9314 Q1985.68 61.0714 1980.13 67.4314 Q1974.58 73.7508 1964.86 73.7508 Q1955.09 73.7508 1949.54 67.4314 Q1944.03 61.0714 1944.03 49.9314 Q1944.03 38.7509 1949.54 32.4315 Q1955.09 26.1121 1964.86 26.1121 Z" fill="#000000" fill-rule="nonzero" fill-opacity="1" /><path clip-path="url(#clip030)" d="M2008.16 66.6212 L2029.79 66.6212 L2029.79 33.1607 L2014.11 33.1607 L2014.11 38.832 Q2014.11 55.5217 2009.33 64.4337 L2008.16 66.6212 M1997.34 66.6212 Q2001.03 65.0008 2002.65 61.5575 Q2006.62 53.0101 2006.62 35.7938 L2006.62 27.2059 L2037.29 27.2059 L2037.29 66.6212 L2043.24 66.6212 L2043.24 84.0401 L2037.29 84.0401 L2037.29 72.576 L2000.5 72.576 L2000.5 84.0401 L1994.55 84.0401 L1994.55 66.6212 L1997.34 66.6212 Z" fill="#000000" fill-rule="nonzero" fill-opacity="1" /><path clip-path="url(#clip030)" d="M2074.27 76.7889 Q2071.11 84.8907 2068.11 87.3618 Q2065.12 89.8329 2060.09 89.8329 L2054.14 89.8329 L2054.14 83.5945 L2058.51 83.5945 Q2061.59 83.5945 2063.29 82.1361 Q2064.99 80.6778 2067.06 75.2496 L2068.4 71.8468 L2050.05 27.2059 L2057.95 27.2059 L2072.12 62.6918 L2086.3 27.2059 L2094.2 27.2059 L2074.27 76.7889 Z" fill="#000000" fill-rule="nonzero" fill-opacity="1" /><path clip-path="url(#clip030)" d="M2104.21 27.2059 L2111.62 27.2059 L2111.62 48.5136 L2132.64 27.2059 L2141.8 27.2059 L2124.46 44.7463 L2144.03 72.576 L2135.68 72.576 L2119.6 49.6884 L2111.62 57.7902 L2111.62 72.576 L2104.21 72.576 L2104.21 27.2059 Z" fill="#000000" fill-rule="nonzero" fill-opacity="1" /><path clip-path="url(#clip030)" d="M2149.21 27.2059 L2192.68 27.2059 L2192.68 33.1607 L2174.61 33.1607 L2174.61 72.576 L2167.28 72.576 L2167.28 33.1607 L2149.21 33.1607 L2149.21 27.2059 Z" fill="#000000" fill-rule="nonzero" fill-opacity="1" /><path clip-path="url(#clip030)" d="M2241.49 27.2059 L2241.49 72.576 L2234.08 72.576 L2234.08 36.1584 L2212.2 72.576 L2202.64 72.576 L2202.64 27.2059 L2210.06 27.2059 L2210.06 63.5425 L2231.89 27.2059 L2241.49 27.2059 Z" fill="#000000" fill-rule="nonzero" fill-opacity="1" /><path clip-path="url(#clip030)" d="M2264.01 51.6733 L2264.01 66.6212 L2274.63 66.6212 Q2279.73 66.6212 2282.41 64.7172 Q2285.08 62.7728 2285.08 59.127 Q2285.08 55.4812 2282.41 53.5773 Q2279.73 51.6733 2274.63 51.6733 L2264.01 51.6733 M2264.01 33.1607 L2264.01 45.7185 L2273.82 45.7185 Q2278.03 45.7185 2280.7 44.0576 Q2283.38 42.3563 2283.38 39.3586 Q2283.38 36.3609 2280.7 34.7811 Q2278.03 33.1607 2273.82 33.1607 L2264.01 33.1607 M2256.56 27.2059 L2274.3 27.2059 Q2282.28 27.2059 2286.58 30.1225 Q2290.87 33.0392 2290.87 38.4269 Q2290.87 42.5993 2288.68 45.0704 Q2286.5 47.5009 2282.2 48.1085 Q2287.35 49.0808 2290.18 52.1594 Q2293.02 55.2381 2293.02 59.8562 Q2293.02 65.9325 2288.32 69.2543 Q2283.66 72.576 2274.99 72.576 L2256.56 72.576 L2256.56 27.2059 Z" fill="#000000" fill-rule="nonzero" fill-opacity="1" /><path clip-path="url(#clip030)" d="M2305.46 27.2059 L2312.95 27.2059 L2312.95 45.7185 L2337.13 45.7185 L2337.13 27.2059 L2344.63 27.2059 L2344.63 72.576 L2337.13 72.576 L2337.13 51.6733 L2312.95 51.6733 L2312.95 72.576 L2305.46 72.576 L2305.46 27.2059 Z" fill="#000000" fill-rule="nonzero" fill-opacity="1" /><path clip-path="url(#clip030)" d="M2377.56 32.4315 Q2371.57 32.4315 2368.08 37.1306 Q2364.6 41.7891 2364.6 49.9314 Q2364.6 58.0738 2368.04 62.7728 Q2371.53 67.4314 2377.56 67.4314 Q2383.52 67.4314 2387 62.7323 Q2390.48 58.0333 2390.48 49.9314 Q2390.48 41.8701 2387 37.1711 Q2383.52 32.4315 2377.56 32.4315 M2377.56 26.1121 Q2387.28 26.1121 2392.83 32.4315 Q2398.38 38.7509 2398.38 49.9314 Q2398.38 61.0714 2392.83 67.4314 Q2387.28 73.7508 2377.56 73.7508 Q2367.8 73.7508 2362.25 67.4314 Q2356.74 61.0714 2356.74 49.9314 Q2356.74 38.7509 2362.25 32.4315 Q2367.8 26.1121 2377.56 26.1121 Z" fill="#000000" fill-rule="nonzero" fill-opacity="1" /><path clip-path="url(#clip030)" d="M2410.46 72.576 L2410.46 27.2059 L2442.46 27.2059 L2442.46 33.1607 L2417.95 33.1607 L2417.95 72.576 L2410.46 72.576 Z" fill="#000000" fill-rule="nonzero" fill-opacity="1" /><path clip-path="url(#clip030)" d="M2471.91 32.4315 Q2465.91 32.4315 2462.43 37.1306 Q2458.94 41.7891 2458.94 49.9314 Q2458.94 58.0738 2462.39 62.7728 Q2465.87 67.4314 2471.91 67.4314 Q2477.86 67.4314 2481.35 62.7323 Q2484.83 58.0333 2484.83 49.9314 Q2484.83 41.8701 2481.35 37.1711 Q2477.86 32.4315 2471.91 32.4315 M2471.91 26.1121 Q2481.63 26.1121 2487.18 32.4315 Q2492.73 38.7509 2492.73 49.9314 Q2492.73 61.0714 2487.18 67.4314 Q2481.63 73.7508 2471.91 73.7508 Q2462.14 73.7508 2456.59 67.4314 Q2451.09 61.0714 2451.09 49.9314 Q2451.09 38.7509 2456.59 32.4315 Q2462.14 26.1121 2471.91 26.1121 Z" fill="#000000" fill-rule="nonzero" fill-opacity="1" /><path clip-path="url(#clip030)" d="M2557.67 72.576 L2557.67 53.4962 L2543.77 53.4962 Q2537.57 53.4962 2533.44 49.6479 Q2529.71 46.1641 2529.71 38.7104 L2529.71 27.2059 L2537.17 27.2059 L2537.17 38.0218 Q2537.17 42.7613 2539.27 45.1514 Q2541.42 47.5414 2545.63 47.5414 L2557.67 47.5414 L2557.67 27.2059 L2565.12 27.2059 L2565.12 72.576 L2557.67 72.576 Z" fill="#000000" fill-rule="nonzero" fill-opacity="1" /><path clip-path="url(#clip030)" d="M2619.04 27.2059 L2619.04 72.576 L2611.62 72.576 L2611.62 36.1584 L2589.75 72.576 L2580.19 72.576 L2580.19 27.2059 L2587.6 27.2059 L2587.6 63.5425 L2609.44 27.2059 L2619.04 27.2059 Z" fill="#000000" fill-rule="nonzero" fill-opacity="1" /><path clip-path="url(#clip030)" d="M2667.04 28.9478 L2667.04 35.9153 Q2663.88 34.1734 2660.68 33.3227 Q2657.52 32.4315 2654.28 32.4315 Q2647.03 32.4315 2643.02 37.0496 Q2639.01 41.6271 2639.01 49.9314 Q2639.01 58.2358 2643.02 62.8538 Q2647.03 67.4314 2654.28 67.4314 Q2657.52 67.4314 2660.68 66.5807 Q2663.88 65.6895 2667.04 63.9476 L2667.04 70.8341 Q2663.92 72.2924 2660.56 73.0216 Q2657.24 73.7508 2653.47 73.7508 Q2643.22 73.7508 2637.18 67.3098 Q2631.15 60.8689 2631.15 49.9314 Q2631.15 38.832 2637.22 32.472 Q2643.34 26.1121 2653.96 26.1121 Q2657.4 26.1121 2660.68 26.8413 Q2663.96 27.5299 2667.04 28.9478 Z" fill="#000000" fill-rule="nonzero" fill-opacity="1" /><path clip-path="url(#clip030)" d="M2675.26 72.576 L2675.26 66.3781 Q2682.64 65.2439 2684.9 60.1397 Q2687.66 52.9696 2687.66 34.619 L2687.66 27.2059 L2718.32 27.2059 L2718.32 72.576 L2710.87 72.576 L2710.87 33.1607 L2695.11 33.1607 L2695.11 37.6572 Q2695.11 55.1571 2691.55 63.0159 Q2687.74 71.4012 2675.26 72.576 Z" fill="#000000" fill-rule="nonzero" fill-opacity="1" /><path clip-path="url(#clip030)" d="M2753.65 49.7694 Q2744.61 49.7694 2741.13 51.8354 Q2737.65 53.9013 2737.65 58.8839 Q2737.65 62.8538 2740.24 65.2034 Q2742.87 67.5124 2747.37 67.5124 Q2753.57 67.5124 2757.29 63.1374 Q2761.06 58.7219 2761.06 51.4303 L2761.06 49.7694 L2753.65 49.7694 M2768.51 46.6907 L2768.51 72.576 L2761.06 72.576 L2761.06 65.6895 Q2758.51 69.8214 2754.7 71.8063 Q2750.89 73.7508 2745.38 73.7508 Q2738.42 73.7508 2734.28 69.8619 Q2730.19 65.9325 2730.19 59.3701 Q2730.19 51.7138 2735.3 47.825 Q2740.44 43.9361 2750.61 43.9361 L2761.06 43.9361 L2761.06 43.2069 Q2761.06 38.0623 2757.66 35.2672 Q2754.3 32.4315 2748.18 32.4315 Q2744.29 32.4315 2740.6 33.3632 Q2736.92 34.295 2733.51 36.1584 L2733.51 29.2718 Q2737.61 27.692 2741.45 26.9223 Q2745.3 26.1121 2748.95 26.1121 Q2758.79 26.1121 2763.65 31.2163 Q2768.51 36.3204 2768.51 46.6907 Z" fill="#000000" fill-rule="nonzero" fill-opacity="1" /><polyline clip-path="url(#clip031)" style="stroke:#008000; stroke-linecap:round; stroke-linejoin:round; stroke-width:8; stroke-opacity:1; fill:none" points="298.787,146.145 305.715,146.954 335.718,150.69 395.206,159.336 479.6,174.986 588.422,202.677 726.891,254.219 899.018,351.75 1108.67,526.738 1357.21,783.808 1620.68,1031.01 1921.35,1216.89 2268.13,1327.32 2605.43,1377.26 3069.63,1405.91 "/>
<polyline clip-path="url(#clip031)" style="stroke:#ff0000; stroke-linecap:round; stroke-linejoin:round; stroke-width:6; stroke-opacity:1; fill:none" stroke-dasharray="24, 15" points="-2721.43,937.373 6089.85,937.373 "/>
<path clip-path="url(#clip030)" d="M2346.03 463.904 L3054.85 463.904 L3054.85 152.864 L2346.03 152.864  Z" fill="#ffffff" fill-rule="evenodd" fill-opacity="1"/>
<polyline clip-path="url(#clip030)" style="stroke:#000000; stroke-linecap:round; stroke-linejoin:round; stroke-width:4; stroke-opacity:1; fill:none" points="2346.03,463.904 3054.85,463.904 3054.85,152.864 2346.03,152.864 2346.03,463.904 "/>
<polyline clip-path="url(#clip030)" style="stroke:#008000; stroke-linecap:round; stroke-linejoin:round; stroke-width:8; stroke-opacity:1; fill:none" points="2378.66,256.544 2574.47,256.544 "/>
<path clip-path="url(#clip030)" d="M2636.13 241.881 Q2636.13 241.108 2635.91 240.476 Q2635.73 239.82 2635.42 239.375 Q2635.14 238.906 2634.6 238.555 Q2634.06 238.18 2633.62 237.946 Q2633.17 237.712 2632.42 237.571 Q2631.68 237.407 2631.18 237.337 Q2630.69 237.243 2629.85 237.197 Q2629 237.15 2628.58 237.15 Q2628.19 237.15 2627.39 237.15 Q2624.88 237.15 2624.46 237.197 Q2623.83 237.29 2623.59 237.665 Q2623.36 238.016 2623.13 238.977 L2620.01 251.484 L2625.37 251.484 Q2628.3 251.484 2630.32 250.665 Q2632.33 249.845 2633.48 248.697 Q2634.74 247.432 2635.42 245.394 Q2636.13 243.357 2636.13 241.881 M2641.35 263.968 Q2641.35 264.226 2641.14 264.812 Q2640.95 265.397 2640.48 266.217 Q2640.01 267.013 2639.38 267.739 Q2638.75 268.466 2637.74 268.957 Q2636.73 269.473 2635.59 269.473 Q2635.31 269.473 2635.02 269.449 Q2634.74 269.449 2634.04 269.332 Q2633.36 269.239 2632.8 269.051 Q2632.24 268.887 2631.53 268.489 Q2630.83 268.114 2630.34 267.599 Q2629.87 267.06 2629.54 266.217 Q2629.22 265.35 2629.22 264.296 Q2629.22 263.359 2629.99 260.221 Q2630.67 257.551 2630.67 256.895 Q2630.67 256.169 2630.43 255.49 Q2630.22 254.81 2629.68 254.108 Q2629.17 253.405 2628.07 252.983 Q2626.97 252.538 2625.42 252.538 L2619.73 252.538 L2616.54 265.257 Q2616.54 265.28 2616.47 265.608 Q2616.4 265.913 2616.4 266.076 Q2616.4 266.381 2616.59 266.568 Q2616.8 266.756 2617.32 266.849 Q2617.83 266.92 2618.23 266.943 Q2618.65 266.943 2619.52 266.943 Q2620.6 266.943 2620.78 267.13 Q2620.88 267.248 2620.88 267.458 Q2620.88 267.786 2620.78 268.021 Q2620.71 268.231 2620.53 268.302 Q2620.36 268.372 2620.24 268.395 Q2620.13 268.419 2619.92 268.419 L2613.83 268.278 L2607.78 268.419 Q2607.1 268.419 2607.1 267.88 Q2607.1 267.412 2607.27 267.224 Q2607.43 267.013 2607.64 266.99 Q2607.85 266.943 2608.39 266.943 Q2609.56 266.943 2610.27 266.873 Q2610.97 266.803 2611.41 266.709 Q2611.88 266.592 2612.12 266.264 Q2612.37 265.936 2612.49 265.655 Q2612.61 265.35 2612.77 264.671 L2619.19 238.906 Q2619.38 238.133 2619.38 238.016 Q2619.38 237.571 2619.1 237.454 Q2618.84 237.314 2618.09 237.243 L2616.26 237.15 Q2615.7 237.15 2615.47 237.126 Q2615.26 237.103 2615.09 236.986 Q2614.93 236.869 2614.93 236.611 Q2614.93 235.955 2615.21 235.815 Q2615.49 235.651 2616.31 235.651 L2629.99 235.651 Q2634.65 235.651 2637.6 237.688 Q2640.58 239.726 2640.58 242.841 Q2640.58 244.247 2639.94 245.558 Q2639.31 246.87 2638.26 247.901 Q2637.23 248.931 2635.84 249.798 Q2634.46 250.641 2632.99 251.227 Q2631.53 251.789 2630.04 252.117 Q2630.69 252.351 2631.3 252.702 Q2631.93 253.054 2632.73 253.709 Q2633.55 254.365 2634.04 255.419 Q2634.53 256.473 2634.53 257.762 Q2634.53 258.675 2634.35 260.033 Q2633.88 263.898 2633.88 265.491 Q2633.88 267.013 2634.27 267.716 Q2634.67 268.419 2635.8 268.419 Q2636.9 268.419 2638.12 267.435 Q2639.36 266.428 2640.15 264.062 Q2640.34 263.383 2640.79 263.383 Q2640.81 263.383 2640.83 263.383 Q2640.88 263.383 2640.97 263.43 Q2641.07 263.453 2641.14 263.523 Q2641.23 263.57 2641.28 263.687 Q2641.35 263.804 2641.35 263.968 Z" fill="#000000" fill-rule="nonzero" fill-opacity="1" /><path clip-path="url(#clip030)" d="M2658.89 274.395 Q2659.02 274.542 2659.02 274.69 Q2659.02 274.837 2658.7 275.264 Q2658.38 275.69 2657.71 276.264 Q2657.04 276.838 2656.17 277.379 Q2655.3 277.92 2654.02 278.28 Q2652.74 278.657 2651.4 278.657 Q2648.99 278.657 2647.55 276.936 Q2646.12 275.214 2646.12 272.575 Q2646.12 270.886 2646.68 269.394 Q2647.24 267.886 2648.14 266.82 Q2649.06 265.754 2650.2 264.983 Q2651.37 264.196 2652.58 263.819 Q2653.79 263.442 2654.93 263.442 Q2656.58 263.442 2657.55 264.278 Q2658.52 265.115 2658.52 266.295 Q2658.52 266.574 2658.43 266.918 Q2658.37 267.262 2658.14 267.804 Q2657.93 268.345 2657.37 268.886 Q2656.81 269.41 2655.99 269.755 Q2654.17 270.525 2650.86 270.525 L2649.07 270.525 Q2648.55 272.64 2648.55 274.017 Q2648.55 274.559 2648.65 275.116 Q2648.74 275.657 2649.01 276.346 Q2649.29 277.034 2649.91 277.477 Q2650.55 277.903 2651.47 277.903 Q2651.76 277.903 2652.07 277.887 Q2652.4 277.87 2653.22 277.69 Q2654.06 277.51 2654.79 277.198 Q2655.53 276.887 2656.47 276.215 Q2657.42 275.526 2658.17 274.591 Q2658.43 274.247 2658.61 274.247 Q2658.76 274.247 2658.89 274.395 M2657.4 266.295 Q2657.4 265.393 2656.73 264.787 Q2656.07 264.18 2654.93 264.18 Q2654.56 264.18 2654.12 264.262 Q2653.68 264.344 2652.94 264.688 Q2652.22 265.033 2651.58 265.606 Q2650.94 266.164 2650.3 267.262 Q2649.66 268.345 2649.29 269.787 L2650.66 269.787 Q2651.14 269.787 2651.48 269.787 Q2651.83 269.771 2652.58 269.705 Q2653.35 269.64 2653.91 269.525 Q2654.47 269.394 2655.17 269.132 Q2655.88 268.869 2656.32 268.525 Q2656.78 268.164 2657.09 267.59 Q2657.4 267.017 2657.4 266.295 Z" fill="#000000" fill-rule="nonzero" fill-opacity="1" /><path clip-path="url(#clip030)" d="M2664.02 256.426 Q2664.02 248.322 2667.04 241.787 Q2668.33 239.047 2670.13 236.752 Q2671.93 234.456 2673.13 233.449 Q2674.32 232.442 2674.65 232.442 Q2675.12 232.442 2675.14 232.91 Q2675.14 233.145 2674.51 233.73 Q2666.78 241.6 2666.8 256.426 Q2666.8 271.3 2674.32 278.865 Q2675.14 279.685 2675.14 279.943 Q2675.14 280.411 2674.65 280.411 Q2674.32 280.411 2673.17 279.451 Q2672.03 278.49 2670.25 276.289 Q2668.47 274.087 2667.18 271.393 Q2664.02 264.859 2664.02 256.426 Z" fill="#000000" fill-rule="nonzero" fill-opacity="1" /><path clip-path="url(#clip030)" d="M2693.52 248.275 Q2693.52 248.931 2693.21 249.095 Q2692.91 249.236 2692.06 249.236 L2687.57 249.236 L2684.01 263.383 Q2683.73 264.624 2683.73 265.678 Q2683.73 266.849 2684.08 267.365 Q2684.45 267.88 2685.22 267.88 Q2686.75 267.88 2688.39 266.498 Q2690.05 265.116 2691.45 261.743 Q2691.64 261.298 2691.74 261.205 Q2691.85 261.087 2692.16 261.087 Q2692.74 261.087 2692.74 261.556 Q2692.74 261.72 2692.42 262.469 Q2692.11 263.219 2691.43 264.32 Q2690.78 265.421 2689.91 266.451 Q2689.07 267.482 2687.78 268.231 Q2686.49 268.957 2685.11 268.957 Q2683.16 268.957 2681.92 267.716 Q2680.7 266.475 2680.7 264.531 Q2680.7 263.898 2681.2 261.884 Q2681.69 259.846 2684.36 249.236 L2680.12 249.236 Q2679.53 249.236 2679.3 249.212 Q2679.09 249.189 2678.92 249.072 Q2678.78 248.931 2678.78 248.65 Q2678.78 248.205 2678.97 248.018 Q2679.16 247.807 2679.39 247.784 Q2679.65 247.737 2680.24 247.737 L2684.73 247.737 L2686.61 240.124 Q2686.79 239.375 2687.26 238.953 Q2687.75 238.508 2688.04 238.461 Q2688.32 238.391 2688.53 238.391 Q2689.16 238.391 2689.53 238.742 Q2689.91 239.07 2689.91 239.679 Q2689.91 240.007 2687.94 247.737 L2692.16 247.737 Q2692.7 247.737 2692.91 247.76 Q2693.14 247.784 2693.33 247.901 Q2693.52 248.018 2693.52 248.275 Z" fill="#000000" fill-rule="nonzero" fill-opacity="1" /><path clip-path="url(#clip030)" d="M2697.27 279.943 Q2697.27 279.708 2697.88 279.123 Q2705.61 271.253 2705.61 256.426 Q2705.61 241.553 2698.18 234.035 Q2697.27 233.168 2697.27 232.91 Q2697.27 232.442 2697.74 232.442 Q2698.06 232.442 2699.21 233.402 Q2700.38 234.362 2702.14 236.564 Q2703.92 238.766 2705.23 241.459 Q2708.39 247.994 2708.39 256.426 Q2708.39 264.531 2705.37 271.065 Q2704.08 273.806 2702.28 276.101 Q2700.48 278.397 2699.28 279.404 Q2698.09 280.411 2697.74 280.411 Q2697.27 280.411 2697.27 279.943 Z" fill="#000000" fill-rule="nonzero" fill-opacity="1" /><polyline clip-path="url(#clip030)" style="stroke:#ff0000; stroke-linecap:round; stroke-linejoin:round; stroke-width:6; stroke-opacity:1; fill:none" stroke-dasharray="24, 15" points="2378.66,360.224 2574.47,360.224 "/>
<path clip-path="url(#clip030)" d="M2633.45 317.024 L2633.45 351.584 L2628.77 351.584 L2628.77 320.959 L2611.78 320.959 L2611.78 351.584 L2607.1 351.584 L2607.1 317.024 L2633.45 317.024 Z" fill="#000000" fill-rule="nonzero" fill-opacity="1" /><path clip-path="url(#clip030)" d="M2652.61 328.644 Q2649.19 328.644 2647.2 331.329 Q2645.21 333.991 2645.21 338.644 Q2645.21 343.297 2647.17 345.982 Q2649.16 348.644 2652.61 348.644 Q2656.02 348.644 2658.01 345.959 Q2660 343.274 2660 338.644 Q2660 334.038 2658.01 331.352 Q2656.02 328.644 2652.61 328.644 M2652.61 325.033 Q2658.17 325.033 2661.34 328.644 Q2664.51 332.255 2664.51 338.644 Q2664.51 345.01 2661.34 348.644 Q2658.17 352.255 2652.61 352.255 Q2647.04 352.255 2643.86 348.644 Q2640.72 345.01 2640.72 338.644 Q2640.72 332.255 2643.86 328.644 Q2647.04 325.033 2652.61 325.033 Z" fill="#000000" fill-rule="nonzero" fill-opacity="1" /><path clip-path="url(#clip030)" d="M2675.69 347.695 L2675.69 361.445 L2671.41 361.445 L2671.41 325.658 L2675.69 325.658 L2675.69 329.593 Q2677.04 327.278 2679.07 326.167 Q2681.13 325.033 2683.98 325.033 Q2688.7 325.033 2691.64 328.783 Q2694.6 332.533 2694.6 338.644 Q2694.6 344.755 2691.64 348.505 Q2688.7 352.255 2683.98 352.255 Q2681.13 352.255 2679.07 351.144 Q2677.04 350.01 2675.69 347.695 M2690.18 338.644 Q2690.18 333.945 2688.24 331.283 Q2686.32 328.598 2682.94 328.598 Q2679.56 328.598 2677.61 331.283 Q2675.69 333.945 2675.69 338.644 Q2675.69 343.343 2677.61 346.028 Q2679.56 348.69 2682.94 348.69 Q2686.32 348.69 2688.24 346.028 Q2690.18 343.343 2690.18 338.644 Z" fill="#000000" fill-rule="nonzero" fill-opacity="1" /><path clip-path="url(#clip030)" d="M2711.71 328.644 Q2708.28 328.644 2706.29 331.329 Q2704.3 333.991 2704.3 338.644 Q2704.3 343.297 2706.27 345.982 Q2708.26 348.644 2711.71 348.644 Q2715.11 348.644 2717.1 345.959 Q2719.1 343.274 2719.1 338.644 Q2719.1 334.038 2717.1 331.352 Q2715.11 328.644 2711.71 328.644 M2711.71 325.033 Q2717.27 325.033 2720.44 328.644 Q2723.61 332.255 2723.61 338.644 Q2723.61 345.01 2720.44 348.644 Q2717.27 352.255 2711.71 352.255 Q2706.13 352.255 2702.96 348.644 Q2699.81 345.01 2699.81 338.644 Q2699.81 332.255 2702.96 328.644 Q2706.13 325.033 2711.71 325.033 Z" fill="#000000" fill-rule="nonzero" fill-opacity="1" /><path clip-path="url(#clip030)" d="M2730.51 351.584 L2730.51 325.658 L2748.79 325.658 L2748.79 329.061 L2734.79 329.061 L2734.79 351.584 L2730.51 351.584 Z" fill="#000000" fill-rule="nonzero" fill-opacity="1" /><path clip-path="url(#clip030)" d="M2607.1 398.493 Q2610.76 400.484 2614.4 400.484 Q2617.8 400.484 2620.23 398.516 Q2622.66 396.526 2623.1 391.479 L2609.95 391.479 L2609.95 388.077 L2622.96 388.077 Q2622.68 385.646 2620.83 383.077 Q2619 380.484 2614.4 380.484 Q2610.83 380.484 2607.1 382.475 L2607.1 378.493 Q2610.74 376.873 2614.58 376.873 Q2620.65 376.873 2624.12 380.553 Q2627.61 384.211 2627.61 390.484 Q2627.61 396.734 2624.21 400.414 Q2620.83 404.095 2614.88 404.095 Q2610.51 404.095 2607.1 402.428 L2607.1 398.493 Z" fill="#000000" fill-rule="nonzero" fill-opacity="1" /><path clip-path="url(#clip030)" d="M2657.2 377.498 L2657.2 403.424 L2652.91 403.424 L2652.91 380.901 L2639.1 380.901 L2639.1 403.424 L2634.81 403.424 L2634.81 377.498 L2657.2 377.498 Z" fill="#000000" fill-rule="nonzero" fill-opacity="1" /><path clip-path="url(#clip030)" d="M2688.01 377.498 L2688.01 403.424 L2683.77 403.424 L2683.77 382.614 L2671.27 403.424 L2665.81 403.424 L2665.81 377.498 L2670.04 377.498 L2670.04 398.262 L2682.52 377.498 L2688.01 377.498 Z" fill="#000000" fill-rule="nonzero" fill-opacity="1" /><path clip-path="url(#clip030)" d="M2702.57 400.021 L2714.93 400.021 L2714.93 380.901 L2705.97 380.901 L2705.97 384.141 Q2705.97 393.678 2703.24 398.771 L2702.57 400.021 M2696.39 400.021 Q2698.49 399.095 2699.42 397.127 Q2701.69 392.243 2701.69 382.405 L2701.69 377.498 L2719.21 377.498 L2719.21 400.021 L2722.61 400.021 L2722.61 409.975 L2719.21 409.975 L2719.21 403.424 L2698.19 403.424 L2698.19 409.975 L2694.79 409.975 L2694.79 400.021 L2696.39 400.021 Z" fill="#000000" fill-rule="nonzero" fill-opacity="1" /><path clip-path="url(#clip030)" d="M2751.73 389.396 L2751.73 391.479 L2732.15 391.479 Q2732.43 395.877 2734.79 398.192 Q2737.17 400.484 2741.41 400.484 Q2743.86 400.484 2746.16 399.882 Q2748.47 399.28 2750.74 398.077 L2750.74 402.104 Q2748.45 403.076 2746.04 403.586 Q2743.63 404.095 2741.16 404.095 Q2734.95 404.095 2731.32 400.484 Q2727.71 396.873 2727.71 390.715 Q2727.71 384.35 2731.13 380.623 Q2734.58 376.873 2740.41 376.873 Q2745.65 376.873 2748.68 380.253 Q2751.73 383.609 2751.73 389.396 M2747.47 388.146 Q2747.43 384.651 2745.51 382.567 Q2743.61 380.484 2740.46 380.484 Q2736.9 380.484 2734.74 382.498 Q2732.61 384.512 2732.29 388.169 L2747.47 388.146 Z" fill="#000000" fill-rule="nonzero" fill-opacity="1" /><path clip-path="url(#clip030)" d="M2758.56 377.498 L2764.79 377.498 L2772.15 394.859 L2779.53 377.498 L2785.72 377.498 L2785.72 403.424 L2781.43 403.424 L2781.43 381.572 L2774.28 398.447 L2770.02 398.447 L2762.84 381.572 L2762.84 403.424 L2758.56 403.424 L2758.56 377.498 Z" fill="#000000" fill-rule="nonzero" fill-opacity="1" /><path clip-path="url(#clip030)" d="M2816.53 377.498 L2816.53 403.424 L2812.29 403.424 L2812.29 382.614 L2799.79 403.424 L2794.33 403.424 L2794.33 377.498 L2798.56 377.498 L2798.56 398.262 L2811.04 377.498 L2816.53 377.498 Z" fill="#000000" fill-rule="nonzero" fill-opacity="1" /><path clip-path="url(#clip030)" d="M2847.34 377.498 L2847.34 403.424 L2843.1 403.424 L2843.1 382.614 L2830.6 403.424 L2825.14 403.424 L2825.14 377.498 L2829.37 377.498 L2829.37 398.262 L2841.85 377.498 L2847.34 377.498 Z" fill="#000000" fill-rule="nonzero" fill-opacity="1" /><path clip-path="url(#clip030)" d="M2881.41 367.452 Q2878.31 372.776 2876.8 377.984 Q2875.3 383.192 2875.3 388.54 Q2875.3 393.887 2876.8 399.141 Q2878.33 404.373 2881.41 409.674 L2877.71 409.674 Q2874.23 404.234 2872.5 398.979 Q2870.78 393.725 2870.78 388.54 Q2870.78 383.378 2872.5 378.146 Q2874.21 372.915 2877.71 367.452 L2881.41 367.452 Z" fill="#000000" fill-rule="nonzero" fill-opacity="1" /><path clip-path="url(#clip030)" d="M2906.25 387.22 Q2907.75 387.729 2909.16 389.396 Q2910.6 391.063 2912.03 393.979 L2916.78 403.424 L2911.76 403.424 L2907.33 394.558 Q2905.62 391.086 2904 389.952 Q2902.4 388.817 2899.63 388.817 L2894.53 388.817 L2894.53 403.424 L2889.86 403.424 L2889.86 368.864 L2900.41 368.864 Q2906.34 368.864 2909.26 371.341 Q2912.17 373.817 2912.17 378.817 Q2912.17 382.081 2910.64 384.234 Q2909.14 386.387 2906.25 387.22 M2894.53 372.706 L2894.53 384.975 L2900.41 384.975 Q2903.79 384.975 2905.51 383.424 Q2907.24 381.85 2907.24 378.817 Q2907.24 375.785 2905.51 374.257 Q2903.79 372.706 2900.41 372.706 L2894.53 372.706 Z" fill="#000000" fill-rule="nonzero" fill-opacity="1" /><path clip-path="url(#clip030)" d="M2934.93 395.577 L2934.93 396.734 L2922.59 396.734 Q2922.77 399.188 2924.26 400.484 Q2925.76 401.78 2928.42 401.78 Q2929.97 401.78 2931.43 401.433 Q2932.87 401.109 2934.3 400.438 L2934.3 402.683 Q2932.87 403.239 2931.34 403.516 Q2929.83 403.794 2928.26 403.794 Q2924.35 403.794 2922.08 401.78 Q2919.79 399.766 2919.79 396.317 Q2919.79 392.752 2921.96 390.646 Q2924.12 388.563 2927.8 388.563 Q2931.08 388.563 2933.01 390.438 Q2934.93 392.336 2934.93 395.577 M2932.24 394.859 Q2932.22 392.915 2931.02 391.734 Q2929.81 390.577 2927.82 390.577 Q2925.58 390.577 2924.23 391.711 Q2922.89 392.822 2922.68 394.859 L2932.24 394.859 Z" fill="#000000" fill-rule="nonzero" fill-opacity="1" /><path clip-path="url(#clip030)" d="M2942.94 381.896 L2972.61 381.896 L2972.61 385.785 L2942.94 385.785 L2942.94 381.896 M2942.94 391.34 L2972.61 391.34 L2972.61 395.276 L2942.94 395.276 L2942.94 391.34 Z" fill="#000000" fill-rule="nonzero" fill-opacity="1" /><path clip-path="url(#clip030)" d="M2983.51 399.489 L2991.15 399.489 L2991.15 373.123 L2982.84 374.79 L2982.84 370.53 L2991.11 368.864 L2995.78 368.864 L2995.78 399.489 L3003.42 399.489 L3003.42 403.424 L2983.51 403.424 L2983.51 399.489 Z" fill="#000000" fill-rule="nonzero" fill-opacity="1" /><path clip-path="url(#clip030)" d="M3011.59 367.452 L3015.3 367.452 Q3018.77 372.915 3020.48 378.146 Q3022.22 383.378 3022.22 388.54 Q3022.22 393.725 3020.48 398.979 Q3018.77 404.234 3015.3 409.674 L3011.59 409.674 Q3014.67 404.373 3016.18 399.141 Q3017.7 393.887 3017.7 388.54 Q3017.7 383.192 3016.18 377.984 Q3014.67 372.776 3011.59 367.452 Z" fill="#000000" fill-rule="nonzero" fill-opacity="1" /></svg>
